<svg version="1.1" xmlns="http://www.w3.org/2000/svg" xmlns:xlink="http://www.w3.org/1999/xlink" width="1116.5" height="1068"><defs/><g><g transform="translate(-10.5,-6) scale(1,1)"><rect fill="#C0C0C0" stroke="none" x="27.5" y="89" width="132" height="39" opacity="0.2"/></g><g transform="translate(-10.5,-6) scale(1,1)"><rect fill="#ffffff" stroke="none" x="20.5" y="82" width="132" height="39"/></g><g transform="translate(-10.5,-6) scale(1,1)"><path fill="none" stroke="#000000" d="M 20.5 82 L 152.5 82 L 152.5 121 L 20.5 121 L 20.5 82 Z Z" stroke-miterlimit="10"/></g><g transform="translate(-10.5,-6) scale(1,1)"><g><path fill="none" stroke="none"/><text fill="#000000" stroke="none" font-family="Arial" font-size="13px" font-style="italic" font-weight="bold" text-decoration="none" x="29" y="101.5">AbstractComponent</text></g></g><g transform="translate(-10.5,-6) scale(1,1)"><g><path fill="none" stroke="none"/><text fill="#000000" stroke="none" font-family="Arial" font-size="13px" font-style="normal" font-weight="normal" text-decoration="none" x="34.5" y="116.5">(from Component)</text></g></g><g transform="translate(-10.5,-6) scale(1,1)"><rect fill="#C0C0C0" stroke="none" x="262" y="27" width="151" height="39" opacity="0.2"/></g><g transform="translate(-10.5,-6) scale(1,1)"><rect fill="#ffffff" stroke="none" x="255" y="20" width="151" height="39"/></g><g transform="translate(-10.5,-6) scale(1,1)"><path fill="none" stroke="#000000" d="M 255 20 L 406 20 L 406 59 L 255 59 L 255 20 Z Z" stroke-miterlimit="10"/></g><g transform="translate(-10.5,-6) scale(1,1)"><g><path fill="none" stroke="none"/><text fill="#000000" stroke="none" font-family="Arial" font-size="13px" font-style="italic" font-weight="bold" text-decoration="none" x="263" y="39.5">AbstractPostProcessor</text></g></g><g transform="translate(-10.5,-6) scale(1,1)"><g><path fill="none" stroke="none"/><text fill="#000000" stroke="none" font-family="Arial" font-size="13px" font-style="normal" font-weight="normal" text-decoration="none" x="268.5" y="54.5">(from PostProcessor)</text></g></g><g transform="translate(-10.5,-6) scale(1,1)"><path fill="none" stroke="#000000" d="M 254 40 Q 204 40 125 81" stroke-miterlimit="10"/></g><g transform="translate(-10.5,-6) scale(1,1)"><path fill="#FFFFFF" stroke="none" d="M 139.1622765243937 64.16462285404312 L 125 81 L 146.91865111117696 79.10983242369869"/></g><g transform="translate(-10.5,-6) scale(1,1)"><path fill="none" stroke="#000000" d="M 139.1622765243937 64.16462285404312 L 125 81 L 146.91865111117696 79.10983242369869 L 139.1622765243937 64.16462285404312" stroke-miterlimit="10"/></g><g transform="translate(-10.5,-6) scale(1,1)"><rect fill="#C0C0C0" stroke="none" x="510" y="23" width="137" height="39" opacity="0.2"/></g><g transform="translate(-10.5,-6) scale(1,1)"><rect fill="#ffffff" stroke="none" x="503" y="16" width="137" height="39"/></g><g transform="translate(-10.5,-6) scale(1,1)"><path fill="none" stroke="#000000" d="M 503 16 L 640 16 L 640 55 L 503 55 L 503 16 Z Z" stroke-miterlimit="10"/></g><g transform="translate(-10.5,-6) scale(1,1)"><g><path fill="none" stroke="none"/><text fill="#000000" stroke="none" font-family="Arial" font-size="13px" font-style="normal" font-weight="bold" text-decoration="none" x="512" y="35.5">SetHiddenProperties</text></g></g><g transform="translate(-10.5,-6) scale(1,1)"><g><path fill="none" stroke="none"/><text fill="#000000" stroke="none" font-family="Arial" font-size="13px" font-style="normal" font-weight="normal" text-decoration="none" x="509.5" y="50.5">(from PostProcessor)</text></g></g><g transform="translate(-10.5,-6) scale(1,1)"><path fill="none" stroke="#000000" d="M 502 38 Q 458 40 407 40" stroke-miterlimit="10"/></g><g transform="translate(-10.5,-6) scale(1,1)"><path fill="#FFFFFF" stroke="none" d="M 427.3253497152483 31.580964487968025 L 407 40 L 427.3253497152483 48.419035512031975"/></g><g transform="translate(-10.5,-6) scale(1,1)"><path fill="none" stroke="#000000" d="M 427.3253497152483 31.580964487968025 L 407 40 L 427.3253497152483 48.419035512031975 L 427.3253497152483 31.580964487968025" stroke-miterlimit="10"/></g><g transform="translate(-10.5,-6) scale(1,1)"><path fill="#C0C0C0" stroke="none" d="M 1036 58.5 C 1036 52.1487248 1041.1487248 47 1047.5 47 C 1053.8512752 47 1059 52.1487248 1059 58.5 C 1059 64.8512752 1053.8512752 70 1047.5 70 C 1041.1487248 70 1036 64.8512752 1036 58.5 Z" opacity="0.2"/></g><g transform="translate(-10.5,-6) scale(1,1)"><path fill="#ffffff" stroke="none" d="M 1029 51.5 C 1029 45.1487248 1034.1487248 40 1040.5 40 C 1046.8512752 40 1052 45.1487248 1052 51.5 C 1052 57.8512752 1046.8512752 63 1040.5 63 C 1034.1487248 63 1029 57.8512752 1029 51.5 Z"/></g><g transform="translate(-10.5,-6) scale(1,1)"><path fill="none" stroke="#000000" d="M 1029 51.5 C 1029 45.1487248 1034.1487248 40 1040.5 40 C 1046.8512752 40 1052 45.1487248 1052 51.5 C 1052 57.8512752 1046.8512752 63 1040.5 63 C 1034.1487248 63 1029 57.8512752 1029 51.5 Z" stroke-miterlimit="10"/></g><g transform="translate(-10.5,-6) scale(1,1)"><g><path fill="none" stroke="none"/><text fill="#000000" stroke="none" font-family="Arial" font-size="13px" font-style="normal" font-weight="bold" text-decoration="none" x="972" y="82.5">PostProcessorInterface</text></g></g><g transform="translate(-10.5,-6) scale(1,1)"><g><path fill="none" stroke="none"/><text fill="#000000" stroke="none" font-family="Arial" font-size="13px" font-style="normal" font-weight="normal" text-decoration="none" x="978.5" y="97.5">(from PostProcessor)</text></g></g><g transform="translate(-10.5,-6) scale(1,1)"><path fill="none" stroke="#000000" d="M 641 40 L 1029 53" stroke-miterlimit="10"/></g><g transform="translate(-10.5,-6) scale(1,1)"><rect fill="#C0C0C0" stroke="none" x="271" y="279" width="144" height="39" opacity="0.2"/></g><g transform="translate(-10.5,-6) scale(1,1)"><rect fill="#ffffff" stroke="none" x="264" y="272" width="144" height="39"/></g><g transform="translate(-10.5,-6) scale(1,1)"><path fill="none" stroke="#000000" d="M 264 272 L 408 272 L 408 311 L 264 311 L 264 272 Z Z" stroke-miterlimit="10"/></g><g transform="translate(-10.5,-6) scale(1,1)"><g><path fill="none" stroke="none"/><text fill="#000000" stroke="none" font-family="Arial" font-size="13px" font-style="italic" font-weight="bold" text-decoration="none" x="272" y="291.5">AbstractPreProcessor</text></g></g><g transform="translate(-10.5,-6) scale(1,1)"><g><path fill="none" stroke="none"/><text fill="#000000" stroke="none" font-family="Arial" font-size="13px" font-style="normal" font-weight="normal" text-decoration="none" x="277.5" y="306.5">(from PreProcessor)</text></g></g><g transform="translate(-10.5,-6) scale(1,1)"><path fill="none" stroke="#000000" d="M 263 286 Q 184 280 97 122" stroke-miterlimit="10"/></g><g transform="translate(-10.5,-6) scale(1,1)"><path fill="#FFFFFF" stroke="none" d="M 114.17873859082535 135.74376005422417 L 97 122 L 99.42889661646095 143.86550848314636"/></g><g transform="translate(-10.5,-6) scale(1,1)"><path fill="none" stroke="#000000" d="M 114.17873859082535 135.74376005422417 L 97 122 L 99.42889661646095 143.86550848314636 L 114.17873859082535 135.74376005422417" stroke-miterlimit="10"/></g><g transform="translate(-10.5,-6) scale(1,1)"><rect fill="#C0C0C0" stroke="none" x="515" y="111" width="126" height="39" opacity="0.2"/></g><g transform="translate(-10.5,-6) scale(1,1)"><rect fill="#ffffff" stroke="none" x="508" y="104" width="126" height="39"/></g><g transform="translate(-10.5,-6) scale(1,1)"><path fill="none" stroke="#000000" d="M 508 104 L 634 104 L 634 143 L 508 143 L 508 104 Z Z" stroke-miterlimit="10"/></g><g transform="translate(-10.5,-6) scale(1,1)"><g><path fill="none" stroke="none"/><text fill="#000000" stroke="none" font-family="Arial" font-size="13px" font-style="italic" font-weight="bold" text-decoration="none" x="515.5" y="123.5">AbstractLookUpDB</text></g></g><g transform="translate(-10.5,-6) scale(1,1)"><g><path fill="none" stroke="none"/><text fill="#000000" stroke="none" font-family="Arial" font-size="13px" font-style="normal" font-weight="normal" text-decoration="none" x="512.5" y="138.5">(from PreProcessor)</text></g></g><g transform="translate(-10.5,-6) scale(1,1)"><path fill="none" stroke="#000000" d="M 507 230 Q 464 232 379 271" stroke-miterlimit="10"/></g><g transform="translate(-10.5,-6) scale(1,1)"><path fill="#FFFFFF" stroke="none" d="M 393.9626985976562 254.87183672343008 L 379 271 L 400.98455926419956 270.1758920223067"/></g><g transform="translate(-10.5,-6) scale(1,1)"><path fill="none" stroke="#000000" d="M 393.9626985976562 254.87183672343008 L 379 271 L 400.98455926419956 270.1758920223067 L 393.9626985976562 254.87183672343008" stroke-miterlimit="10"/></g><g transform="translate(-10.5,-6) scale(1,1)"><path fill="none" stroke="#000000" d="M 507 282 L 409 287" stroke-miterlimit="10"/></g><g transform="translate(-10.5,-6) scale(1,1)"><path fill="#FFFFFF" stroke="none" d="M 428.86996232404056 277.5562403015955 L 409 287 L 429.72793162388837 294.3724385786122"/></g><g transform="translate(-10.5,-6) scale(1,1)"><path fill="none" stroke="#000000" d="M 428.86996232404056 277.5562403015955 L 409 287 L 429.72793162388837 294.3724385786122 L 428.86996232404056 277.5562403015955" stroke-miterlimit="10"/></g><g transform="translate(-10.5,-6) scale(1,1)"><path fill="none" stroke="#000000" d="M 507 324 Q 472 320 409 307" stroke-miterlimit="10"/></g><g transform="translate(-10.5,-6) scale(1,1)"><path fill="#FFFFFF" stroke="none" d="M 430.607385198628 302.86225848099326 L 409 307 L 427.20455368454645 319.3529035107729"/></g><g transform="translate(-10.5,-6) scale(1,1)"><path fill="none" stroke="#000000" d="M 430.607385198628 302.86225848099326 L 409 307 L 427.20455368454645 319.3529035107729 L 430.607385198628 302.86225848099326" stroke-miterlimit="10"/></g><g transform="translate(-10.5,-6) scale(1,1)"><path fill="none" stroke="#000000" d="M 507 420 Q 424 400 353 312" stroke-miterlimit="10"/></g><g transform="translate(-10.5,-6) scale(1,1)"><path fill="#FFFFFF" stroke="none" d="M 372.3151145238943 322.5321579426463 L 353 312 L 359.21048815746747 333.1052087610134"/></g><g transform="translate(-10.5,-6) scale(1,1)"><path fill="none" stroke="#000000" d="M 372.3151145238943 322.5321579426463 L 353 312 L 359.21048815746747 333.1052087610134 L 372.3151145238943 322.5321579426463" stroke-miterlimit="10"/></g><g transform="translate(-10.5,-6) scale(1,1)"><path fill="none" stroke="#000000" d="M 507 378 Q 480 376 372 312" stroke-miterlimit="10"/></g><g transform="translate(-10.5,-6) scale(1,1)"><path fill="#FFFFFF" stroke="none" d="M 393.777770706251 315.11908689618565 L 372 312 L 385.1936818501128 329.6047368409188"/></g><g transform="translate(-10.5,-6) scale(1,1)"><path fill="none" stroke="#000000" d="M 393.777770706251 315.11908689618565 L 372 312 L 385.1936818501128 329.6047368409188 L 393.777770706251 315.11908689618565" stroke-miterlimit="10"/></g><g transform="translate(-10.5,-6) scale(1,1)"><path fill="none" stroke="#000000" d="M 507 480 Q 440 472 348 312" stroke-miterlimit="10"/></g><g transform="translate(-10.5,-6) scale(1,1)"><path fill="#FFFFFF" stroke="none" d="M 365.43011487454424 325.4235276831461 L 348 312 L 350.8330849724528 333.81681987684874"/></g><g transform="translate(-10.5,-6) scale(1,1)"><path fill="none" stroke="#000000" d="M 365.43011487454424 325.4235276831461 L 348 312 L 350.8330849724528 333.81681987684874 L 365.43011487454424 325.4235276831461" stroke-miterlimit="10"/></g><g transform="translate(-10.5,-6) scale(1,1)"><rect fill="#C0C0C0" stroke="none" x="753" y="87" width="126" height="39" opacity="0.2"/></g><g transform="translate(-10.5,-6) scale(1,1)"><rect fill="#ffffff" stroke="none" x="746" y="80" width="126" height="39"/></g><g transform="translate(-10.5,-6) scale(1,1)"><path fill="none" stroke="#000000" d="M 746 80 L 872 80 L 872 119 L 746 119 L 746 80 Z Z" stroke-miterlimit="10"/></g><g transform="translate(-10.5,-6) scale(1,1)"><g><path fill="none" stroke="none"/><text fill="#000000" stroke="none" font-family="Arial" font-size="13px" font-style="normal" font-weight="bold" text-decoration="none" x="762.5" y="99.5">LookUpLocalDB</text></g></g><g transform="translate(-10.5,-6) scale(1,1)"><g><path fill="none" stroke="none"/><text fill="#000000" stroke="none" font-family="Arial" font-size="13px" font-style="normal" font-weight="normal" text-decoration="none" x="750.5" y="114.5">(from PreProcessor)</text></g></g><g transform="translate(-10.5,-6) scale(1,1)"><path fill="none" stroke="#000000" d="M 745 102 Q 696 105 635 114" stroke-miterlimit="10"/></g><g transform="translate(-10.5,-6) scale(1,1)"><path fill="#FFFFFF" stroke="none" d="M 653.8788228337766 102.70442350249984 L 635 114 L 656.3365223853766 119.36216490778905"/></g><g transform="translate(-10.5,-6) scale(1,1)"><path fill="none" stroke="#000000" d="M 653.8788228337766 102.70442350249984 L 635 114 L 656.3365223853766 119.36216490778905 L 653.8788228337766 102.70442350249984" stroke-miterlimit="10"/></g><g transform="translate(-10.5,-6) scale(1,1)"><rect fill="#C0C0C0" stroke="none" x="753" y="135" width="126" height="39" opacity="0.2"/></g><g transform="translate(-10.5,-6) scale(1,1)"><rect fill="#ffffff" stroke="none" x="746" y="128" width="126" height="39"/></g><g transform="translate(-10.5,-6) scale(1,1)"><path fill="none" stroke="#000000" d="M 746 128 L 872 128 L 872 167 L 746 167 L 746 128 Z Z" stroke-miterlimit="10"/></g><g transform="translate(-10.5,-6) scale(1,1)"><g><path fill="none" stroke="none"/><text fill="#000000" stroke="none" font-family="Arial" font-size="13px" font-style="normal" font-weight="bold" text-decoration="none" x="757.5" y="147.5">LookUpSourceDB</text></g></g><g transform="translate(-10.5,-6) scale(1,1)"><g><path fill="none" stroke="none"/><text fill="#000000" stroke="none" font-family="Arial" font-size="13px" font-style="normal" font-weight="normal" text-decoration="none" x="750.5" y="162.5">(from PreProcessor)</text></g></g><g transform="translate(-10.5,-6) scale(1,1)"><path fill="none" stroke="#000000" d="M 745 141 L 635 129" stroke-miterlimit="10"/></g><g transform="translate(-10.5,-6) scale(1,1)"><path fill="#FFFFFF" stroke="none" d="M 656.1184978316053 122.83485204261233 L 635 129 L 654.2924509528888 139.5736150975143"/></g><g transform="translate(-10.5,-6) scale(1,1)"><path fill="none" stroke="#000000" d="M 656.1184978316053 122.83485204261233 L 635 129 L 654.2924509528888 139.5736150975143 L 656.1184978316053 122.83485204261233" stroke-miterlimit="10"/></g><g transform="translate(-10.5,-6) scale(1,1)"><path fill="#C0C0C0" stroke="none" d="M 1035.5 306.5 C 1035.5 300.1487248 1040.6487248 295 1047 295 C 1053.3512752 295 1058.5 300.1487248 1058.5 306.5 C 1058.5 312.8512752 1053.3512752 318 1047 318 C 1040.6487248 318 1035.5 312.8512752 1035.5 306.5 Z" opacity="0.2"/></g><g transform="translate(-10.5,-6) scale(1,1)"><path fill="#ffffff" stroke="none" d="M 1028.5 299.5 C 1028.5 293.1487248 1033.6487248 288 1040 288 C 1046.3512752 288 1051.5 293.1487248 1051.5 299.5 C 1051.5 305.8512752 1046.3512752 311 1040 311 C 1033.6487248 311 1028.5 305.8512752 1028.5 299.5 Z"/></g><g transform="translate(-10.5,-6) scale(1,1)"><path fill="none" stroke="#000000" d="M 1028.5 299.5 C 1028.5 293.1487248 1033.6487248 288 1040 288 C 1046.3512752 288 1051.5 293.1487248 1051.5 299.5 C 1051.5 305.8512752 1046.3512752 311 1040 311 C 1033.6487248 311 1028.5 305.8512752 1028.5 299.5 Z" stroke-miterlimit="10"/></g><g transform="translate(-10.5,-6) scale(1,1)"><g><path fill="none" stroke="none"/><text fill="#000000" stroke="none" font-family="Arial" font-size="13px" font-style="normal" font-weight="bold" text-decoration="none" x="975" y="330.5">PreProcessorInterface</text></g></g><g transform="translate(-10.5,-6) scale(1,1)"><g><path fill="none" stroke="none"/><text fill="#000000" stroke="none" font-family="Arial" font-size="13px" font-style="normal" font-weight="normal" text-decoration="none" x="981.5" y="345.5">(from PreProcessor)</text></g></g><g transform="translate(-10.5,-6) scale(1,1)"><path fill="none" stroke="#000000" d="M 860 168 Q 976 216 1028.5 292.1" stroke-miterlimit="10"/></g><g transform="translate(-10.5,-6) scale(1,1)"><path fill="none" stroke="#000000" d="M 873 120 Q 1024 168 1037.25 288" stroke-miterlimit="10"/></g><g transform="translate(-10.5,-6) scale(1,1)"><rect fill="#C0C0C0" stroke="none" x="515" y="163" width="126" height="39" opacity="0.2"/></g><g transform="translate(-10.5,-6) scale(1,1)"><rect fill="#ffffff" stroke="none" x="508" y="156" width="126" height="39"/></g><g transform="translate(-10.5,-6) scale(1,1)"><path fill="none" stroke="#000000" d="M 508 156 L 634 156 L 634 195 L 508 195 L 508 156 Z Z" stroke-miterlimit="10"/></g><g transform="translate(-10.5,-6) scale(1,1)"><g><path fill="none" stroke="none"/><text fill="#000000" stroke="none" font-family="Arial" font-size="13px" font-style="normal" font-weight="bold" text-decoration="none" x="528" y="175.5">RenderContent</text></g></g><g transform="translate(-10.5,-6) scale(1,1)"><g><path fill="none" stroke="none"/><text fill="#000000" stroke="none" font-family="Arial" font-size="13px" font-style="normal" font-weight="normal" text-decoration="none" x="512.5" y="190.5">(from PreProcessor)</text></g></g><g transform="translate(-10.5,-6) scale(1,1)"><path fill="none" stroke="#000000" d="M 507 175 Q 440 176 354 271" stroke-miterlimit="10"/></g><g transform="translate(-10.5,-6) scale(1,1)"><path fill="#FFFFFF" stroke="none" d="M 361.3992412762947 250.2816209964395 L 354 271 L 373.882159970714 261.5819473934928"/></g><g transform="translate(-10.5,-6) scale(1,1)"><path fill="none" stroke="#000000" d="M 361.3992412762947 250.2816209964395 L 354 271 L 373.882159970714 261.5819473934928 L 361.3992412762947 250.2816209964395" stroke-miterlimit="10"/></g><g transform="translate(-10.5,-6) scale(1,1)"><path fill="none" stroke="#000000" d="M 635 187 Q 864 232 1028.5 296.87692307692305" stroke-miterlimit="10"/></g><g transform="translate(-10.5,-6) scale(1,1)"><rect fill="#C0C0C0" stroke="none" x="515" y="215" width="126" height="39" opacity="0.2"/></g><g transform="translate(-10.5,-6) scale(1,1)"><rect fill="#ffffff" stroke="none" x="508" y="208" width="126" height="39"/></g><g transform="translate(-10.5,-6) scale(1,1)"><path fill="none" stroke="#000000" d="M 508 208 L 634 208 L 634 247 L 508 247 L 508 208 Z Z" stroke-miterlimit="10"/></g><g transform="translate(-10.5,-6) scale(1,1)"><g><path fill="none" stroke="none"/><text fill="#000000" stroke="none" font-family="Arial" font-size="13px" font-style="normal" font-weight="bold" text-decoration="none" x="517" y="227.5">ConcatenateFields</text></g></g><g transform="translate(-10.5,-6) scale(1,1)"><g><path fill="none" stroke="none"/><text fill="#000000" stroke="none" font-family="Arial" font-size="13px" font-style="normal" font-weight="normal" text-decoration="none" x="512.5" y="242.5">(from PreProcessor)</text></g></g><g transform="translate(-10.5,-6) scale(1,1)"><path fill="none" stroke="#000000" d="M 635 239 Q 808 272 1028.5 299.77702702702703" stroke-miterlimit="10"/></g><g transform="translate(-10.5,-6) scale(1,1)"><rect fill="#C0C0C0" stroke="none" x="515" y="267" width="126" height="39" opacity="0.2"/></g><g transform="translate(-10.5,-6) scale(1,1)"><rect fill="#ffffff" stroke="none" x="508" y="260" width="126" height="39"/></g><g transform="translate(-10.5,-6) scale(1,1)"><path fill="none" stroke="#000000" d="M 508 260 L 634 260 L 634 299 L 508 299 L 508 260 Z Z" stroke-miterlimit="10"/></g><g transform="translate(-10.5,-6) scale(1,1)"><g><path fill="none" stroke="none"/><text fill="#000000" stroke="none" font-family="Arial" font-size="13px" font-style="normal" font-weight="bold" text-decoration="none" x="540.5" y="279.5">AddArrays</text></g></g><g transform="translate(-10.5,-6) scale(1,1)"><g><path fill="none" stroke="none"/><text fill="#000000" stroke="none" font-family="Arial" font-size="13px" font-style="normal" font-weight="normal" text-decoration="none" x="512.5" y="294.5">(from PreProcessor)</text></g></g><g transform="translate(-10.5,-6) scale(1,1)"><path fill="none" stroke="#000000" d="M 635 291 Q 784 320 1028.5 302.1081081081081" stroke-miterlimit="10"/></g><g transform="translate(-10.5,-6) scale(1,1)"><rect fill="#C0C0C0" stroke="none" x="515" y="319" width="126" height="39" opacity="0.2"/></g><g transform="translate(-10.5,-6) scale(1,1)"><rect fill="#ffffff" stroke="none" x="508" y="312" width="126" height="39"/></g><g transform="translate(-10.5,-6) scale(1,1)"><path fill="none" stroke="#000000" d="M 508 312 L 634 312 L 634 351 L 508 351 L 508 312 Z Z" stroke-miterlimit="10"/></g><g transform="translate(-10.5,-6) scale(1,1)"><g><path fill="none" stroke="none"/><text fill="#000000" stroke="none" font-family="Arial" font-size="13px" font-style="normal" font-weight="bold" text-decoration="none" x="524.5" y="331.5">MapFieldValues</text></g></g><g transform="translate(-10.5,-6) scale(1,1)"><g><path fill="none" stroke="none"/><text fill="#000000" stroke="none" font-family="Arial" font-size="13px" font-style="normal" font-weight="normal" text-decoration="none" x="512.5" y="346.5">(from PreProcessor)</text></g></g><g transform="translate(-10.5,-6) scale(1,1)"><path fill="none" stroke="#000000" d="M 635 339 Q 794 360 1028.5 303.97297297297297" stroke-miterlimit="10"/></g><g transform="translate(-10.5,-6) scale(1,1)"><rect fill="#C0C0C0" stroke="none" x="515" y="371" width="126" height="39" opacity="0.2"/></g><g transform="translate(-10.5,-6) scale(1,1)"><rect fill="#ffffff" stroke="none" x="508" y="364" width="126" height="39"/></g><g transform="translate(-10.5,-6) scale(1,1)"><path fill="none" stroke="#000000" d="M 508 364 L 634 364 L 634 403 L 508 403 L 508 364 Z Z" stroke-miterlimit="10"/></g><g transform="translate(-10.5,-6) scale(1,1)"><g><path fill="none" stroke="none"/><text fill="#000000" stroke="none" font-family="Arial" font-size="13px" font-style="normal" font-weight="bold" text-decoration="none" x="541" y="383.5">MapFields</text></g></g><g transform="translate(-10.5,-6) scale(1,1)"><g><path fill="none" stroke="none"/><text fill="#000000" stroke="none" font-family="Arial" font-size="13px" font-style="normal" font-weight="normal" text-decoration="none" x="512.5" y="398.5">(from PreProcessor)</text></g></g><g transform="translate(-10.5,-6) scale(1,1)"><path fill="none" stroke="#000000" d="M 635 390 Q 808 408 1028.5 306.4594594594595" stroke-miterlimit="10"/></g><g transform="translate(-10.5,-6) scale(1,1)"><rect fill="#C0C0C0" stroke="none" x="515" y="423" width="126" height="39" opacity="0.2"/></g><g transform="translate(-10.5,-6) scale(1,1)"><rect fill="#ffffff" stroke="none" x="508" y="416" width="126" height="39"/></g><g transform="translate(-10.5,-6) scale(1,1)"><path fill="none" stroke="#000000" d="M 508 416 L 634 416 L 634 455 L 508 455 L 508 416 Z Z" stroke-miterlimit="10"/></g><g transform="translate(-10.5,-6) scale(1,1)"><g><path fill="none" stroke="none"/><text fill="#000000" stroke="none" font-family="Arial" font-size="13px" font-style="normal" font-weight="bold" text-decoration="none" x="527" y="435.5">SetFieldValues</text></g></g><g transform="translate(-10.5,-6) scale(1,1)"><g><path fill="none" stroke="none"/><text fill="#000000" stroke="none" font-family="Arial" font-size="13px" font-style="normal" font-weight="normal" text-decoration="none" x="512.5" y="450.5">(from PreProcessor)</text></g></g><g transform="translate(-10.5,-6) scale(1,1)"><path fill="none" stroke="#000000" d="M 635 436 Q 816 440 1028.5 308.9918032786885" stroke-miterlimit="10"/></g><g transform="translate(-10.5,-6) scale(1,1)"><rect fill="#C0C0C0" stroke="none" x="515" y="475" width="126" height="39" opacity="0.2"/></g><g transform="translate(-10.5,-6) scale(1,1)"><rect fill="#ffffff" stroke="none" x="508" y="468" width="126" height="39"/></g><g transform="translate(-10.5,-6) scale(1,1)"><path fill="none" stroke="#000000" d="M 508 468 L 634 468 L 634 507 L 508 507 L 508 468 Z Z" stroke-miterlimit="10"/></g><g transform="translate(-10.5,-6) scale(1,1)"><g><path fill="none" stroke="none"/><text fill="#000000" stroke="none" font-family="Arial" font-size="13px" font-style="normal" font-weight="bold" text-decoration="none" x="532" y="487.5">StringToTime</text></g></g><g transform="translate(-10.5,-6) scale(1,1)"><g><path fill="none" stroke="none"/><text fill="#000000" stroke="none" font-family="Arial" font-size="13px" font-style="normal" font-weight="normal" text-decoration="none" x="512.5" y="502.5">(from PreProcessor)</text></g></g><g transform="translate(-10.5,-6) scale(1,1)"><path fill="none" stroke="#000000" d="M 635 491 Q 840 504 1031.8490566037735 311" stroke-miterlimit="10"/></g><g transform="translate(-10.5,-6) scale(1,1)"><rect fill="#C0C0C0" stroke="none" x="537" y="599" width="82" height="39" opacity="0.2"/></g><g transform="translate(-10.5,-6) scale(1,1)"><rect fill="#ffffff" stroke="none" x="530" y="592" width="82" height="39"/></g><g transform="translate(-10.5,-6) scale(1,1)"><path fill="none" stroke="#000000" d="M 530 592 L 612 592 L 612 631 L 530 631 L 530 592 Z Z" stroke-miterlimit="10"/></g><g transform="translate(-10.5,-6) scale(1,1)"><g><path fill="none" stroke="none"/><text fill="#000000" stroke="none" font-family="Arial" font-size="13px" font-style="normal" font-weight="bold" text-decoration="none" x="537.5" y="611.5">ExportTask</text></g></g><g transform="translate(-10.5,-6) scale(1,1)"><g><path fill="none" stroke="none"/><text fill="#000000" stroke="none" font-family="Arial" font-size="13px" font-style="normal" font-weight="normal" text-decoration="none" x="534.5" y="626.5">(from Model)</text></g></g><g transform="translate(-10.5,-6) scale(1,1)"><rect fill="#C0C0C0" stroke="none" x="537" y="548" width="82" height="39" opacity="0.2"/></g><g transform="translate(-10.5,-6) scale(1,1)"><rect fill="#ffffff" stroke="none" x="530" y="541" width="82" height="39"/></g><g transform="translate(-10.5,-6) scale(1,1)"><path fill="none" stroke="#000000" d="M 530 541 L 612 541 L 612 580 L 530 580 L 530 541 Z Z" stroke-miterlimit="10"/></g><g transform="translate(-10.5,-6) scale(1,1)"><g><path fill="none" stroke="none"/><text fill="#000000" stroke="none" font-family="Arial" font-size="13px" font-style="normal" font-weight="bold" text-decoration="none" x="538" y="560.5">ImportTask</text></g></g><g transform="translate(-10.5,-6) scale(1,1)"><g><path fill="none" stroke="none"/><text fill="#000000" stroke="none" font-family="Arial" font-size="13px" font-style="normal" font-weight="normal" text-decoration="none" x="534.5" y="575.5">(from Model)</text></g></g><g transform="translate(-10.5,-6) scale(1,1)"><path fill="#C0C0C0" stroke="none" d="M 1036 546.5 C 1036 540.1487248 1041.1487248 535 1047.5 535 C 1053.8512752 535 1059 540.1487248 1059 546.5 C 1059 552.8512752 1053.8512752 558 1047.5 558 C 1041.1487248 558 1036 552.8512752 1036 546.5 Z" opacity="0.2"/></g><g transform="translate(-10.5,-6) scale(1,1)"><path fill="#ffffff" stroke="none" d="M 1029 539.5 C 1029 533.1487248 1034.1487248 528 1040.5 528 C 1046.8512752 528 1052 533.1487248 1052 539.5 C 1052 545.8512752 1046.8512752 551 1040.5 551 C 1034.1487248 551 1029 545.8512752 1029 539.5 Z"/></g><g transform="translate(-10.5,-6) scale(1,1)"><path fill="none" stroke="#000000" d="M 1029 539.5 C 1029 533.1487248 1034.1487248 528 1040.5 528 C 1046.8512752 528 1052 533.1487248 1052 539.5 C 1052 545.8512752 1046.8512752 551 1040.5 551 C 1034.1487248 551 1029 545.8512752 1029 539.5 Z" stroke-miterlimit="10"/></g><g transform="translate(-10.5,-6) scale(1,1)"><g><path fill="none" stroke="none"/><text fill="#000000" stroke="none" font-family="Arial" font-size="13px" font-style="normal" font-weight="bold" text-decoration="none" x="996.5" y="570.5">ImportInterface</text></g></g><g transform="translate(-10.5,-6) scale(1,1)"><g><path fill="none" stroke="none"/><text fill="#000000" stroke="none" font-family="Arial" font-size="13px" font-style="normal" font-weight="normal" text-decoration="none" x="1004" y="585.5">(from Model)</text></g></g><g transform="translate(-10.5,-6) scale(1,1)"><path fill="none" stroke="#000000" d="M 613 558 Q 752 552 1029 543.0192307692307" stroke-miterlimit="10"/></g><g transform="translate(-10.5,-6) scale(1,1)"><g><path fill="none" stroke="none"/><text fill="#000000" stroke="none" font-family="Arial" font-size="13px" font-style="normal" font-weight="normal" text-decoration="none" x="752" y="544">+implements</text></g></g><g transform="translate(-10.5,-6) scale(1,1)"><path fill="#C0C0C0" stroke="none" d="M 1036 642.5 C 1036 636.1487248 1041.1487248 631 1047.5 631 C 1053.8512752 631 1059 636.1487248 1059 642.5 C 1059 648.8512752 1053.8512752 654 1047.5 654 C 1041.1487248 654 1036 648.8512752 1036 642.5 Z" opacity="0.2"/></g><g transform="translate(-10.5,-6) scale(1,1)"><path fill="#ffffff" stroke="none" d="M 1029 635.5 C 1029 629.1487248 1034.1487248 624 1040.5 624 C 1046.8512752 624 1052 629.1487248 1052 635.5 C 1052 641.8512752 1046.8512752 647 1040.5 647 C 1034.1487248 647 1029 641.8512752 1029 635.5 Z"/></g><g transform="translate(-10.5,-6) scale(1,1)"><path fill="none" stroke="#000000" d="M 1029 635.5 C 1029 629.1487248 1034.1487248 624 1040.5 624 C 1046.8512752 624 1052 629.1487248 1052 635.5 C 1052 641.8512752 1046.8512752 647 1040.5 647 C 1034.1487248 647 1029 641.8512752 1029 635.5 Z" stroke-miterlimit="10"/></g><g transform="translate(-10.5,-6) scale(1,1)"><g><path fill="none" stroke="none"/><text fill="#000000" stroke="none" font-family="Arial" font-size="13px" font-style="normal" font-weight="bold" text-decoration="none" x="996" y="666.5">ExportInterface</text></g></g><g transform="translate(-10.5,-6) scale(1,1)"><g><path fill="none" stroke="none"/><text fill="#000000" stroke="none" font-family="Arial" font-size="13px" font-style="normal" font-weight="normal" text-decoration="none" x="1004" y="681.5">(from Model)</text></g></g><g transform="translate(-10.5,-6) scale(1,1)"><path fill="none" stroke="#000000" d="M 613 616 Q 792 635 1029 638.3846153846154" stroke-miterlimit="10"/></g><g transform="translate(-10.5,-6) scale(1,1)"><g><path fill="none" stroke="none"/><text fill="#000000" stroke="none" font-family="Arial" font-size="13px" font-style="normal" font-weight="normal" text-decoration="none" x="755" y="627">+implements</text></g></g><g transform="translate(-10.5,-6) scale(1,1)"><path fill="#C0C0C0" stroke="none" d="M 1036 746.5 C 1036 740.1487248 1041.1487248 735 1047.5 735 C 1053.8512752 735 1059 740.1487248 1059 746.5 C 1059 752.8512752 1053.8512752 758 1047.5 758 C 1041.1487248 758 1036 752.8512752 1036 746.5 Z" opacity="0.2"/></g><g transform="translate(-10.5,-6) scale(1,1)"><path fill="#ffffff" stroke="none" d="M 1029 739.5 C 1029 733.1487248 1034.1487248 728 1040.5 728 C 1046.8512752 728 1052 733.1487248 1052 739.5 C 1052 745.8512752 1046.8512752 751 1040.5 751 C 1034.1487248 751 1029 745.8512752 1029 739.5 Z"/></g><g transform="translate(-10.5,-6) scale(1,1)"><path fill="none" stroke="#000000" d="M 1029 739.5 C 1029 733.1487248 1034.1487248 728 1040.5 728 C 1046.8512752 728 1052 733.1487248 1052 739.5 C 1052 745.8512752 1046.8512752 751 1040.5 751 C 1034.1487248 751 1029 745.8512752 1029 739.5 Z" stroke-miterlimit="10"/></g><g transform="translate(-10.5,-6) scale(1,1)"><g><path fill="none" stroke="none"/><text fill="#000000" stroke="none" font-family="Arial" font-size="13px" font-style="normal" font-weight="bold" text-decoration="none" x="981" y="770.5">DataSourceInterface</text></g></g><g transform="translate(-10.5,-6) scale(1,1)"><g><path fill="none" stroke="none"/><text fill="#000000" stroke="none" font-family="Arial" font-size="13px" font-style="normal" font-weight="normal" text-decoration="none" x="987" y="785.5">(from Persistence)</text></g></g><g transform="translate(-10.5,-6) scale(1,1)"><path fill="#C0C0C0" stroke="none" d="M 1035.5 858.5 C 1035.5 852.1487248 1040.6487248 847 1047 847 C 1053.3512752 847 1058.5 852.1487248 1058.5 858.5 C 1058.5 864.8512752 1053.3512752 870 1047 870 C 1040.6487248 870 1035.5 864.8512752 1035.5 858.5 Z" opacity="0.2"/></g><g transform="translate(-10.5,-6) scale(1,1)"><path fill="#ffffff" stroke="none" d="M 1028.5 851.5 C 1028.5 845.1487248 1033.6487248 840 1040 840 C 1046.3512752 840 1051.5 845.1487248 1051.5 851.5 C 1051.5 857.8512752 1046.3512752 863 1040 863 C 1033.6487248 863 1028.5 857.8512752 1028.5 851.5 Z"/></g><g transform="translate(-10.5,-6) scale(1,1)"><path fill="none" stroke="#000000" d="M 1028.5 851.5 C 1028.5 845.1487248 1033.6487248 840 1040 840 C 1046.3512752 840 1051.5 845.1487248 1051.5 851.5 C 1051.5 857.8512752 1046.3512752 863 1040 863 C 1033.6487248 863 1028.5 857.8512752 1028.5 851.5 Z" stroke-miterlimit="10"/></g><g transform="translate(-10.5,-6) scale(1,1)"><g><path fill="none" stroke="none"/><text fill="#000000" stroke="none" font-family="Arial" font-size="13px" font-style="normal" font-weight="bold" text-decoration="none" x="982.5" y="882.5">DataTargetInterface</text></g></g><g transform="translate(-10.5,-6) scale(1,1)"><g><path fill="none" stroke="none"/><text fill="#000000" stroke="none" font-family="Arial" font-size="13px" font-style="normal" font-weight="normal" text-decoration="none" x="986.5" y="897.5">(from Persistence)</text></g></g><g transform="translate(-10.5,-6) scale(1,1)"><rect fill="#C0C0C0" stroke="none" x="520" y="672" width="116" height="39" opacity="0.2"/></g><g transform="translate(-10.5,-6) scale(1,1)"><rect fill="#ffffff" stroke="none" x="513" y="665" width="116" height="39"/></g><g transform="translate(-10.5,-6) scale(1,1)"><path fill="none" stroke="#000000" d="M 513 665 L 629 665 L 629 704 L 513 704 L 513 665 Z Z" stroke-miterlimit="10"/></g><g transform="translate(-10.5,-6) scale(1,1)"><g><path fill="none" stroke="none"/><text fill="#000000" stroke="none" font-family="Arial" font-size="13px" font-style="normal" font-weight="bold" text-decoration="none" x="525.5" y="684.5">DataSourceCsv</text></g></g><g transform="translate(-10.5,-6) scale(1,1)"><g><path fill="none" stroke="none"/><text fill="#000000" stroke="none" font-family="Arial" font-size="13px" font-style="normal" font-weight="normal" text-decoration="none" x="517.5" y="699.5">(from Persistence)</text></g></g><g transform="translate(-10.5,-6) scale(1,1)"><path fill="none" stroke="#000000" d="M 630 685 Q 791 688 1029 739.1641791044776" stroke-miterlimit="10"/></g><g transform="translate(-10.5,-6) scale(1,1)"><g><path fill="none" stroke="none"/><text fill="#000000" stroke="none" font-family="Arial" font-size="13px" font-style="normal" font-weight="normal" text-decoration="none" x="757" y="680">+implements</text></g></g><g transform="translate(-10.5,-6) scale(1,1)"><rect fill="#C0C0C0" stroke="none" x="520" y="722" width="116" height="39" opacity="0.2"/></g><g transform="translate(-10.5,-6) scale(1,1)"><rect fill="#ffffff" stroke="none" x="513" y="715" width="116" height="39"/></g><g transform="translate(-10.5,-6) scale(1,1)"><path fill="none" stroke="#000000" d="M 513 715 L 629 715 L 629 754 L 513 754 L 513 715 Z Z" stroke-miterlimit="10"/></g><g transform="translate(-10.5,-6) scale(1,1)"><g><path fill="none" stroke="none"/><text fill="#000000" stroke="none" font-family="Arial" font-size="13px" font-style="normal" font-weight="bold" text-decoration="none" x="528" y="734.5">DataSourceDB</text></g></g><g transform="translate(-10.5,-6) scale(1,1)"><g><path fill="none" stroke="none"/><text fill="#000000" stroke="none" font-family="Arial" font-size="13px" font-style="normal" font-weight="normal" text-decoration="none" x="517.5" y="749.5">(from Persistence)</text></g></g><g transform="translate(-10.5,-6) scale(1,1)"><path fill="none" stroke="#000000" d="M 630 734 Q 756 735 1029 741.2985074626865" stroke-miterlimit="10"/></g><g transform="translate(-10.5,-6) scale(1,1)"><g><path fill="none" stroke="none"/><text fill="#000000" stroke="none" font-family="Arial" font-size="13px" font-style="normal" font-weight="normal" text-decoration="none" x="760" y="727">+implements</text></g></g><g transform="translate(-10.5,-6) scale(1,1)"><rect fill="#C0C0C0" stroke="none" x="520" y="772" width="116" height="39" opacity="0.2"/></g><g transform="translate(-10.5,-6) scale(1,1)"><rect fill="#ffffff" stroke="none" x="513" y="765" width="116" height="39"/></g><g transform="translate(-10.5,-6) scale(1,1)"><path fill="none" stroke="#000000" d="M 513 765 L 629 765 L 629 804 L 513 804 L 513 765 Z Z" stroke-miterlimit="10"/></g><g transform="translate(-10.5,-6) scale(1,1)"><g><path fill="none" stroke="none"/><text fill="#000000" stroke="none" font-family="Arial" font-size="13px" font-style="normal" font-weight="bold" text-decoration="none" x="525.5" y="784.5">DataSourceXml</text></g></g><g transform="translate(-10.5,-6) scale(1,1)"><g><path fill="none" stroke="none"/><text fill="#000000" stroke="none" font-family="Arial" font-size="13px" font-style="normal" font-weight="normal" text-decoration="none" x="517.5" y="799.5">(from Persistence)</text></g></g><g transform="translate(-10.5,-6) scale(1,1)"><path fill="none" stroke="#000000" d="M 630 784 Q 795 784 1029 743.4328358208955" stroke-miterlimit="10"/></g><g transform="translate(-10.5,-6) scale(1,1)"><g><path fill="none" stroke="none"/><text fill="#000000" stroke="none" font-family="Arial" font-size="13px" font-style="normal" font-weight="normal" text-decoration="none" x="760" y="796">+implements</text></g></g><g transform="translate(-10.5,-6) scale(1,1)"><rect fill="#C0C0C0" stroke="none" x="507" y="822" width="142" height="39" opacity="0.2"/></g><g transform="translate(-10.5,-6) scale(1,1)"><rect fill="#ffffff" stroke="none" x="500" y="815" width="142" height="39"/></g><g transform="translate(-10.5,-6) scale(1,1)"><path fill="none" stroke="#000000" d="M 500 815 L 642 815 L 642 854 L 500 854 L 500 815 Z Z" stroke-miterlimit="10"/></g><g transform="translate(-10.5,-6) scale(1,1)"><g><path fill="none" stroke="none"/><text fill="#000000" stroke="none" font-family="Arial" font-size="13px" font-style="normal" font-weight="bold" text-decoration="none" x="508" y="834.5">DataTargetRepository</text></g></g><g transform="translate(-10.5,-6) scale(1,1)"><g><path fill="none" stroke="none"/><text fill="#000000" stroke="none" font-family="Arial" font-size="13px" font-style="normal" font-weight="normal" text-decoration="none" x="517.5" y="849.5">(from Persistence)</text></g></g><g transform="translate(-10.5,-6) scale(1,1)"><path fill="none" stroke="#000000" d="M 643 838 Q 816 848 1028.5 853.3" stroke-miterlimit="10"/></g><g transform="translate(-10.5,-6) scale(1,1)"><g><path fill="none" stroke="none"/><text fill="#000000" stroke="none" font-family="Arial" font-size="13px" font-style="normal" font-weight="normal" text-decoration="none" x="760" y="828">+implements</text></g></g><g transform="translate(-10.5,-6) scale(1,1)"><rect fill="#C0C0C0" stroke="none" x="520" y="872" width="116" height="39" opacity="0.2"/></g><g transform="translate(-10.5,-6) scale(1,1)"><rect fill="#ffffff" stroke="none" x="513" y="865" width="116" height="39"/></g><g transform="translate(-10.5,-6) scale(1,1)"><path fill="none" stroke="#000000" d="M 513 865 L 629 865 L 629 904 L 513 904 L 513 865 Z Z" stroke-miterlimit="10"/></g><g transform="translate(-10.5,-6) scale(1,1)"><g><path fill="none" stroke="none"/><text fill="#000000" stroke="none" font-family="Arial" font-size="13px" font-style="normal" font-weight="bold" text-decoration="none" x="530" y="884.5">DataTargetDB</text></g></g><g transform="translate(-10.5,-6) scale(1,1)"><g><path fill="none" stroke="none"/><text fill="#000000" stroke="none" font-family="Arial" font-size="13px" font-style="normal" font-weight="normal" text-decoration="none" x="517.5" y="899.5">(from Persistence)</text></g></g><g transform="translate(-10.5,-6) scale(1,1)"><path fill="none" stroke="#000000" d="M 630 882 L 1028.5 854.8923076923077" stroke-miterlimit="10"/></g><g transform="translate(-10.5,-6) scale(1,1)"><g><path fill="none" stroke="none"/><text fill="#000000" stroke="none" font-family="Arial" font-size="13px" font-style="normal" font-weight="normal" text-decoration="none" x="760" y="893">+implements</text></g></g><g transform="translate(-10.5,-6) scale(1,1)"><path fill="none" stroke="#000000" d="M 507 125 Q 400 128 344 271" stroke-miterlimit="10"/></g><g transform="translate(-10.5,-6) scale(1,1)"><path fill="#FFFFFF" stroke="none" d="M 343.57217720954253 249.00416021926043 L 344 271 L 359.25089107057516 255.14407613686762"/></g><g transform="translate(-10.5,-6) scale(1,1)"><path fill="none" stroke="#000000" d="M 343.57217720954253 249.00416021926043 L 344 271 L 359.25089107057516 255.14407613686762 L 343.57217720954253 249.00416021926043" stroke-miterlimit="10"/></g><g transform="translate(-10.5,-6) scale(1,1)"><rect fill="#C0C0C0" stroke="none" x="239" y="999" width="168" height="48" opacity="0.2"/></g><g transform="translate(-10.5,-6) scale(1,1)"><rect fill="#ffffff" stroke="none" x="232" y="992" width="168" height="48"/></g><g transform="translate(-10.5,-6) scale(1,1)"><path fill="none" stroke="#000000" d="M 232 992 L 400 992 L 400 1040 L 232 1040 L 232 992 Z Z" stroke-miterlimit="10"/></g><g transform="translate(-10.5,-6) scale(1,1)"><g><path fill="none" stroke="none"/><text fill="#000000" stroke="none" font-family="Arial" font-size="13px" font-style="italic" font-weight="bold" text-decoration="none" x="269.5" y="1011.5">AbstractFactory</text></g></g><g transform="translate(-10.5,-6) scale(1,1)"><g><path fill="none" stroke="none"/><text fill="#000000" stroke="none" font-family="Arial" font-size="13px" font-style="normal" font-weight="normal" text-decoration="none" x="275" y="1026.5">(from Factory)</text></g></g><g transform="translate(-10.5,-6) scale(1,1)"><rect fill="#C0C0C0" stroke="none" x="507" y="975" width="142" height="40" opacity="0.2"/></g><g transform="translate(-10.5,-6) scale(1,1)"><rect fill="#ffffff" stroke="none" x="500" y="968" width="142" height="40"/></g><g transform="translate(-10.5,-6) scale(1,1)"><path fill="none" stroke="#000000" d="M 500 968 L 642 968 L 642 1008 L 500 1008 L 500 968 Z Z" stroke-miterlimit="10"/></g><g transform="translate(-10.5,-6) scale(1,1)"><g><path fill="none" stroke="none"/><text fill="#000000" stroke="none" font-family="Arial" font-size="13px" font-style="normal" font-weight="bold" text-decoration="none" x="516" y="987.5">ImportTaskFactory</text></g></g><g transform="translate(-10.5,-6) scale(1,1)"><g><path fill="none" stroke="none"/><text fill="#000000" stroke="none" font-family="Arial" font-size="13px" font-style="normal" font-weight="normal" text-decoration="none" x="530" y="1002.5">(from Factory)</text></g></g><g transform="translate(-10.5,-6) scale(1,1)"><rect fill="#C0C0C0" stroke="none" x="507" y="1031" width="142" height="40" opacity="0.2"/></g><g transform="translate(-10.5,-6) scale(1,1)"><rect fill="#ffffff" stroke="none" x="500" y="1024" width="142" height="40"/></g><g transform="translate(-10.5,-6) scale(1,1)"><path fill="none" stroke="#000000" d="M 500 1024 L 642 1024 L 642 1064 L 500 1064 L 500 1024 Z Z" stroke-miterlimit="10"/></g><g transform="translate(-10.5,-6) scale(1,1)"><g><path fill="none" stroke="none"/><text fill="#000000" stroke="none" font-family="Arial" font-size="13px" font-style="normal" font-weight="bold" text-decoration="none" x="520.5" y="1043.5">ImportSetFactory</text></g></g><g transform="translate(-10.5,-6) scale(1,1)"><g><path fill="none" stroke="none"/><text fill="#000000" stroke="none" font-family="Arial" font-size="13px" font-style="normal" font-weight="normal" text-decoration="none" x="530" y="1058.5">(from Factory)</text></g></g><g transform="translate(-10.5,-6) scale(1,1)"><path fill="none" stroke="#000000" d="M 499 996 L 401 1007" stroke-miterlimit="10"/></g><g transform="translate(-10.5,-6) scale(1,1)"><path fill="#FFFFFF" stroke="none" d="M 420.2594118155506 996.3663244116143 L 401 1007 L 422.1376048139255 1013.0993165789547"/></g><g transform="translate(-10.5,-6) scale(1,1)"><path fill="none" stroke="#000000" d="M 420.2594118155506 996.3663244116143 L 401 1007 L 422.1376048139255 1013.0993165789547 L 420.2594118155506 996.3663244116143" stroke-miterlimit="10"/></g><g transform="translate(-10.5,-6) scale(1,1)"><g><path fill="none" stroke="none"/><text fill="#000000" stroke="none" font-family="Arial" font-size="13px" font-style="normal" font-weight="normal" text-decoration="none" x="424" y="1022">+extends</text></g></g><g transform="translate(-10.5,-6) scale(1,1)"><path fill="none" stroke="#000000" d="M 499 1036 L 401 1025" stroke-miterlimit="10"/></g><g transform="translate(-10.5,-6) scale(1,1)"><path fill="#FFFFFF" stroke="none" d="M 422.1376048139255 1018.9006834210453 L 401 1025 L 420.2594118155506 1035.6336755883858"/></g><g transform="translate(-10.5,-6) scale(1,1)"><path fill="none" stroke="#000000" d="M 422.1376048139255 1018.9006834210453 L 401 1025 L 420.2594118155506 1035.6336755883858 L 422.1376048139255 1018.9006834210453" stroke-miterlimit="10"/></g><g transform="translate(-10.5,-6) scale(1,1)"><g><path fill="none" stroke="none"/><text fill="#000000" stroke="none" font-family="Arial" font-size="13px" font-style="normal" font-weight="normal" text-decoration="none" x="421" y="1051">+extends</text></g></g></g></svg>