<svg version="1.1" xmlns="http://www.w3.org/2000/svg" xmlns:xlink="http://www.w3.org/1999/xlink" width="1127" height="1156"><defs/><g><g transform="translate(2,-6) scale(1,1)"><rect fill="#C0C0C0" stroke="none" x="15" y="287" width="132" height="39" opacity="0.2"/></g><g transform="translate(2,-6) scale(1,1)"><rect fill="#ffffff" stroke="none" x="8" y="280" width="132" height="39"/></g><g transform="translate(2,-6) scale(1,1)"><path fill="none" stroke="#000000" d="M 8 280 L 140 280 L 140 319 L 8 319 L 8 280 Z Z" stroke-miterlimit="10"/></g><g transform="translate(2,-6) scale(1,1)"><g><path fill="none" stroke="none"/><text fill="#000000" stroke="none" font-family="Arial" font-size="13px" font-style="italic" font-weight="bold" text-decoration="none" x="16.5" y="299.5">AbstractComponent</text></g></g><g transform="translate(2,-6) scale(1,1)"><g><path fill="none" stroke="none"/><text fill="#000000" stroke="none" font-family="Arial" font-size="13px" font-style="normal" font-weight="normal" text-decoration="none" x="22" y="314.5">(from Component)</text></g></g><g transform="translate(2,-6) scale(1,1)"><rect fill="#C0C0C0" stroke="none" x="262" y="27" width="151" height="39" opacity="0.2"/></g><g transform="translate(2,-6) scale(1,1)"><rect fill="#ffffff" stroke="none" x="255" y="20" width="151" height="39"/></g><g transform="translate(2,-6) scale(1,1)"><path fill="none" stroke="#000000" d="M 255 20 L 406 20 L 406 59 L 255 59 L 255 20 Z Z" stroke-miterlimit="10"/></g><g transform="translate(2,-6) scale(1,1)"><g><path fill="none" stroke="none"/><text fill="#000000" stroke="none" font-family="Arial" font-size="13px" font-style="italic" font-weight="bold" text-decoration="none" x="263" y="39.5">AbstractPostProcessor</text></g></g><g transform="translate(2,-6) scale(1,1)"><g><path fill="none" stroke="none"/><text fill="#000000" stroke="none" font-family="Arial" font-size="13px" font-style="normal" font-weight="normal" text-decoration="none" x="268.5" y="54.5">(from PostProcessor)</text></g></g><g transform="translate(2,-6) scale(1,1)"><path fill="none" stroke="#000000" d="M 254 40 Q 204 40 84 279" stroke-miterlimit="10"/></g><g transform="translate(2,-6) scale(1,1)"><path fill="#FFFFFF" stroke="none" d="M 85.59625295359218 257.05798604256785 L 84 279 L 100.64406815016426 264.61337442578395"/></g><g transform="translate(2,-6) scale(1,1)"><path fill="none" stroke="#000000" d="M 85.59625295359218 257.05798604256785 L 84 279 L 100.64406815016426 264.61337442578395 L 85.59625295359218 257.05798604256785" stroke-miterlimit="10"/></g><g transform="translate(2,-6) scale(1,1)"><rect fill="#C0C0C0" stroke="none" x="510" y="23" width="137" height="39" opacity="0.2"/></g><g transform="translate(2,-6) scale(1,1)"><rect fill="#ffffff" stroke="none" x="503" y="16" width="137" height="39"/></g><g transform="translate(2,-6) scale(1,1)"><path fill="none" stroke="#000000" d="M 503 16 L 640 16 L 640 55 L 503 55 L 503 16 Z Z" stroke-miterlimit="10"/></g><g transform="translate(2,-6) scale(1,1)"><g><path fill="none" stroke="none"/><text fill="#000000" stroke="none" font-family="Arial" font-size="13px" font-style="normal" font-weight="bold" text-decoration="none" x="512" y="35.5">SetHiddenProperties</text></g></g><g transform="translate(2,-6) scale(1,1)"><g><path fill="none" stroke="none"/><text fill="#000000" stroke="none" font-family="Arial" font-size="13px" font-style="normal" font-weight="normal" text-decoration="none" x="509.5" y="50.5">(from PostProcessor)</text></g></g><g transform="translate(2,-6) scale(1,1)"><path fill="none" stroke="#000000" d="M 502 38 Q 458 40 407 40" stroke-miterlimit="10"/></g><g transform="translate(2,-6) scale(1,1)"><path fill="#FFFFFF" stroke="none" d="M 427.3253497152483 31.580964487968025 L 407 40 L 427.3253497152483 48.419035512031975"/></g><g transform="translate(2,-6) scale(1,1)"><path fill="none" stroke="#000000" d="M 427.3253497152483 31.580964487968025 L 407 40 L 427.3253497152483 48.419035512031975 L 427.3253497152483 31.580964487968025" stroke-miterlimit="10"/></g><g transform="translate(2,-6) scale(1,1)"><path fill="#C0C0C0" stroke="none" d="M 1034 42.5 C 1034 36.1487248 1039.1487248 31 1045.5 31 C 1051.8512752 31 1057 36.1487248 1057 42.5 C 1057 48.8512752 1051.8512752 54 1045.5 54 C 1039.1487248 54 1034 48.8512752 1034 42.5 Z" opacity="0.2"/></g><g transform="translate(2,-6) scale(1,1)"><path fill="#ffffff" stroke="none" d="M 1027 35.5 C 1027 29.1487248 1032.1487248 24 1038.5 24 C 1044.8512752 24 1050 29.1487248 1050 35.5 C 1050 41.8512752 1044.8512752 47 1038.5 47 C 1032.1487248 47 1027 41.8512752 1027 35.5 Z"/></g><g transform="translate(2,-6) scale(1,1)"><path fill="none" stroke="#000000" d="M 1027 35.5 C 1027 29.1487248 1032.1487248 24 1038.5 24 C 1044.8512752 24 1050 29.1487248 1050 35.5 C 1050 41.8512752 1044.8512752 47 1038.5 47 C 1032.1487248 47 1027 41.8512752 1027 35.5 Z" stroke-miterlimit="10"/></g><g transform="translate(2,-6) scale(1,1)"><g><path fill="none" stroke="none"/><text fill="#000000" stroke="none" font-family="Arial" font-size="13px" font-style="normal" font-weight="bold" text-decoration="none" x="970" y="66.5">PostProcessorInterface</text></g></g><g transform="translate(2,-6) scale(1,1)"><g><path fill="none" stroke="none"/><text fill="#000000" stroke="none" font-family="Arial" font-size="13px" font-style="normal" font-weight="normal" text-decoration="none" x="976.5" y="81.5">(from PostProcessor)</text></g></g><g transform="translate(2,-6) scale(1,1)"><path fill="none" stroke="#000000" d="M 641 38 L 1027 37.42857142857143" stroke-miterlimit="10"/></g><g transform="translate(2,-6) scale(1,1)"><rect fill="#C0C0C0" stroke="none" x="271" y="279" width="144" height="39" opacity="0.2"/></g><g transform="translate(2,-6) scale(1,1)"><rect fill="#ffffff" stroke="none" x="264" y="272" width="144" height="39"/></g><g transform="translate(2,-6) scale(1,1)"><path fill="none" stroke="#000000" d="M 264 272 L 408 272 L 408 311 L 264 311 L 264 272 Z Z" stroke-miterlimit="10"/></g><g transform="translate(2,-6) scale(1,1)"><g><path fill="none" stroke="none"/><text fill="#000000" stroke="none" font-family="Arial" font-size="13px" font-style="italic" font-weight="bold" text-decoration="none" x="272" y="291.5">AbstractPreProcessor</text></g></g><g transform="translate(2,-6) scale(1,1)"><g><path fill="none" stroke="none"/><text fill="#000000" stroke="none" font-family="Arial" font-size="13px" font-style="normal" font-weight="normal" text-decoration="none" x="277.5" y="306.5">(from PreProcessor)</text></g></g><g transform="translate(2,-6) scale(1,1)"><path fill="none" stroke="#000000" d="M 263 286 Q 184 280 141 287" stroke-miterlimit="10"/></g><g transform="translate(2,-6) scale(1,1)"><path fill="#FFFFFF" stroke="none" d="M 159.70853433298709 275.42456294080245 L 141 287 L 162.41400153267315 292.0438614531598"/></g><g transform="translate(2,-6) scale(1,1)"><path fill="none" stroke="#000000" d="M 159.70853433298709 275.42456294080245 L 141 287 L 162.41400153267315 292.0438614531598 L 159.70853433298709 275.42456294080245" stroke-miterlimit="10"/></g><g transform="translate(2,-6) scale(1,1)"><rect fill="#C0C0C0" stroke="none" x="515" y="111" width="126" height="39" opacity="0.2"/></g><g transform="translate(2,-6) scale(1,1)"><rect fill="#ffffff" stroke="none" x="508" y="104" width="126" height="39"/></g><g transform="translate(2,-6) scale(1,1)"><path fill="none" stroke="#000000" d="M 508 104 L 634 104 L 634 143 L 508 143 L 508 104 Z Z" stroke-miterlimit="10"/></g><g transform="translate(2,-6) scale(1,1)"><g><path fill="none" stroke="none"/><text fill="#000000" stroke="none" font-family="Arial" font-size="13px" font-style="normal" font-weight="bold" text-decoration="none" x="540" y="123.5">LookUpDB</text></g></g><g transform="translate(2,-6) scale(1,1)"><g><path fill="none" stroke="none"/><text fill="#000000" stroke="none" font-family="Arial" font-size="13px" font-style="normal" font-weight="normal" text-decoration="none" x="512.5" y="138.5">(from PreProcessor)</text></g></g><g transform="translate(2,-6) scale(1,1)"><path fill="none" stroke="#000000" d="M 507 230 Q 464 232 379 271" stroke-miterlimit="10"/></g><g transform="translate(2,-6) scale(1,1)"><path fill="#FFFFFF" stroke="none" d="M 393.9626985976562 254.87183672343008 L 379 271 L 400.98455926419956 270.1758920223067"/></g><g transform="translate(2,-6) scale(1,1)"><path fill="none" stroke="#000000" d="M 393.9626985976562 254.87183672343008 L 379 271 L 400.98455926419956 270.1758920223067 L 393.9626985976562 254.87183672343008" stroke-miterlimit="10"/></g><g transform="translate(2,-6) scale(1,1)"><path fill="none" stroke="#000000" d="M 507 282 L 409 287" stroke-miterlimit="10"/></g><g transform="translate(2,-6) scale(1,1)"><path fill="#FFFFFF" stroke="none" d="M 428.86996232404056 277.5562403015955 L 409 287 L 429.72793162388837 294.3724385786122"/></g><g transform="translate(2,-6) scale(1,1)"><path fill="none" stroke="#000000" d="M 428.86996232404056 277.5562403015955 L 409 287 L 429.72793162388837 294.3724385786122 L 428.86996232404056 277.5562403015955" stroke-miterlimit="10"/></g><g transform="translate(2,-6) scale(1,1)"><path fill="none" stroke="#000000" d="M 507 324 Q 472 320 409 307" stroke-miterlimit="10"/></g><g transform="translate(2,-6) scale(1,1)"><path fill="#FFFFFF" stroke="none" d="M 430.607385198628 302.86225848099326 L 409 307 L 427.20455368454645 319.3529035107729"/></g><g transform="translate(2,-6) scale(1,1)"><path fill="none" stroke="#000000" d="M 430.607385198628 302.86225848099326 L 409 307 L 427.20455368454645 319.3529035107729 L 430.607385198628 302.86225848099326" stroke-miterlimit="10"/></g><g transform="translate(2,-6) scale(1,1)"><path fill="none" stroke="#000000" d="M 507 420 Q 424 400 353 312" stroke-miterlimit="10"/></g><g transform="translate(2,-6) scale(1,1)"><path fill="#FFFFFF" stroke="none" d="M 372.3151145238943 322.5321579426463 L 353 312 L 359.21048815746747 333.1052087610134"/></g><g transform="translate(2,-6) scale(1,1)"><path fill="none" stroke="#000000" d="M 372.3151145238943 322.5321579426463 L 353 312 L 359.21048815746747 333.1052087610134 L 372.3151145238943 322.5321579426463" stroke-miterlimit="10"/></g><g transform="translate(2,-6) scale(1,1)"><path fill="none" stroke="#000000" d="M 507 378 Q 480 376 372 312" stroke-miterlimit="10"/></g><g transform="translate(2,-6) scale(1,1)"><path fill="#FFFFFF" stroke="none" d="M 393.777770706251 315.11908689618565 L 372 312 L 385.1936818501128 329.6047368409188"/></g><g transform="translate(2,-6) scale(1,1)"><path fill="none" stroke="#000000" d="M 393.777770706251 315.11908689618565 L 372 312 L 385.1936818501128 329.6047368409188 L 393.777770706251 315.11908689618565" stroke-miterlimit="10"/></g><g transform="translate(2,-6) scale(1,1)"><path fill="none" stroke="#000000" d="M 507 480 Q 440 472 348 312" stroke-miterlimit="10"/></g><g transform="translate(2,-6) scale(1,1)"><path fill="#FFFFFF" stroke="none" d="M 365.43011487454424 325.4235276831461 L 348 312 L 350.8330849724528 333.81681987684874"/></g><g transform="translate(2,-6) scale(1,1)"><path fill="none" stroke="#000000" d="M 365.43011487454424 325.4235276831461 L 348 312 L 350.8330849724528 333.81681987684874 L 365.43011487454424 325.4235276831461" stroke-miterlimit="10"/></g><g transform="translate(2,-6) scale(1,1)"><path fill="#C0C0C0" stroke="none" d="M 1033.5 282.5 C 1033.5 276.1487248 1038.6487248 271 1045 271 C 1051.3512752 271 1056.5 276.1487248 1056.5 282.5 C 1056.5 288.8512752 1051.3512752 294 1045 294 C 1038.6487248 294 1033.5 288.8512752 1033.5 282.5 Z" opacity="0.2"/></g><g transform="translate(2,-6) scale(1,1)"><path fill="#ffffff" stroke="none" d="M 1026.5 275.5 C 1026.5 269.1487248 1031.6487248 264 1038 264 C 1044.3512752 264 1049.5 269.1487248 1049.5 275.5 C 1049.5 281.8512752 1044.3512752 287 1038 287 C 1031.6487248 287 1026.5 281.8512752 1026.5 275.5 Z"/></g><g transform="translate(2,-6) scale(1,1)"><path fill="none" stroke="#000000" d="M 1026.5 275.5 C 1026.5 269.1487248 1031.6487248 264 1038 264 C 1044.3512752 264 1049.5 269.1487248 1049.5 275.5 C 1049.5 281.8512752 1044.3512752 287 1038 287 C 1031.6487248 287 1026.5 281.8512752 1026.5 275.5 Z" stroke-miterlimit="10"/></g><g transform="translate(2,-6) scale(1,1)"><g><path fill="none" stroke="none"/><text fill="#000000" stroke="none" font-family="Arial" font-size="13px" font-style="normal" font-weight="bold" text-decoration="none" x="973" y="306.5">PreProcessorInterface</text></g></g><g transform="translate(2,-6) scale(1,1)"><g><path fill="none" stroke="none"/><text fill="#000000" stroke="none" font-family="Arial" font-size="13px" font-style="normal" font-weight="normal" text-decoration="none" x="979.5" y="321.5">(from PreProcessor)</text></g></g><g transform="translate(2,-6) scale(1,1)"><rect fill="#C0C0C0" stroke="none" x="515" y="163" width="126" height="39" opacity="0.2"/></g><g transform="translate(2,-6) scale(1,1)"><rect fill="#ffffff" stroke="none" x="508" y="156" width="126" height="39"/></g><g transform="translate(2,-6) scale(1,1)"><path fill="none" stroke="#000000" d="M 508 156 L 634 156 L 634 195 L 508 195 L 508 156 Z Z" stroke-miterlimit="10"/></g><g transform="translate(2,-6) scale(1,1)"><g><path fill="none" stroke="none"/><text fill="#000000" stroke="none" font-family="Arial" font-size="13px" font-style="normal" font-weight="bold" text-decoration="none" x="528" y="175.5">RenderContent</text></g></g><g transform="translate(2,-6) scale(1,1)"><g><path fill="none" stroke="none"/><text fill="#000000" stroke="none" font-family="Arial" font-size="13px" font-style="normal" font-weight="normal" text-decoration="none" x="512.5" y="190.5">(from PreProcessor)</text></g></g><g transform="translate(2,-6) scale(1,1)"><path fill="none" stroke="#000000" d="M 507 175 Q 440 176 354 271" stroke-miterlimit="10"/></g><g transform="translate(2,-6) scale(1,1)"><path fill="#FFFFFF" stroke="none" d="M 361.3992412762947 250.2816209964395 L 354 271 L 373.882159970714 261.5819473934928"/></g><g transform="translate(2,-6) scale(1,1)"><path fill="none" stroke="#000000" d="M 361.3992412762947 250.2816209964395 L 354 271 L 373.882159970714 261.5819473934928 L 361.3992412762947 250.2816209964395" stroke-miterlimit="10"/></g><g transform="translate(2,-6) scale(1,1)"><path fill="none" stroke="#000000" d="M 635 175 Q 752 176 1026.5 273.2905405405405" stroke-miterlimit="10"/></g><g transform="translate(2,-6) scale(1,1)"><rect fill="#C0C0C0" stroke="none" x="515" y="215" width="126" height="39" opacity="0.2"/></g><g transform="translate(2,-6) scale(1,1)"><rect fill="#ffffff" stroke="none" x="508" y="208" width="126" height="39"/></g><g transform="translate(2,-6) scale(1,1)"><path fill="none" stroke="#000000" d="M 508 208 L 634 208 L 634 247 L 508 247 L 508 208 Z Z" stroke-miterlimit="10"/></g><g transform="translate(2,-6) scale(1,1)"><g><path fill="none" stroke="none"/><text fill="#000000" stroke="none" font-family="Arial" font-size="13px" font-style="normal" font-weight="bold" text-decoration="none" x="517" y="227.5">ConcatenateFields</text></g></g><g transform="translate(2,-6) scale(1,1)"><g><path fill="none" stroke="none"/><text fill="#000000" stroke="none" font-family="Arial" font-size="13px" font-style="normal" font-weight="normal" text-decoration="none" x="512.5" y="242.5">(from PreProcessor)</text></g></g><g transform="translate(2,-6) scale(1,1)"><path fill="none" stroke="#000000" d="M 635 229 Q 760 232 1026.5 275.4662162162162" stroke-miterlimit="10"/></g><g transform="translate(2,-6) scale(1,1)"><rect fill="#C0C0C0" stroke="none" x="515" y="267" width="126" height="39" opacity="0.2"/></g><g transform="translate(2,-6) scale(1,1)"><rect fill="#ffffff" stroke="none" x="508" y="260" width="126" height="39"/></g><g transform="translate(2,-6) scale(1,1)"><path fill="none" stroke="#000000" d="M 508 260 L 634 260 L 634 299 L 508 299 L 508 260 Z Z" stroke-miterlimit="10"/></g><g transform="translate(2,-6) scale(1,1)"><g><path fill="none" stroke="none"/><text fill="#000000" stroke="none" font-family="Arial" font-size="13px" font-style="normal" font-weight="bold" text-decoration="none" x="540.5" y="279.5">AddArrays</text></g></g><g transform="translate(2,-6) scale(1,1)"><g><path fill="none" stroke="none"/><text fill="#000000" stroke="none" font-family="Arial" font-size="13px" font-style="normal" font-weight="normal" text-decoration="none" x="512.5" y="294.5">(from PreProcessor)</text></g></g><g transform="translate(2,-6) scale(1,1)"><path fill="none" stroke="#000000" d="M 635 282 Q 776 288 1026.5 277.7972972972973" stroke-miterlimit="10"/></g><g transform="translate(2,-6) scale(1,1)"><rect fill="#C0C0C0" stroke="none" x="515" y="319" width="126" height="39" opacity="0.2"/></g><g transform="translate(2,-6) scale(1,1)"><rect fill="#ffffff" stroke="none" x="508" y="312" width="126" height="39"/></g><g transform="translate(2,-6) scale(1,1)"><path fill="none" stroke="#000000" d="M 508 312 L 634 312 L 634 351 L 508 351 L 508 312 Z Z" stroke-miterlimit="10"/></g><g transform="translate(2,-6) scale(1,1)"><g><path fill="none" stroke="none"/><text fill="#000000" stroke="none" font-family="Arial" font-size="13px" font-style="normal" font-weight="bold" text-decoration="none" x="524.5" y="331.5">MapFieldValues</text></g></g><g transform="translate(2,-6) scale(1,1)"><g><path fill="none" stroke="none"/><text fill="#000000" stroke="none" font-family="Arial" font-size="13px" font-style="normal" font-weight="normal" text-decoration="none" x="512.5" y="346.5">(from PreProcessor)</text></g></g><g transform="translate(2,-6) scale(1,1)"><path fill="none" stroke="#000000" d="M 635 332 Q 794 336 1026.5 279.97297297297297" stroke-miterlimit="10"/></g><g transform="translate(2,-6) scale(1,1)"><rect fill="#C0C0C0" stroke="none" x="515" y="371" width="126" height="39" opacity="0.2"/></g><g transform="translate(2,-6) scale(1,1)"><rect fill="#ffffff" stroke="none" x="508" y="364" width="126" height="39"/></g><g transform="translate(2,-6) scale(1,1)"><path fill="none" stroke="#000000" d="M 508 364 L 634 364 L 634 403 L 508 403 L 508 364 Z Z" stroke-miterlimit="10"/></g><g transform="translate(2,-6) scale(1,1)"><g><path fill="none" stroke="none"/><text fill="#000000" stroke="none" font-family="Arial" font-size="13px" font-style="normal" font-weight="bold" text-decoration="none" x="541" y="383.5">MapFields</text></g></g><g transform="translate(2,-6) scale(1,1)"><g><path fill="none" stroke="none"/><text fill="#000000" stroke="none" font-family="Arial" font-size="13px" font-style="normal" font-weight="normal" text-decoration="none" x="512.5" y="398.5">(from PreProcessor)</text></g></g><g transform="translate(2,-6) scale(1,1)"><path fill="none" stroke="#000000" d="M 635 383 Q 808 384 1026.5 282.61486486486484" stroke-miterlimit="10"/></g><g transform="translate(2,-6) scale(1,1)"><rect fill="#C0C0C0" stroke="none" x="515" y="423" width="126" height="39" opacity="0.2"/></g><g transform="translate(2,-6) scale(1,1)"><rect fill="#ffffff" stroke="none" x="508" y="416" width="126" height="39"/></g><g transform="translate(2,-6) scale(1,1)"><path fill="none" stroke="#000000" d="M 508 416 L 634 416 L 634 455 L 508 455 L 508 416 Z Z" stroke-miterlimit="10"/></g><g transform="translate(2,-6) scale(1,1)"><g><path fill="none" stroke="none"/><text fill="#000000" stroke="none" font-family="Arial" font-size="13px" font-style="normal" font-weight="bold" text-decoration="none" x="527" y="435.5">SetFieldValues</text></g></g><g transform="translate(2,-6) scale(1,1)"><g><path fill="none" stroke="none"/><text fill="#000000" stroke="none" font-family="Arial" font-size="13px" font-style="normal" font-weight="normal" text-decoration="none" x="512.5" y="450.5">(from PreProcessor)</text></g></g><g transform="translate(2,-6) scale(1,1)"><path fill="none" stroke="#000000" d="M 635 436 Q 816 440 1026.5 286.95098039215685" stroke-miterlimit="10"/></g><g transform="translate(2,-6) scale(1,1)"><rect fill="#C0C0C0" stroke="none" x="515" y="475" width="126" height="39" opacity="0.2"/></g><g transform="translate(2,-6) scale(1,1)"><rect fill="#ffffff" stroke="none" x="508" y="468" width="126" height="39"/></g><g transform="translate(2,-6) scale(1,1)"><path fill="none" stroke="#000000" d="M 508 468 L 634 468 L 634 507 L 508 507 L 508 468 Z Z" stroke-miterlimit="10"/></g><g transform="translate(2,-6) scale(1,1)"><g><path fill="none" stroke="none"/><text fill="#000000" stroke="none" font-family="Arial" font-size="13px" font-style="normal" font-weight="bold" text-decoration="none" x="532" y="487.5">StringToTime</text></g></g><g transform="translate(2,-6) scale(1,1)"><g><path fill="none" stroke="none"/><text fill="#000000" stroke="none" font-family="Arial" font-size="13px" font-style="normal" font-weight="normal" text-decoration="none" x="512.5" y="502.5">(from PreProcessor)</text></g></g><g transform="translate(2,-6) scale(1,1)"><path fill="none" stroke="#000000" d="M 635 485 Q 832 480 1029.622641509434 287" stroke-miterlimit="10"/></g><g transform="translate(2,-6) scale(1,1)"><rect fill="#C0C0C0" stroke="none" x="529" y="727" width="82" height="39" opacity="0.2"/></g><g transform="translate(2,-6) scale(1,1)"><rect fill="#ffffff" stroke="none" x="522" y="720" width="82" height="39"/></g><g transform="translate(2,-6) scale(1,1)"><path fill="none" stroke="#000000" d="M 522 720 L 604 720 L 604 759 L 522 759 L 522 720 Z Z" stroke-miterlimit="10"/></g><g transform="translate(2,-6) scale(1,1)"><g><path fill="none" stroke="none"/><text fill="#000000" stroke="none" font-family="Arial" font-size="13px" font-style="normal" font-weight="bold" text-decoration="none" x="529.5" y="739.5">ExportTask</text></g></g><g transform="translate(2,-6) scale(1,1)"><g><path fill="none" stroke="none"/><text fill="#000000" stroke="none" font-family="Arial" font-size="13px" font-style="normal" font-weight="normal" text-decoration="none" x="526.5" y="754.5">(from Model)</text></g></g><g transform="translate(2,-6) scale(1,1)"><rect fill="#C0C0C0" stroke="none" x="529" y="676" width="82" height="39" opacity="0.2"/></g><g transform="translate(2,-6) scale(1,1)"><rect fill="#ffffff" stroke="none" x="522" y="669" width="82" height="39"/></g><g transform="translate(2,-6) scale(1,1)"><path fill="none" stroke="#000000" d="M 522 669 L 604 669 L 604 708 L 522 708 L 522 669 Z Z" stroke-miterlimit="10"/></g><g transform="translate(2,-6) scale(1,1)"><g><path fill="none" stroke="none"/><text fill="#000000" stroke="none" font-family="Arial" font-size="13px" font-style="normal" font-weight="bold" text-decoration="none" x="530" y="688.5">ImportTask</text></g></g><g transform="translate(2,-6) scale(1,1)"><g><path fill="none" stroke="none"/><text fill="#000000" stroke="none" font-family="Arial" font-size="13px" font-style="normal" font-weight="normal" text-decoration="none" x="526.5" y="703.5">(from Model)</text></g></g><g transform="translate(2,-6) scale(1,1)"><path fill="#C0C0C0" stroke="none" d="M 1034 674.5 C 1034 668.1487248 1039.1487248 663 1045.5 663 C 1051.8512752 663 1057 668.1487248 1057 674.5 C 1057 680.8512752 1051.8512752 686 1045.5 686 C 1039.1487248 686 1034 680.8512752 1034 674.5 Z" opacity="0.2"/></g><g transform="translate(2,-6) scale(1,1)"><path fill="#ffffff" stroke="none" d="M 1027 667.5 C 1027 661.1487248 1032.1487248 656 1038.5 656 C 1044.8512752 656 1050 661.1487248 1050 667.5 C 1050 673.8512752 1044.8512752 679 1038.5 679 C 1032.1487248 679 1027 673.8512752 1027 667.5 Z"/></g><g transform="translate(2,-6) scale(1,1)"><path fill="none" stroke="#000000" d="M 1027 667.5 C 1027 661.1487248 1032.1487248 656 1038.5 656 C 1044.8512752 656 1050 661.1487248 1050 667.5 C 1050 673.8512752 1044.8512752 679 1038.5 679 C 1032.1487248 679 1027 673.8512752 1027 667.5 Z" stroke-miterlimit="10"/></g><g transform="translate(2,-6) scale(1,1)"><g><path fill="none" stroke="none"/><text fill="#000000" stroke="none" font-family="Arial" font-size="13px" font-style="normal" font-weight="bold" text-decoration="none" x="994.5" y="698.5">ImportInterface</text></g></g><g transform="translate(2,-6) scale(1,1)"><g><path fill="none" stroke="none"/><text fill="#000000" stroke="none" font-family="Arial" font-size="13px" font-style="normal" font-weight="normal" text-decoration="none" x="1002" y="713.5">(from Model)</text></g></g><g transform="translate(2,-6) scale(1,1)"><path fill="none" stroke="#000000" d="M 605 686 Q 744 680 1027 671.0192307692307" stroke-miterlimit="10"/></g><g transform="translate(2,-6) scale(1,1)"><g><path fill="none" stroke="none"/><text fill="#000000" stroke="none" font-family="Arial" font-size="13px" font-style="normal" font-weight="normal" text-decoration="none" x="744" y="672">+implements</text></g></g><g transform="translate(2,-6) scale(1,1)"><path fill="#C0C0C0" stroke="none" d="M 1034 770.5 C 1034 764.1487248 1039.1487248 759 1045.5 759 C 1051.8512752 759 1057 764.1487248 1057 770.5 C 1057 776.8512752 1051.8512752 782 1045.5 782 C 1039.1487248 782 1034 776.8512752 1034 770.5 Z" opacity="0.2"/></g><g transform="translate(2,-6) scale(1,1)"><path fill="#ffffff" stroke="none" d="M 1027 763.5 C 1027 757.1487248 1032.1487248 752 1038.5 752 C 1044.8512752 752 1050 757.1487248 1050 763.5 C 1050 769.8512752 1044.8512752 775 1038.5 775 C 1032.1487248 775 1027 769.8512752 1027 763.5 Z"/></g><g transform="translate(2,-6) scale(1,1)"><path fill="none" stroke="#000000" d="M 1027 763.5 C 1027 757.1487248 1032.1487248 752 1038.5 752 C 1044.8512752 752 1050 757.1487248 1050 763.5 C 1050 769.8512752 1044.8512752 775 1038.5 775 C 1032.1487248 775 1027 769.8512752 1027 763.5 Z" stroke-miterlimit="10"/></g><g transform="translate(2,-6) scale(1,1)"><g><path fill="none" stroke="none"/><text fill="#000000" stroke="none" font-family="Arial" font-size="13px" font-style="normal" font-weight="bold" text-decoration="none" x="994" y="794.5">ExportInterface</text></g></g><g transform="translate(2,-6) scale(1,1)"><g><path fill="none" stroke="none"/><text fill="#000000" stroke="none" font-family="Arial" font-size="13px" font-style="normal" font-weight="normal" text-decoration="none" x="1002" y="809.5">(from Model)</text></g></g><g transform="translate(2,-6) scale(1,1)"><path fill="none" stroke="#000000" d="M 605 744 Q 784 763 1027 766.3846153846154" stroke-miterlimit="10"/></g><g transform="translate(2,-6) scale(1,1)"><g><path fill="none" stroke="none"/><text fill="#000000" stroke="none" font-family="Arial" font-size="13px" font-style="normal" font-weight="normal" text-decoration="none" x="747" y="755">+implements</text></g></g><g transform="translate(2,-6) scale(1,1)"><path fill="#C0C0C0" stroke="none" d="M 1034 874.5 C 1034 868.1487248 1039.1487248 863 1045.5 863 C 1051.8512752 863 1057 868.1487248 1057 874.5 C 1057 880.8512752 1051.8512752 886 1045.5 886 C 1039.1487248 886 1034 880.8512752 1034 874.5 Z" opacity="0.2"/></g><g transform="translate(2,-6) scale(1,1)"><path fill="#ffffff" stroke="none" d="M 1027 867.5 C 1027 861.1487248 1032.1487248 856 1038.5 856 C 1044.8512752 856 1050 861.1487248 1050 867.5 C 1050 873.8512752 1044.8512752 879 1038.5 879 C 1032.1487248 879 1027 873.8512752 1027 867.5 Z"/></g><g transform="translate(2,-6) scale(1,1)"><path fill="none" stroke="#000000" d="M 1027 867.5 C 1027 861.1487248 1032.1487248 856 1038.5 856 C 1044.8512752 856 1050 861.1487248 1050 867.5 C 1050 873.8512752 1044.8512752 879 1038.5 879 C 1032.1487248 879 1027 873.8512752 1027 867.5 Z" stroke-miterlimit="10"/></g><g transform="translate(2,-6) scale(1,1)"><g><path fill="none" stroke="none"/><text fill="#000000" stroke="none" font-family="Arial" font-size="13px" font-style="normal" font-weight="bold" text-decoration="none" x="979" y="898.5">DataSourceInterface</text></g></g><g transform="translate(2,-6) scale(1,1)"><g><path fill="none" stroke="none"/><text fill="#000000" stroke="none" font-family="Arial" font-size="13px" font-style="normal" font-weight="normal" text-decoration="none" x="985" y="913.5">(from Persistence)</text></g></g><g transform="translate(2,-6) scale(1,1)"><path fill="#C0C0C0" stroke="none" d="M 1033.5 986.5 C 1033.5 980.1487248 1038.6487248 975 1045 975 C 1051.3512752 975 1056.5 980.1487248 1056.5 986.5 C 1056.5 992.8512752 1051.3512752 998 1045 998 C 1038.6487248 998 1033.5 992.8512752 1033.5 986.5 Z" opacity="0.2"/></g><g transform="translate(2,-6) scale(1,1)"><path fill="#ffffff" stroke="none" d="M 1026.5 979.5 C 1026.5 973.1487248 1031.6487248 968 1038 968 C 1044.3512752 968 1049.5 973.1487248 1049.5 979.5 C 1049.5 985.8512752 1044.3512752 991 1038 991 C 1031.6487248 991 1026.5 985.8512752 1026.5 979.5 Z"/></g><g transform="translate(2,-6) scale(1,1)"><path fill="none" stroke="#000000" d="M 1026.5 979.5 C 1026.5 973.1487248 1031.6487248 968 1038 968 C 1044.3512752 968 1049.5 973.1487248 1049.5 979.5 C 1049.5 985.8512752 1044.3512752 991 1038 991 C 1031.6487248 991 1026.5 985.8512752 1026.5 979.5 Z" stroke-miterlimit="10"/></g><g transform="translate(2,-6) scale(1,1)"><g><path fill="none" stroke="none"/><text fill="#000000" stroke="none" font-family="Arial" font-size="13px" font-style="normal" font-weight="bold" text-decoration="none" x="980.5" y="1010.5">DataTargetInterface</text></g></g><g transform="translate(2,-6) scale(1,1)"><g><path fill="none" stroke="none"/><text fill="#000000" stroke="none" font-family="Arial" font-size="13px" font-style="normal" font-weight="normal" text-decoration="none" x="984.5" y="1025.5">(from Persistence)</text></g></g><g transform="translate(2,-6) scale(1,1)"><rect fill="#C0C0C0" stroke="none" x="512" y="800" width="116" height="39" opacity="0.2"/></g><g transform="translate(2,-6) scale(1,1)"><rect fill="#ffffff" stroke="none" x="505" y="793" width="116" height="39"/></g><g transform="translate(2,-6) scale(1,1)"><path fill="none" stroke="#000000" d="M 505 793 L 621 793 L 621 832 L 505 832 L 505 793 Z Z" stroke-miterlimit="10"/></g><g transform="translate(2,-6) scale(1,1)"><g><path fill="none" stroke="none"/><text fill="#000000" stroke="none" font-family="Arial" font-size="13px" font-style="normal" font-weight="bold" text-decoration="none" x="517.5" y="812.5">DataSourceCsv</text></g></g><g transform="translate(2,-6) scale(1,1)"><g><path fill="none" stroke="none"/><text fill="#000000" stroke="none" font-family="Arial" font-size="13px" font-style="normal" font-weight="normal" text-decoration="none" x="509.5" y="827.5">(from Persistence)</text></g></g><g transform="translate(2,-6) scale(1,1)"><path fill="none" stroke="#000000" d="M 622 813 Q 783 816 1027 867.1641791044776" stroke-miterlimit="10"/></g><g transform="translate(2,-6) scale(1,1)"><g><path fill="none" stroke="none"/><text fill="#000000" stroke="none" font-family="Arial" font-size="13px" font-style="normal" font-weight="normal" text-decoration="none" x="749" y="808">+implements</text></g></g><g transform="translate(2,-6) scale(1,1)"><rect fill="#C0C0C0" stroke="none" x="512" y="850" width="116" height="39" opacity="0.2"/></g><g transform="translate(2,-6) scale(1,1)"><rect fill="#ffffff" stroke="none" x="505" y="843" width="116" height="39"/></g><g transform="translate(2,-6) scale(1,1)"><path fill="none" stroke="#000000" d="M 505 843 L 621 843 L 621 882 L 505 882 L 505 843 Z Z" stroke-miterlimit="10"/></g><g transform="translate(2,-6) scale(1,1)"><g><path fill="none" stroke="none"/><text fill="#000000" stroke="none" font-family="Arial" font-size="13px" font-style="normal" font-weight="bold" text-decoration="none" x="520" y="862.5">DataSourceDB</text></g></g><g transform="translate(2,-6) scale(1,1)"><g><path fill="none" stroke="none"/><text fill="#000000" stroke="none" font-family="Arial" font-size="13px" font-style="normal" font-weight="normal" text-decoration="none" x="509.5" y="877.5">(from Persistence)</text></g></g><g transform="translate(2,-6) scale(1,1)"><path fill="none" stroke="#000000" d="M 622 862 Q 748 863 1027 869.2985074626865" stroke-miterlimit="10"/></g><g transform="translate(2,-6) scale(1,1)"><g><path fill="none" stroke="none"/><text fill="#000000" stroke="none" font-family="Arial" font-size="13px" font-style="normal" font-weight="normal" text-decoration="none" x="751" y="854">+implements</text></g></g><g transform="translate(2,-6) scale(1,1)"><rect fill="#C0C0C0" stroke="none" x="512" y="900" width="116" height="39" opacity="0.2"/></g><g transform="translate(2,-6) scale(1,1)"><rect fill="#ffffff" stroke="none" x="505" y="893" width="116" height="39"/></g><g transform="translate(2,-6) scale(1,1)"><path fill="none" stroke="#000000" d="M 505 893 L 621 893 L 621 932 L 505 932 L 505 893 Z Z" stroke-miterlimit="10"/></g><g transform="translate(2,-6) scale(1,1)"><g><path fill="none" stroke="none"/><text fill="#000000" stroke="none" font-family="Arial" font-size="13px" font-style="normal" font-weight="bold" text-decoration="none" x="517.5" y="912.5">DataSourceXml</text></g></g><g transform="translate(2,-6) scale(1,1)"><g><path fill="none" stroke="none"/><text fill="#000000" stroke="none" font-family="Arial" font-size="13px" font-style="normal" font-weight="normal" text-decoration="none" x="509.5" y="927.5">(from Persistence)</text></g></g><g transform="translate(2,-6) scale(1,1)"><path fill="none" stroke="#000000" d="M 622 912 Q 787 912 1027 871.4328358208955" stroke-miterlimit="10"/></g><g transform="translate(2,-6) scale(1,1)"><g><path fill="none" stroke="none"/><text fill="#000000" stroke="none" font-family="Arial" font-size="13px" font-style="normal" font-weight="normal" text-decoration="none" x="751" y="925">+implements</text></g></g><g transform="translate(2,-6) scale(1,1)"><rect fill="#C0C0C0" stroke="none" x="499" y="950" width="142" height="39" opacity="0.2"/></g><g transform="translate(2,-6) scale(1,1)"><rect fill="#ffffff" stroke="none" x="492" y="943" width="142" height="39"/></g><g transform="translate(2,-6) scale(1,1)"><path fill="none" stroke="#000000" d="M 492 943 L 634 943 L 634 982 L 492 982 L 492 943 Z Z" stroke-miterlimit="10"/></g><g transform="translate(2,-6) scale(1,1)"><g><path fill="none" stroke="none"/><text fill="#000000" stroke="none" font-family="Arial" font-size="13px" font-style="normal" font-weight="bold" text-decoration="none" x="500" y="962.5">DataTargetRepository</text></g></g><g transform="translate(2,-6) scale(1,1)"><g><path fill="none" stroke="none"/><text fill="#000000" stroke="none" font-family="Arial" font-size="13px" font-style="normal" font-weight="normal" text-decoration="none" x="509.5" y="977.5">(from Persistence)</text></g></g><g transform="translate(2,-6) scale(1,1)"><path fill="none" stroke="#000000" d="M 635 966 Q 808 976 1026.5 981.4769230769231" stroke-miterlimit="10"/></g><g transform="translate(2,-6) scale(1,1)"><g><path fill="none" stroke="none"/><text fill="#000000" stroke="none" font-family="Arial" font-size="13px" font-style="normal" font-weight="normal" text-decoration="none" x="752" y="956">+implements</text></g></g><g transform="translate(2,-6) scale(1,1)"><rect fill="#C0C0C0" stroke="none" x="512" y="1000" width="116" height="39" opacity="0.2"/></g><g transform="translate(2,-6) scale(1,1)"><rect fill="#ffffff" stroke="none" x="505" y="993" width="116" height="39"/></g><g transform="translate(2,-6) scale(1,1)"><path fill="none" stroke="#000000" d="M 505 993 L 621 993 L 621 1032 L 505 1032 L 505 993 Z Z" stroke-miterlimit="10"/></g><g transform="translate(2,-6) scale(1,1)"><g><path fill="none" stroke="none"/><text fill="#000000" stroke="none" font-family="Arial" font-size="13px" font-style="normal" font-weight="bold" text-decoration="none" x="522" y="1012.5">DataTargetDB</text></g></g><g transform="translate(2,-6) scale(1,1)"><g><path fill="none" stroke="none"/><text fill="#000000" stroke="none" font-family="Arial" font-size="13px" font-style="normal" font-weight="normal" text-decoration="none" x="509.5" y="1027.5">(from Persistence)</text></g></g><g transform="translate(2,-6) scale(1,1)"><path fill="none" stroke="#000000" d="M 622 1010 L 1026.5 982.8923076923077" stroke-miterlimit="10"/></g><g transform="translate(2,-6) scale(1,1)"><g><path fill="none" stroke="none"/><text fill="#000000" stroke="none" font-family="Arial" font-size="13px" font-style="normal" font-weight="normal" text-decoration="none" x="754" y="1020">+implements</text></g></g><g transform="translate(2,-6) scale(1,1)"><path fill="none" stroke="#000000" d="M 507 125 Q 400 128 344 271" stroke-miterlimit="10"/></g><g transform="translate(2,-6) scale(1,1)"><path fill="#FFFFFF" stroke="none" d="M 343.57217720954253 249.00416021926043 L 344 271 L 359.25089107057516 255.14407613686762"/></g><g transform="translate(2,-6) scale(1,1)"><path fill="none" stroke="#000000" d="M 343.57217720954253 249.00416021926043 L 344 271 L 359.25089107057516 255.14407613686762 L 343.57217720954253 249.00416021926043" stroke-miterlimit="10"/></g><g transform="translate(2,-6) scale(1,1)"><rect fill="#C0C0C0" stroke="none" x="239" y="1087" width="168" height="48" opacity="0.2"/></g><g transform="translate(2,-6) scale(1,1)"><rect fill="#ffffff" stroke="none" x="232" y="1080" width="168" height="48"/></g><g transform="translate(2,-6) scale(1,1)"><path fill="none" stroke="#000000" d="M 232 1080 L 400 1080 L 400 1128 L 232 1128 L 232 1080 Z Z" stroke-miterlimit="10"/></g><g transform="translate(2,-6) scale(1,1)"><g><path fill="none" stroke="none"/><text fill="#000000" stroke="none" font-family="Arial" font-size="13px" font-style="italic" font-weight="bold" text-decoration="none" x="269.5" y="1099.5">AbstractFactory</text></g></g><g transform="translate(2,-6) scale(1,1)"><g><path fill="none" stroke="none"/><text fill="#000000" stroke="none" font-family="Arial" font-size="13px" font-style="normal" font-weight="normal" text-decoration="none" x="275" y="1114.5">(from Factory)</text></g></g><g transform="translate(2,-6) scale(1,1)"><rect fill="#C0C0C0" stroke="none" x="507" y="1063" width="142" height="40" opacity="0.2"/></g><g transform="translate(2,-6) scale(1,1)"><rect fill="#ffffff" stroke="none" x="500" y="1056" width="142" height="40"/></g><g transform="translate(2,-6) scale(1,1)"><path fill="none" stroke="#000000" d="M 500 1056 L 642 1056 L 642 1096 L 500 1096 L 500 1056 Z Z" stroke-miterlimit="10"/></g><g transform="translate(2,-6) scale(1,1)"><g><path fill="none" stroke="none"/><text fill="#000000" stroke="none" font-family="Arial" font-size="13px" font-style="normal" font-weight="bold" text-decoration="none" x="516" y="1075.5">ImportTaskFactory</text></g></g><g transform="translate(2,-6) scale(1,1)"><g><path fill="none" stroke="none"/><text fill="#000000" stroke="none" font-family="Arial" font-size="13px" font-style="normal" font-weight="normal" text-decoration="none" x="530" y="1090.5">(from Factory)</text></g></g><g transform="translate(2,-6) scale(1,1)"><rect fill="#C0C0C0" stroke="none" x="507" y="1119" width="142" height="40" opacity="0.2"/></g><g transform="translate(2,-6) scale(1,1)"><rect fill="#ffffff" stroke="none" x="500" y="1112" width="142" height="40"/></g><g transform="translate(2,-6) scale(1,1)"><path fill="none" stroke="#000000" d="M 500 1112 L 642 1112 L 642 1152 L 500 1152 L 500 1112 Z Z" stroke-miterlimit="10"/></g><g transform="translate(2,-6) scale(1,1)"><g><path fill="none" stroke="none"/><text fill="#000000" stroke="none" font-family="Arial" font-size="13px" font-style="normal" font-weight="bold" text-decoration="none" x="520.5" y="1131.5">ImportSetFactory</text></g></g><g transform="translate(2,-6) scale(1,1)"><g><path fill="none" stroke="none"/><text fill="#000000" stroke="none" font-family="Arial" font-size="13px" font-style="normal" font-weight="normal" text-decoration="none" x="530" y="1146.5">(from Factory)</text></g></g><g transform="translate(2,-6) scale(1,1)"><path fill="none" stroke="#000000" d="M 499 1084 L 401 1095" stroke-miterlimit="10"/></g><g transform="translate(2,-6) scale(1,1)"><path fill="#FFFFFF" stroke="none" d="M 420.2594118155506 1084.3663244116142 L 401 1095 L 422.1376048139255 1101.0993165789548"/></g><g transform="translate(2,-6) scale(1,1)"><path fill="none" stroke="#000000" d="M 420.2594118155506 1084.3663244116142 L 401 1095 L 422.1376048139255 1101.0993165789548 L 420.2594118155506 1084.3663244116142" stroke-miterlimit="10"/></g><g transform="translate(2,-6) scale(1,1)"><g><path fill="none" stroke="none"/><text fill="#000000" stroke="none" font-family="Arial" font-size="13px" font-style="normal" font-weight="normal" text-decoration="none" x="424" y="1110">+extends</text></g></g><g transform="translate(2,-6) scale(1,1)"><path fill="none" stroke="#000000" d="M 499 1124 L 401 1113" stroke-miterlimit="10"/></g><g transform="translate(2,-6) scale(1,1)"><path fill="#FFFFFF" stroke="none" d="M 422.1376048139255 1106.9006834210452 L 401 1113 L 420.2594118155506 1123.6336755883858"/></g><g transform="translate(2,-6) scale(1,1)"><path fill="none" stroke="#000000" d="M 422.1376048139255 1106.9006834210452 L 401 1113 L 420.2594118155506 1123.6336755883858 L 422.1376048139255 1106.9006834210452" stroke-miterlimit="10"/></g><g transform="translate(2,-6) scale(1,1)"><g><path fill="none" stroke="none"/><text fill="#000000" stroke="none" font-family="Arial" font-size="13px" font-style="normal" font-weight="normal" text-decoration="none" x="421" y="1139">+extends</text></g></g><g transform="translate(2,-6) scale(1,1)"><path fill="#C0C0C0" stroke="none" d="M 1033.5 578.5 C 1033.5 572.1487248 1038.6487248 567 1045 567 C 1051.3512752 567 1056.5 572.1487248 1056.5 578.5 C 1056.5 584.8512752 1051.3512752 590 1045 590 C 1038.6487248 590 1033.5 584.8512752 1033.5 578.5 Z" opacity="0.2"/></g><g transform="translate(2,-6) scale(1,1)"><path fill="#ffffff" stroke="none" d="M 1026.5 571.5 C 1026.5 565.1487248 1031.6487248 560 1038 560 C 1044.3512752 560 1049.5 565.1487248 1049.5 571.5 C 1049.5 577.8512752 1044.3512752 583 1038 583 C 1031.6487248 583 1026.5 577.8512752 1026.5 571.5 Z"/></g><g transform="translate(2,-6) scale(1,1)"><path fill="none" stroke="#000000" d="M 1026.5 571.5 C 1026.5 565.1487248 1031.6487248 560 1038 560 C 1044.3512752 560 1049.5 565.1487248 1049.5 571.5 C 1049.5 577.8512752 1044.3512752 583 1038 583 C 1031.6487248 583 1026.5 577.8512752 1026.5 571.5 Z" stroke-miterlimit="10"/></g><g transform="translate(2,-6) scale(1,1)"><g><path fill="none" stroke="none"/><text fill="#000000" stroke="none" font-family="Arial" font-size="13px" font-style="normal" font-weight="bold" text-decoration="none" x="984.5" y="602.5">ConverterInterface</text></g></g><g transform="translate(2,-6) scale(1,1)"><g><path fill="none" stroke="none"/><text fill="#000000" stroke="none" font-family="Arial" font-size="13px" font-style="normal" font-weight="normal" text-decoration="none" x="991" y="617.5">(from Converter)</text></g></g><g transform="translate(2,-6) scale(1,1)"><rect fill="#C0C0C0" stroke="none" x="495" y="567" width="151" height="45" opacity="0.2"/></g><g transform="translate(2,-6) scale(1,1)"><rect fill="#ffffff" stroke="none" x="488" y="560" width="151" height="45"/></g><g transform="translate(2,-6) scale(1,1)"><path fill="none" stroke="#000000" d="M 488 560 L 639 560 L 639 605 L 488 605 L 488 560 Z Z" stroke-miterlimit="10"/></g><g transform="translate(2,-6) scale(1,1)"><g><path fill="none" stroke="none"/><text fill="#000000" stroke="none" font-family="Arial" font-size="13px" font-style="normal" font-weight="bold" text-decoration="none" x="499.5" y="579.5">ArrayToDomainObject</text></g></g><g transform="translate(2,-6) scale(1,1)"><g><path fill="none" stroke="none"/><text fill="#000000" stroke="none" font-family="Arial" font-size="13px" font-style="normal" font-weight="normal" text-decoration="none" x="516.5" y="594.5">(from Converter)</text></g></g><g transform="translate(2,-6) scale(1,1)"><path fill="none" stroke="#000000" d="M 640 583 L 1026.5 574.5241935483871" stroke-miterlimit="10"/></g><g transform="translate(2,-6) scale(1,1)"><g><path fill="none" stroke="none"/><text fill="#000000" stroke="none" font-family="Arial" font-size="13px" font-style="normal" font-weight="normal" text-decoration="none" x="795" y="570">+implements</text></g></g><g transform="translate(2,-6) scale(1,1)"><rect fill="#C0C0C0" stroke="none" x="295" y="567" width="120" height="46" opacity="0.2"/></g><g transform="translate(2,-6) scale(1,1)"><rect fill="#ffffff" stroke="none" x="288" y="560" width="120" height="46"/></g><g transform="translate(2,-6) scale(1,1)"><path fill="none" stroke="#000000" d="M 288 560 L 408 560 L 408 606 L 288 606 L 288 560 Z Z" stroke-miterlimit="10"/></g><g transform="translate(2,-6) scale(1,1)"><g><path fill="none" stroke="none"/><text fill="#000000" stroke="none" font-family="Arial" font-size="13px" font-style="normal" font-weight="bold" text-decoration="none" x="295.5" y="579.5">AbstractConverter</text></g></g><g transform="translate(2,-6) scale(1,1)"><g><path fill="none" stroke="none"/><text fill="#000000" stroke="none" font-family="Arial" font-size="13px" font-style="normal" font-weight="normal" text-decoration="none" x="301" y="594.5">(from Converter)</text></g></g><g transform="translate(2,-6) scale(1,1)"><path fill="none" stroke="#000000" d="M 487 582 L 409 583" stroke-miterlimit="10"/></g><g transform="translate(2,-6) scale(1,1)"><path fill="#FFFFFF" stroke="none" d="M 429.2157520442016 574.3210963084409 L 409 583 L 429.43160701080717 591.1577837036743"/></g><g transform="translate(2,-6) scale(1,1)"><path fill="none" stroke="#000000" d="M 429.2157520442016 574.3210963084409 L 409 583 L 429.43160701080717 591.1577837036743 L 429.2157520442016 574.3210963084409" stroke-miterlimit="10"/></g><g transform="translate(2,-6) scale(1,1)"><g><path fill="none" stroke="none"/><text fill="#000000" stroke="none" font-family="Arial" font-size="13px" font-style="normal" font-weight="normal" text-decoration="none" x="421" y="603">+extends</text></g></g><g transform="translate(2,-6) scale(1,1)"><path fill="none" stroke="#000000" d="M 287 583 Q 192 584 83 320" stroke-miterlimit="10"/></g><g transform="translate(2,-6) scale(1,1)"><path fill="#FFFFFF" stroke="none" d="M 98.53860735533507 335.5740708055642 L 83 320 L 82.97492355385872 341.99998570844645"/></g><g transform="translate(2,-6) scale(1,1)"><path fill="none" stroke="#000000" d="M 98.53860735533507 335.5740708055642 L 83 320 L 82.97492355385872 341.99998570844645 L 98.53860735533507 335.5740708055642" stroke-miterlimit="10"/></g><g transform="translate(2,-6) scale(1,1)"><g><path fill="none" stroke="none"/><text fill="#000000" stroke="none" font-family="Arial" font-size="13px" font-style="normal" font-weight="normal" text-decoration="none" x="151" y="596">+extends</text></g></g><g transform="translate(2,-6) scale(1,1)"><path fill="none" stroke="#000000" d="M 635 125 Q 776 128 1026.5 272.24" stroke-miterlimit="10"/></g></g></svg>