<svg version="1.1" xmlns="http://www.w3.org/2000/svg" xmlns:xlink="http://www.w3.org/1999/xlink" width="616.5" height="263"><defs/><g><g transform="translate(-10,-10) scale(1,1)"><rect fill="#C0C0C0" stroke="none" x="27" y="27" width="29.200000000000003" height="15" opacity="0.2"/></g><g transform="translate(-10,-10) scale(1,1)"><rect fill="#C0C0C0" stroke="none" x="27" y="41" width="73" height="25" opacity="0.2"/></g><g transform="translate(-10,-10) scale(1,1)"><rect fill="#ffffff" stroke="none" x="20" y="35" width="73" height="24"/></g><g transform="translate(-10,-10) scale(1,1)"><path fill="none" stroke="#000000" d="M 20 35 L 93 35 L 93 59 L 20 59 L 20 35 Z Z" stroke-miterlimit="10"/></g><g transform="translate(-10,-10) scale(1,1)"><rect fill="#ffffff" stroke="none" x="20" y="20" width="29.200000000000003" height="15"/></g><g transform="translate(-10,-10) scale(1,1)"><path fill="none" stroke="#000000" d="M 20 20 L 49.2 20 L 49.2 35 L 20 35 L 20 20 Z Z" stroke-miterlimit="10"/></g><g transform="translate(-10,-10) scale(1,1)"><rect fill="#ffffff" stroke="none" x="20" y="34" width="73" height="25"/></g><g transform="translate(-10,-10) scale(1,1)"><path fill="none" stroke="#000000" d="M 20 34 L 93 34 L 93 59 L 20 59 L 20 34 Z Z" stroke-miterlimit="10"/></g><g transform="translate(-10,-10) scale(1,1)"><g><path fill="none" stroke="none"/><text fill="#000000" stroke="none" font-family="Arial" font-size="13px" font-style="normal" font-weight="bold" text-decoration="none" x="27" y="54.5">Command</text></g></g><g transform="translate(-10,-10) scale(1,1)"><rect fill="#C0C0C0" stroke="none" x="131" y="27" width="32.400000000000006" height="15" opacity="0.2"/></g><g transform="translate(-10,-10) scale(1,1)"><rect fill="#C0C0C0" stroke="none" x="131" y="41" width="81" height="25" opacity="0.2"/></g><g transform="translate(-10,-10) scale(1,1)"><rect fill="#ffffff" stroke="none" x="124" y="35" width="81" height="24"/></g><g transform="translate(-10,-10) scale(1,1)"><path fill="none" stroke="#000000" d="M 124 35 L 205 35 L 205 59 L 124 59 L 124 35 Z Z" stroke-miterlimit="10"/></g><g transform="translate(-10,-10) scale(1,1)"><rect fill="#ffffff" stroke="none" x="124" y="20" width="32.400000000000006" height="15"/></g><g transform="translate(-10,-10) scale(1,1)"><path fill="none" stroke="#000000" d="M 124 20 L 156.4 20 L 156.4 35 L 124 35 L 124 20 Z Z" stroke-miterlimit="10"/></g><g transform="translate(-10,-10) scale(1,1)"><rect fill="#ffffff" stroke="none" x="124" y="34" width="81" height="25"/></g><g transform="translate(-10,-10) scale(1,1)"><path fill="none" stroke="#000000" d="M 124 34 L 205 34 L 205 59 L 124 59 L 124 34 Z Z" stroke-miterlimit="10"/></g><g transform="translate(-10,-10) scale(1,1)"><g><path fill="none" stroke="none"/><text fill="#000000" stroke="none" font-family="Arial" font-size="13px" font-style="normal" font-weight="bold" text-decoration="none" x="131.5" y="54.5">Component</text></g></g><g transform="translate(-10,-10) scale(1,1)"><rect fill="#C0C0C0" stroke="none" x="67.5" y="161" width="40" height="15" opacity="0.2"/></g><g transform="translate(-10,-10) scale(1,1)"><rect fill="#C0C0C0" stroke="none" x="67.5" y="175" width="100" height="25" opacity="0.2"/></g><g transform="translate(-10,-10) scale(1,1)"><rect fill="#ffffff" stroke="none" x="60.5" y="169" width="100" height="24"/></g><g transform="translate(-10,-10) scale(1,1)"><path fill="none" stroke="#000000" d="M 60.5 169 L 160.5 169 L 160.5 193 L 60.5 193 L 60.5 169 Z Z" stroke-miterlimit="10"/></g><g transform="translate(-10,-10) scale(1,1)"><rect fill="#ffffff" stroke="none" x="60.5" y="154" width="40" height="15"/></g><g transform="translate(-10,-10) scale(1,1)"><path fill="none" stroke="#000000" d="M 60.5 154 L 100.5 154 L 100.5 169 L 60.5 169 L 60.5 154 Z Z" stroke-miterlimit="10"/></g><g transform="translate(-10,-10) scale(1,1)"><rect fill="#ffffff" stroke="none" x="60.5" y="168" width="100" height="25"/></g><g transform="translate(-10,-10) scale(1,1)"><path fill="none" stroke="#000000" d="M 60.5 168 L 160.5 168 L 160.5 193 L 60.5 193 L 60.5 168 Z Z" stroke-miterlimit="10"/></g><g transform="translate(-10,-10) scale(1,1)"><g><path fill="none" stroke="none"/><text fill="#000000" stroke="none" font-family="Arial" font-size="13px" font-style="normal" font-weight="bold" text-decoration="none" x="67.5" y="188.5">PostProcessor</text></g></g><g transform="translate(-10,-10) scale(1,1)"><rect fill="#C0C0C0" stroke="none" x="198.5" y="161" width="37.19999999999999" height="15" opacity="0.2"/></g><g transform="translate(-10,-10) scale(1,1)"><rect fill="#C0C0C0" stroke="none" x="198.5" y="175" width="93" height="25" opacity="0.2"/></g><g transform="translate(-10,-10) scale(1,1)"><rect fill="#ffffff" stroke="none" x="191.5" y="169" width="93" height="24"/></g><g transform="translate(-10,-10) scale(1,1)"><path fill="none" stroke="#000000" d="M 191.5 169 L 284.5 169 L 284.5 193 L 191.5 193 L 191.5 169 Z Z" stroke-miterlimit="10"/></g><g transform="translate(-10,-10) scale(1,1)"><rect fill="#ffffff" stroke="none" x="191.5" y="154" width="37.19999999999999" height="15"/></g><g transform="translate(-10,-10) scale(1,1)"><path fill="none" stroke="#000000" d="M 191.5 154 L 228.7 154 L 228.7 169 L 191.5 169 L 191.5 154 Z Z" stroke-miterlimit="10"/></g><g transform="translate(-10,-10) scale(1,1)"><rect fill="#ffffff" stroke="none" x="191.5" y="168" width="93" height="25"/></g><g transform="translate(-10,-10) scale(1,1)"><path fill="none" stroke="#000000" d="M 191.5 168 L 284.5 168 L 284.5 193 L 191.5 193 L 191.5 168 Z Z" stroke-miterlimit="10"/></g><g transform="translate(-10,-10) scale(1,1)"><g><path fill="none" stroke="none"/><text fill="#000000" stroke="none" font-family="Arial" font-size="13px" font-style="normal" font-weight="bold" text-decoration="none" x="198.5" y="188.5">PreProcessor</text></g></g><g transform="translate(-10,-10) scale(1,1)"><rect fill="#C0C0C0" stroke="none" x="252.75" y="27" width="28.399999999999977" height="15" opacity="0.2"/></g><g transform="translate(-10,-10) scale(1,1)"><rect fill="#C0C0C0" stroke="none" x="252.75" y="41" width="71" height="25" opacity="0.2"/></g><g transform="translate(-10,-10) scale(1,1)"><rect fill="#ffffff" stroke="none" x="245.75" y="35" width="71" height="24"/></g><g transform="translate(-10,-10) scale(1,1)"><path fill="none" stroke="#000000" d="M 245.75 35 L 316.75 35 L 316.75 59 L 245.75 59 L 245.75 35 Z Z" stroke-miterlimit="10"/></g><g transform="translate(-10,-10) scale(1,1)"><rect fill="#ffffff" stroke="none" x="245.75" y="20" width="28.399999999999977" height="15"/></g><g transform="translate(-10,-10) scale(1,1)"><path fill="none" stroke="#000000" d="M 245.75 20 L 274.15 20 L 274.15 35 L 245.75 35 L 245.75 20 Z Z" stroke-miterlimit="10"/></g><g transform="translate(-10,-10) scale(1,1)"><rect fill="#ffffff" stroke="none" x="245.75" y="34" width="71" height="25"/></g><g transform="translate(-10,-10) scale(1,1)"><path fill="none" stroke="#000000" d="M 245.75 34 L 316.75 34 L 316.75 59 L 245.75 59 L 245.75 34 Z Z" stroke-miterlimit="10"/></g><g transform="translate(-10,-10) scale(1,1)"><g><path fill="none" stroke="none"/><text fill="#000000" stroke="none" font-family="Arial" font-size="13px" font-style="normal" font-weight="bold" text-decoration="none" x="253.75" y="54.5">Controller</text></g></g><g transform="translate(-10,-10) scale(1,1)"><rect fill="#C0C0C0" stroke="none" x="368.5" y="27" width="22.80000000000001" height="15" opacity="0.2"/></g><g transform="translate(-10,-10) scale(1,1)"><rect fill="#C0C0C0" stroke="none" x="368.5" y="41" width="57" height="25" opacity="0.2"/></g><g transform="translate(-10,-10) scale(1,1)"><rect fill="#ffffff" stroke="none" x="361.5" y="35" width="57" height="24"/></g><g transform="translate(-10,-10) scale(1,1)"><path fill="none" stroke="#000000" d="M 361.5 35 L 418.5 35 L 418.5 59 L 361.5 59 L 361.5 35 Z Z" stroke-miterlimit="10"/></g><g transform="translate(-10,-10) scale(1,1)"><rect fill="#ffffff" stroke="none" x="361.5" y="20" width="22.80000000000001" height="15"/></g><g transform="translate(-10,-10) scale(1,1)"><path fill="none" stroke="#000000" d="M 361.5 20 L 384.3 20 L 384.3 35 L 361.5 35 L 361.5 20 Z Z" stroke-miterlimit="10"/></g><g transform="translate(-10,-10) scale(1,1)"><rect fill="#ffffff" stroke="none" x="361.5" y="34" width="57" height="25"/></g><g transform="translate(-10,-10) scale(1,1)"><path fill="none" stroke="#000000" d="M 361.5 34 L 418.5 34 L 418.5 59 L 361.5 59 L 361.5 34 Z Z" stroke-miterlimit="10"/></g><g transform="translate(-10,-10) scale(1,1)"><g><path fill="none" stroke="none"/><text fill="#000000" stroke="none" font-family="Arial" font-size="13px" font-style="normal" font-weight="bold" text-decoration="none" x="368" y="54.5">Domain</text></g></g><g transform="translate(-10,-10) scale(1,1)"><rect fill="#C0C0C0" stroke="none" x="325.75" y="161" width="19.600000000000023" height="15" opacity="0.2"/></g><g transform="translate(-10,-10) scale(1,1)"><rect fill="#C0C0C0" stroke="none" x="325.75" y="175" width="49" height="25" opacity="0.2"/></g><g transform="translate(-10,-10) scale(1,1)"><rect fill="#ffffff" stroke="none" x="318.75" y="169" width="49" height="24"/></g><g transform="translate(-10,-10) scale(1,1)"><path fill="none" stroke="#000000" d="M 318.75 169 L 367.75 169 L 367.75 193 L 318.75 193 L 318.75 169 Z Z" stroke-miterlimit="10"/></g><g transform="translate(-10,-10) scale(1,1)"><rect fill="#ffffff" stroke="none" x="318.75" y="154" width="19.600000000000023" height="15"/></g><g transform="translate(-10,-10) scale(1,1)"><path fill="none" stroke="#000000" d="M 318.75 154 L 338.35 154 L 338.35 169 L 318.75 169 L 318.75 154 Z Z" stroke-miterlimit="10"/></g><g transform="translate(-10,-10) scale(1,1)"><rect fill="#ffffff" stroke="none" x="318.75" y="168" width="49" height="25"/></g><g transform="translate(-10,-10) scale(1,1)"><path fill="none" stroke="#000000" d="M 318.75 168 L 367.75 168 L 367.75 193 L 318.75 193 L 318.75 168 Z Z" stroke-miterlimit="10"/></g><g transform="translate(-10,-10) scale(1,1)"><g><path fill="none" stroke="none"/><text fill="#000000" stroke="none" font-family="Arial" font-size="13px" font-style="normal" font-weight="bold" text-decoration="none" x="325.75" y="188.5">Model</text></g></g><g transform="translate(-10,-10) scale(1,1)"><rect fill="#C0C0C0" stroke="none" x="325.75" y="231" width="19.600000000000023" height="15" opacity="0.2"/></g><g transform="translate(-10,-10) scale(1,1)"><rect fill="#C0C0C0" stroke="none" x="325.75" y="245" width="49" height="25" opacity="0.2"/></g><g transform="translate(-10,-10) scale(1,1)"><rect fill="#ffffff" stroke="none" x="318.75" y="239" width="49" height="24"/></g><g transform="translate(-10,-10) scale(1,1)"><path fill="none" stroke="#000000" d="M 318.75 239 L 367.75 239 L 367.75 263 L 318.75 263 L 318.75 239 Z Z" stroke-miterlimit="10"/></g><g transform="translate(-10,-10) scale(1,1)"><rect fill="#ffffff" stroke="none" x="318.75" y="224" width="19.600000000000023" height="15"/></g><g transform="translate(-10,-10) scale(1,1)"><path fill="none" stroke="#000000" d="M 318.75 224 L 338.35 224 L 338.35 239 L 318.75 239 L 318.75 224 Z Z" stroke-miterlimit="10"/></g><g transform="translate(-10,-10) scale(1,1)"><rect fill="#ffffff" stroke="none" x="318.75" y="238" width="49" height="25"/></g><g transform="translate(-10,-10) scale(1,1)"><path fill="none" stroke="#000000" d="M 318.75 238 L 367.75 238 L 367.75 263 L 318.75 263 L 318.75 238 Z Z" stroke-miterlimit="10"/></g><g transform="translate(-10,-10) scale(1,1)"><g><path fill="none" stroke="none"/><text fill="#000000" stroke="none" font-family="Arial" font-size="13px" font-style="normal" font-weight="bold" text-decoration="none" x="333.25" y="258.5">Dto</text></g></g><g transform="translate(-10,-10) scale(1,1)"><rect fill="#C0C0C0" stroke="none" x="405.75" y="161" width="30.399999999999977" height="15" opacity="0.2"/></g><g transform="translate(-10,-10) scale(1,1)"><rect fill="#C0C0C0" stroke="none" x="405.75" y="175" width="76" height="25" opacity="0.2"/></g><g transform="translate(-10,-10) scale(1,1)"><rect fill="#ffffff" stroke="none" x="398.75" y="169" width="76" height="24"/></g><g transform="translate(-10,-10) scale(1,1)"><path fill="none" stroke="#000000" d="M 398.75 169 L 474.75 169 L 474.75 193 L 398.75 193 L 398.75 169 Z Z" stroke-miterlimit="10"/></g><g transform="translate(-10,-10) scale(1,1)"><rect fill="#ffffff" stroke="none" x="398.75" y="154" width="30.399999999999977" height="15"/></g><g transform="translate(-10,-10) scale(1,1)"><path fill="none" stroke="#000000" d="M 398.75 154 L 429.15 154 L 429.15 169 L 398.75 169 L 398.75 154 Z Z" stroke-miterlimit="10"/></g><g transform="translate(-10,-10) scale(1,1)"><rect fill="#ffffff" stroke="none" x="398.75" y="168" width="76" height="25"/></g><g transform="translate(-10,-10) scale(1,1)"><path fill="none" stroke="#000000" d="M 398.75 168 L 474.75 168 L 474.75 193 L 398.75 193 L 398.75 168 Z Z" stroke-miterlimit="10"/></g><g transform="translate(-10,-10) scale(1,1)"><g><path fill="none" stroke="none"/><text fill="#000000" stroke="none" font-family="Arial" font-size="13px" font-style="normal" font-weight="bold" text-decoration="none" x="405.75" y="188.5">Repository</text></g></g><g transform="translate(-10,-10) scale(1,1)"><rect fill="#C0C0C0" stroke="none" x="512.75" y="161" width="22" height="15" opacity="0.2"/></g><g transform="translate(-10,-10) scale(1,1)"><rect fill="#C0C0C0" stroke="none" x="512.75" y="175" width="55" height="25" opacity="0.2"/></g><g transform="translate(-10,-10) scale(1,1)"><rect fill="#ffffff" stroke="none" x="505.75" y="169" width="55" height="24"/></g><g transform="translate(-10,-10) scale(1,1)"><path fill="none" stroke="#000000" d="M 505.75 169 L 560.75 169 L 560.75 193 L 505.75 193 L 505.75 169 Z Z" stroke-miterlimit="10"/></g><g transform="translate(-10,-10) scale(1,1)"><rect fill="#ffffff" stroke="none" x="505.75" y="154" width="22" height="15"/></g><g transform="translate(-10,-10) scale(1,1)"><path fill="none" stroke="#000000" d="M 505.75 154 L 527.75 154 L 527.75 169 L 505.75 169 L 505.75 154 Z Z" stroke-miterlimit="10"/></g><g transform="translate(-10,-10) scale(1,1)"><rect fill="#ffffff" stroke="none" x="505.75" y="168" width="55" height="25"/></g><g transform="translate(-10,-10) scale(1,1)"><path fill="none" stroke="#000000" d="M 505.75 168 L 560.75 168 L 560.75 193 L 505.75 193 L 505.75 168 Z Z" stroke-miterlimit="10"/></g><g transform="translate(-10,-10) scale(1,1)"><g><path fill="none" stroke="none"/><text fill="#000000" stroke="none" font-family="Arial" font-size="13px" font-style="normal" font-weight="bold" text-decoration="none" x="511.25" y="188.5">Factory</text></g></g><g transform="translate(-10,-10) scale(1,1)"><rect fill="#C0C0C0" stroke="none" x="456.5" y="27" width="32.39999999999998" height="15" opacity="0.2"/></g><g transform="translate(-10,-10) scale(1,1)"><rect fill="#C0C0C0" stroke="none" x="456.5" y="41" width="81" height="25" opacity="0.2"/></g><g transform="translate(-10,-10) scale(1,1)"><rect fill="#ffffff" stroke="none" x="449.5" y="35" width="81" height="24"/></g><g transform="translate(-10,-10) scale(1,1)"><path fill="none" stroke="#000000" d="M 449.5 35 L 530.5 35 L 530.5 59 L 449.5 59 L 449.5 35 Z Z" stroke-miterlimit="10"/></g><g transform="translate(-10,-10) scale(1,1)"><rect fill="#ffffff" stroke="none" x="449.5" y="20" width="32.39999999999998" height="15"/></g><g transform="translate(-10,-10) scale(1,1)"><path fill="none" stroke="#000000" d="M 449.5 20 L 481.9 20 L 481.9 35 L 449.5 35 L 449.5 20 Z Z" stroke-miterlimit="10"/></g><g transform="translate(-10,-10) scale(1,1)"><rect fill="#ffffff" stroke="none" x="449.5" y="34" width="81" height="25"/></g><g transform="translate(-10,-10) scale(1,1)"><path fill="none" stroke="#000000" d="M 449.5 34 L 530.5 34 L 530.5 59 L 449.5 59 L 449.5 34 Z Z" stroke-miterlimit="10"/></g><g transform="translate(-10,-10) scale(1,1)"><g><path fill="none" stroke="none"/><text fill="#000000" stroke="none" font-family="Arial" font-size="13px" font-style="normal" font-weight="bold" text-decoration="none" x="455.5" y="54.5">Persistence</text></g></g><g transform="translate(-10,-10) scale(1,1)"><rect fill="#C0C0C0" stroke="none" x="568.5" y="27" width="22" height="15" opacity="0.2"/></g><g transform="translate(-10,-10) scale(1,1)"><rect fill="#C0C0C0" stroke="none" x="568.5" y="41" width="55" height="25" opacity="0.2"/></g><g transform="translate(-10,-10) scale(1,1)"><rect fill="#ffffff" stroke="none" x="561.5" y="35" width="55" height="24"/></g><g transform="translate(-10,-10) scale(1,1)"><path fill="none" stroke="#000000" d="M 561.5 35 L 616.5 35 L 616.5 59 L 561.5 59 L 561.5 35 Z Z" stroke-miterlimit="10"/></g><g transform="translate(-10,-10) scale(1,1)"><rect fill="#ffffff" stroke="none" x="561.5" y="20" width="22" height="15"/></g><g transform="translate(-10,-10) scale(1,1)"><path fill="none" stroke="#000000" d="M 561.5 20 L 583.5 20 L 583.5 35 L 561.5 35 L 561.5 20 Z Z" stroke-miterlimit="10"/></g><g transform="translate(-10,-10) scale(1,1)"><rect fill="#ffffff" stroke="none" x="561.5" y="34" width="55" height="25"/></g><g transform="translate(-10,-10) scale(1,1)"><path fill="none" stroke="#000000" d="M 561.5 34 L 616.5 34 L 616.5 59 L 561.5 59 L 561.5 34 Z Z" stroke-miterlimit="10"/></g><g transform="translate(-10,-10) scale(1,1)"><g><path fill="none" stroke="none"/><text fill="#000000" stroke="none" font-family="Arial" font-size="13px" font-style="normal" font-weight="bold" text-decoration="none" x="567" y="54.5">Service</text></g></g><g transform="translate(-10,-10) scale(1,1)"><path fill="none" stroke="#000000" d="M 111 153 Q 111 139 153 60" stroke-miterlimit="10"/></g><g transform="translate(-10,-10) scale(1,1)"><path fill="#FFFFFF" stroke="none" d="M 142.71400678555605 66.1807967605017 C 142.71400678555605 62.314803160501704 145.84801318555606 59.18079676050171 149.71400678555605 59.18079676050171 C 153.58000038555605 59.18079676050171 156.71400678555605 62.314803160501704 156.71400678555605 66.1807967605017 C 156.71400678555605 70.0467903605017 153.58000038555605 73.1807967605017 149.71400678555605 73.1807967605017 C 145.84801318555606 73.1807967605017 142.71400678555605 70.0467903605017 142.71400678555605 66.1807967605017 Z"/></g><g transform="translate(-10,-10) scale(1,1)"><path fill="none" stroke="#000000" d="M 142.71400678555605 66.1807967605017 C 142.71400678555605 62.314803160501704 145.84801318555606 59.18079676050171 149.71400678555605 59.18079676050171 C 153.58000038555605 59.18079676050171 156.71400678555605 62.314803160501704 156.71400678555605 66.1807967605017 C 156.71400678555605 70.0467903605017 153.58000038555605 73.1807967605017 149.71400678555605 73.1807967605017 C 145.84801318555606 73.1807967605017 142.71400678555605 70.0467903605017 142.71400678555605 66.1807967605017 Z" stroke-miterlimit="10"/></g><g transform="translate(-10,-10) scale(1,1)"><path fill="none" stroke="#000000" d="M 146.4280135711121 72.36159352100341 L 153 60" stroke-miterlimit="10"/></g><g transform="translate(-10,-10) scale(1,1)"><path fill="none" stroke="#000000" d="M 155.89480354605774 69.46678997494566 L 143.53321002505436 62.894803546057766" stroke-miterlimit="10"/></g><g transform="translate(-10,-10) scale(1,1)"><path fill="none" stroke="#000000" d="M 239 153 Q 239 139 180 60" stroke-miterlimit="10"/></g><g transform="translate(-10,-10) scale(1,1)"><path fill="#FFFFFF" stroke="none" d="M 177.18863235679214 65.60850773197593 C 177.18863235679214 61.74251413197593 180.32263875679214 58.60850773197593 184.18863235679214 58.60850773197593 C 188.05462595679214 58.60850773197593 191.18863235679214 61.74251413197593 191.18863235679214 65.60850773197593 C 191.18863235679214 69.47450133197593 188.05462595679214 72.60850773197593 184.18863235679214 72.60850773197593 C 180.32263875679214 72.60850773197593 177.18863235679214 69.47450133197593 177.18863235679214 65.60850773197593 Z"/></g><g transform="translate(-10,-10) scale(1,1)"><path fill="none" stroke="#000000" d="M 177.18863235679214 65.60850773197593 C 177.18863235679214 61.74251413197593 180.32263875679214 58.60850773197593 184.18863235679214 58.60850773197593 C 188.05462595679214 58.60850773197593 191.18863235679214 61.74251413197593 191.18863235679214 65.60850773197593 C 191.18863235679214 69.47450133197593 188.05462595679214 72.60850773197593 184.18863235679214 72.60850773197593 C 180.32263875679214 72.60850773197593 177.18863235679214 69.47450133197593 177.18863235679214 65.60850773197593 Z" stroke-miterlimit="10"/></g><g transform="translate(-10,-10) scale(1,1)"><path fill="none" stroke="#000000" d="M 188.3772647135843 71.21701546395187 L 180 60" stroke-miterlimit="10"/></g><g transform="translate(-10,-10) scale(1,1)"><path fill="none" stroke="#000000" d="M 189.79714008876806 61.41987537518378 L 178.58012462481622 69.79714008876809" stroke-miterlimit="10"/></g><g transform="translate(-10,-10) scale(1,1)"><path fill="none" stroke="#000000" d="M 344 153 Q 344 139 380 60" stroke-miterlimit="10"/></g><g transform="translate(-10,-10) scale(1,1)"><path fill="#FFFFFF" stroke="none" d="M 370.0973058133526 66.36980113180962 C 370.0973058133526 62.50380753180962 373.23131221335257 59.36980113180962 377.0973058133526 59.36980113180962 C 380.9632994133526 59.36980113180962 384.0973058133526 62.50380753180962 384.0973058133526 66.36980113180962 C 384.0973058133526 70.23579473180962 380.9632994133526 73.36980113180962 377.0973058133526 73.36980113180962 C 373.23131221335257 73.36980113180962 370.0973058133526 70.23579473180962 370.0973058133526 66.36980113180962 Z"/></g><g transform="translate(-10,-10) scale(1,1)"><path fill="none" stroke="#000000" d="M 370.0973058133526 66.36980113180962 C 370.0973058133526 62.50380753180962 373.23131221335257 59.36980113180962 377.0973058133526 59.36980113180962 C 380.9632994133526 59.36980113180962 384.0973058133526 62.50380753180962 384.0973058133526 66.36980113180962 C 384.0973058133526 70.23579473180962 380.9632994133526 73.36980113180962 377.0973058133526 73.36980113180962 C 373.23131221335257 73.36980113180962 370.0973058133526 70.23579473180962 370.0973058133526 66.36980113180962 Z" stroke-miterlimit="10"/></g><g transform="translate(-10,-10) scale(1,1)"><path fill="none" stroke="#000000" d="M 374.1946116267051 72.73960226361926 L 380 60" stroke-miterlimit="10"/></g><g transform="translate(-10,-10) scale(1,1)"><path fill="none" stroke="#000000" d="M 383.46710694516224 69.27249531845705 L 370.72750468154294 63.4671069451622" stroke-miterlimit="10"/></g><g transform="translate(-10,-10) scale(1,1)"><path fill="none" stroke="#000000" d="M 344 223 Q 344 209 344 194" stroke-miterlimit="10"/></g><g transform="translate(-10,-10) scale(1,1)"><path fill="#FFFFFF" stroke="none" d="M 337 201 C 337 197.1340064 340.1340064 194 344 194 C 347.8659936 194 351 197.1340064 351 201 C 351 204.8659936 347.8659936 208 344 208 C 340.1340064 208 337 204.8659936 337 201 Z"/></g><g transform="translate(-10,-10) scale(1,1)"><path fill="none" stroke="#000000" d="M 337 201 C 337 197.1340064 340.1340064 194 344 194 C 347.8659936 194 351 197.1340064 351 201 C 351 204.8659936 347.8659936 208 344 208 C 340.1340064 208 337 204.8659936 337 201 Z" stroke-miterlimit="10"/></g><g transform="translate(-10,-10) scale(1,1)"><path fill="none" stroke="#000000" d="M 344 208 L 344 194" stroke-miterlimit="10"/></g><g transform="translate(-10,-10) scale(1,1)"><path fill="none" stroke="#000000" d="M 351 201 L 337 201" stroke-miterlimit="10"/></g><g transform="translate(-10,-10) scale(1,1)"><path fill="none" stroke="#000000" d="M 437 153 Q 437 139 400 60" stroke-miterlimit="10"/></g><g transform="translate(-10,-10) scale(1,1)"><path fill="#FFFFFF" stroke="none" d="M 395.968981118675 66.3391759020358 C 395.968981118675 62.4731823020358 399.102987518675 59.339175902035805 402.968981118675 59.339175902035805 C 406.834974718675 59.339175902035805 409.968981118675 62.4731823020358 409.968981118675 66.3391759020358 C 409.968981118675 70.2051695020358 406.834974718675 73.3391759020358 402.968981118675 73.3391759020358 C 399.102987518675 73.3391759020358 395.968981118675 70.2051695020358 395.968981118675 66.3391759020358 Z"/></g><g transform="translate(-10,-10) scale(1,1)"><path fill="none" stroke="#000000" d="M 395.968981118675 66.3391759020358 C 395.968981118675 62.4731823020358 399.102987518675 59.339175902035805 402.968981118675 59.339175902035805 C 406.834974718675 59.339175902035805 409.968981118675 62.4731823020358 409.968981118675 66.3391759020358 C 409.968981118675 70.2051695020358 406.834974718675 73.3391759020358 402.968981118675 73.3391759020358 C 399.102987518675 73.3391759020358 395.968981118675 70.2051695020358 395.968981118675 66.3391759020358 Z" stroke-miterlimit="10"/></g><g transform="translate(-10,-10) scale(1,1)"><path fill="none" stroke="#000000" d="M 405.93796223735 72.6783518040716 L 400 60" stroke-miterlimit="10"/></g><g transform="translate(-10,-10) scale(1,1)"><path fill="none" stroke="#000000" d="M 409.3081570207108 63.37019478336081 L 396.6298052166392 69.3081570207108" stroke-miterlimit="10"/></g><g transform="translate(-10,-10) scale(1,1)"><path fill="none" stroke="#000000" d="M 534 153 Q 534 139 420 59" stroke-miterlimit="10"/></g><g transform="translate(-10,-10) scale(1,1)"><path fill="#FFFFFF" stroke="none" d="M 418.7298968472369 63.02098024367501 C 418.7298968472369 59.15498664367501 421.86390324723686 56.02098024367501 425.7298968472369 56.02098024367501 C 429.5958904472369 56.02098024367501 432.7298968472369 59.15498664367501 432.7298968472369 63.02098024367501 C 432.7298968472369 66.88697384367501 429.5958904472369 70.02098024367501 425.7298968472369 70.02098024367501 C 421.86390324723686 70.02098024367501 418.7298968472369 66.88697384367501 418.7298968472369 63.02098024367501 Z"/></g><g transform="translate(-10,-10) scale(1,1)"><path fill="none" stroke="#000000" d="M 418.7298968472369 63.02098024367501 C 418.7298968472369 59.15498664367501 421.86390324723686 56.02098024367501 425.7298968472369 56.02098024367501 C 429.5958904472369 56.02098024367501 432.7298968472369 59.15498664367501 432.7298968472369 63.02098024367501 C 432.7298968472369 66.88697384367501 429.5958904472369 70.02098024367501 425.7298968472369 70.02098024367501 C 421.86390324723686 70.02098024367501 418.7298968472369 66.88697384367501 418.7298968472369 63.02098024367501 Z" stroke-miterlimit="10"/></g><g transform="translate(-10,-10) scale(1,1)"><path fill="none" stroke="#000000" d="M 431.4597936944738 67.04196048735002 L 420 59" stroke-miterlimit="10"/></g><g transform="translate(-10,-10) scale(1,1)"><path fill="none" stroke="#000000" d="M 429.7508770909119 57.291083396438125 L 421.7089166035619 68.7508770909119" stroke-miterlimit="10"/></g></g></svg>