<svg version="1.1" xmlns="http://www.w3.org/2000/svg" xmlns:xlink="http://www.w3.org/1999/xlink" width="358" height="489"><defs/><g><g transform="translate(-30,-6) scale(1,1)"><rect fill="#C0C0C0" stroke="none" x="47" y="27" width="22.799999999999997" height="15" opacity="0.2"/></g><g transform="translate(-30,-6) scale(1,1)"><rect fill="#C0C0C0" stroke="none" x="47" y="41" width="57" height="25" opacity="0.2"/></g><g transform="translate(-30,-6) scale(1,1)"><rect fill="#ffffff" stroke="none" x="40" y="35" width="57" height="24"/></g><g transform="translate(-30,-6) scale(1,1)"><path fill="none" stroke="#000000" d="M 40 35 L 97 35 L 97 59 L 40 59 L 40 35 Z Z" stroke-miterlimit="10"/></g><g transform="translate(-30,-6) scale(1,1)"><rect fill="#ffffff" stroke="none" x="40" y="20" width="22.799999999999997" height="15"/></g><g transform="translate(-30,-6) scale(1,1)"><path fill="none" stroke="#000000" d="M 40 20 L 62.8 20 L 62.8 35 L 40 35 L 40 20 Z Z" stroke-miterlimit="10"/></g><g transform="translate(-30,-6) scale(1,1)"><rect fill="#ffffff" stroke="none" x="40" y="34" width="57" height="25"/></g><g transform="translate(-30,-6) scale(1,1)"><path fill="none" stroke="#000000" d="M 40 34 L 97 34 L 97 59 L 40 59 L 40 34 Z Z" stroke-miterlimit="10"/></g><g transform="translate(-30,-6) scale(1,1)"><g><path fill="none" stroke="none"/><text fill="#000000" stroke="none" font-family="Arial" font-size="13px" font-style="normal" font-weight="bold" text-decoration="none" x="46.5" y="54.5">Domain</text></g></g><g transform="translate(-30,-6) scale(1,1)"><rect fill="#C0C0C0" stroke="none" x="199" y="71" width="19.599999999999994" height="15" opacity="0.2"/></g><g transform="translate(-30,-6) scale(1,1)"><rect fill="#C0C0C0" stroke="none" x="199" y="85" width="49" height="25" opacity="0.2"/></g><g transform="translate(-30,-6) scale(1,1)"><rect fill="#ffffff" stroke="none" x="192" y="79" width="49" height="24"/></g><g transform="translate(-30,-6) scale(1,1)"><path fill="none" stroke="#000000" d="M 192 79 L 241 79 L 241 103 L 192 103 L 192 79 Z Z" stroke-miterlimit="10"/></g><g transform="translate(-30,-6) scale(1,1)"><rect fill="#ffffff" stroke="none" x="192" y="64" width="19.599999999999994" height="15"/></g><g transform="translate(-30,-6) scale(1,1)"><path fill="none" stroke="#000000" d="M 192 64 L 211.6 64 L 211.6 79 L 192 79 L 192 64 Z Z" stroke-miterlimit="10"/></g><g transform="translate(-30,-6) scale(1,1)"><rect fill="#ffffff" stroke="none" x="192" y="78" width="49" height="25"/></g><g transform="translate(-30,-6) scale(1,1)"><path fill="none" stroke="#000000" d="M 192 78 L 241 78 L 241 103 L 192 103 L 192 78 Z Z" stroke-miterlimit="10"/></g><g transform="translate(-30,-6) scale(1,1)"><g><path fill="none" stroke="none"/><text fill="#000000" stroke="none" font-family="Arial" font-size="13px" font-style="normal" font-weight="bold" text-decoration="none" x="199" y="98.5">Model</text></g></g><g transform="translate(-30,-6) scale(1,1)"><rect fill="#C0C0C0" stroke="none" x="199" y="23" width="30.400000000000006" height="15" opacity="0.2"/></g><g transform="translate(-30,-6) scale(1,1)"><rect fill="#C0C0C0" stroke="none" x="199" y="37" width="76" height="25" opacity="0.2"/></g><g transform="translate(-30,-6) scale(1,1)"><rect fill="#ffffff" stroke="none" x="192" y="31" width="76" height="24"/></g><g transform="translate(-30,-6) scale(1,1)"><path fill="none" stroke="#000000" d="M 192 31 L 268 31 L 268 55 L 192 55 L 192 31 Z Z" stroke-miterlimit="10"/></g><g transform="translate(-30,-6) scale(1,1)"><rect fill="#ffffff" stroke="none" x="192" y="16" width="30.400000000000006" height="15"/></g><g transform="translate(-30,-6) scale(1,1)"><path fill="none" stroke="#000000" d="M 192 16 L 222.4 16 L 222.4 31 L 192 31 L 192 16 Z Z" stroke-miterlimit="10"/></g><g transform="translate(-30,-6) scale(1,1)"><rect fill="#ffffff" stroke="none" x="192" y="30" width="76" height="25"/></g><g transform="translate(-30,-6) scale(1,1)"><path fill="none" stroke="#000000" d="M 192 30 L 268 30 L 268 55 L 192 55 L 192 30 Z Z" stroke-miterlimit="10"/></g><g transform="translate(-30,-6) scale(1,1)"><g><path fill="none" stroke="none"/><text fill="#000000" stroke="none" font-family="Arial" font-size="13px" font-style="normal" font-weight="bold" text-decoration="none" x="199" y="50.5">Repository</text></g></g><g transform="translate(-30,-6) scale(1,1)"><rect fill="#C0C0C0" stroke="none" x="47" y="98" width="28.400000000000006" height="15" opacity="0.2"/></g><g transform="translate(-30,-6) scale(1,1)"><rect fill="#C0C0C0" stroke="none" x="47" y="112" width="71" height="25" opacity="0.2"/></g><g transform="translate(-30,-6) scale(1,1)"><rect fill="#ffffff" stroke="none" x="40" y="106" width="71" height="24"/></g><g transform="translate(-30,-6) scale(1,1)"><path fill="none" stroke="#000000" d="M 40 106 L 111 106 L 111 130 L 40 130 L 40 106 Z Z" stroke-miterlimit="10"/></g><g transform="translate(-30,-6) scale(1,1)"><rect fill="#ffffff" stroke="none" x="40" y="91" width="28.400000000000006" height="15"/></g><g transform="translate(-30,-6) scale(1,1)"><path fill="none" stroke="#000000" d="M 40 91 L 68.4 91 L 68.4 106 L 40 106 L 40 91 Z Z" stroke-miterlimit="10"/></g><g transform="translate(-30,-6) scale(1,1)"><rect fill="#ffffff" stroke="none" x="40" y="105" width="71" height="25"/></g><g transform="translate(-30,-6) scale(1,1)"><path fill="none" stroke="#000000" d="M 40 105 L 111 105 L 111 130 L 40 130 L 40 105 Z Z" stroke-miterlimit="10"/></g><g transform="translate(-30,-6) scale(1,1)"><g><path fill="none" stroke="none"/><text fill="#000000" stroke="none" font-family="Arial" font-size="13px" font-style="normal" font-weight="bold" text-decoration="none" x="48" y="125.5">Controller</text></g></g><g transform="translate(-30,-6) scale(1,1)"><rect fill="#C0C0C0" stroke="none" x="47" y="169" width="22" height="15" opacity="0.2"/></g><g transform="translate(-30,-6) scale(1,1)"><rect fill="#C0C0C0" stroke="none" x="47" y="183" width="55" height="25" opacity="0.2"/></g><g transform="translate(-30,-6) scale(1,1)"><rect fill="#ffffff" stroke="none" x="40" y="177" width="55" height="24"/></g><g transform="translate(-30,-6) scale(1,1)"><path fill="none" stroke="#000000" d="M 40 177 L 95 177 L 95 201 L 40 201 L 40 177 Z Z" stroke-miterlimit="10"/></g><g transform="translate(-30,-6) scale(1,1)"><rect fill="#ffffff" stroke="none" x="40" y="162" width="22" height="15"/></g><g transform="translate(-30,-6) scale(1,1)"><path fill="none" stroke="#000000" d="M 40 162 L 62 162 L 62 177 L 40 177 L 40 162 Z Z" stroke-miterlimit="10"/></g><g transform="translate(-30,-6) scale(1,1)"><rect fill="#ffffff" stroke="none" x="40" y="176" width="55" height="25"/></g><g transform="translate(-30,-6) scale(1,1)"><path fill="none" stroke="#000000" d="M 40 176 L 95 176 L 95 201 L 40 201 L 40 176 Z Z" stroke-miterlimit="10"/></g><g transform="translate(-30,-6) scale(1,1)"><g><path fill="none" stroke="none"/><text fill="#000000" stroke="none" font-family="Arial" font-size="13px" font-style="normal" font-weight="bold" text-decoration="none" x="45.5" y="196.5">Service</text></g></g><g transform="translate(-30,-6) scale(1,1)"><rect fill="#C0C0C0" stroke="none" x="47" y="240" width="29.200000000000003" height="15" opacity="0.2"/></g><g transform="translate(-30,-6) scale(1,1)"><rect fill="#C0C0C0" stroke="none" x="47" y="254" width="73" height="25" opacity="0.2"/></g><g transform="translate(-30,-6) scale(1,1)"><rect fill="#ffffff" stroke="none" x="40" y="248" width="73" height="24"/></g><g transform="translate(-30,-6) scale(1,1)"><path fill="none" stroke="#000000" d="M 40 248 L 113 248 L 113 272 L 40 272 L 40 248 Z Z" stroke-miterlimit="10"/></g><g transform="translate(-30,-6) scale(1,1)"><rect fill="#ffffff" stroke="none" x="40" y="233" width="29.200000000000003" height="15"/></g><g transform="translate(-30,-6) scale(1,1)"><path fill="none" stroke="#000000" d="M 40 233 L 69.2 233 L 69.2 248 L 40 248 L 40 233 Z Z" stroke-miterlimit="10"/></g><g transform="translate(-30,-6) scale(1,1)"><rect fill="#ffffff" stroke="none" x="40" y="247" width="73" height="25"/></g><g transform="translate(-30,-6) scale(1,1)"><path fill="none" stroke="#000000" d="M 40 247 L 113 247 L 113 272 L 40 272 L 40 247 Z Z" stroke-miterlimit="10"/></g><g transform="translate(-30,-6) scale(1,1)"><g><path fill="none" stroke="none"/><text fill="#000000" stroke="none" font-family="Arial" font-size="13px" font-style="normal" font-weight="bold" text-decoration="none" x="47" y="267.5">Command</text></g></g><g transform="translate(-30,-6) scale(1,1)"><rect fill="#C0C0C0" stroke="none" x="47" y="311" width="32.400000000000006" height="15" opacity="0.2"/></g><g transform="translate(-30,-6) scale(1,1)"><rect fill="#C0C0C0" stroke="none" x="47" y="325" width="81" height="25" opacity="0.2"/></g><g transform="translate(-30,-6) scale(1,1)"><rect fill="#ffffff" stroke="none" x="40" y="319" width="81" height="24"/></g><g transform="translate(-30,-6) scale(1,1)"><path fill="none" stroke="#000000" d="M 40 319 L 121 319 L 121 343 L 40 343 L 40 319 Z Z" stroke-miterlimit="10"/></g><g transform="translate(-30,-6) scale(1,1)"><rect fill="#ffffff" stroke="none" x="40" y="304" width="32.400000000000006" height="15"/></g><g transform="translate(-30,-6) scale(1,1)"><path fill="none" stroke="#000000" d="M 40 304 L 72.4 304 L 72.4 319 L 40 319 L 40 304 Z Z" stroke-miterlimit="10"/></g><g transform="translate(-30,-6) scale(1,1)"><rect fill="#ffffff" stroke="none" x="40" y="318" width="81" height="25"/></g><g transform="translate(-30,-6) scale(1,1)"><path fill="none" stroke="#000000" d="M 40 318 L 121 318 L 121 343 L 40 343 L 40 318 Z Z" stroke-miterlimit="10"/></g><g transform="translate(-30,-6) scale(1,1)"><g><path fill="none" stroke="none"/><text fill="#000000" stroke="none" font-family="Arial" font-size="13px" font-style="normal" font-weight="bold" text-decoration="none" x="47.5" y="338.5">Component</text></g></g><g transform="translate(-30,-6) scale(1,1)"><rect fill="#C0C0C0" stroke="none" x="47" y="382" width="40" height="15" opacity="0.2"/></g><g transform="translate(-30,-6) scale(1,1)"><rect fill="#C0C0C0" stroke="none" x="47" y="396" width="100" height="25" opacity="0.2"/></g><g transform="translate(-30,-6) scale(1,1)"><rect fill="#ffffff" stroke="none" x="40" y="390" width="100" height="24"/></g><g transform="translate(-30,-6) scale(1,1)"><path fill="none" stroke="#000000" d="M 40 390 L 140 390 L 140 414 L 40 414 L 40 390 Z Z" stroke-miterlimit="10"/></g><g transform="translate(-30,-6) scale(1,1)"><rect fill="#ffffff" stroke="none" x="40" y="375" width="40" height="15"/></g><g transform="translate(-30,-6) scale(1,1)"><path fill="none" stroke="#000000" d="M 40 375 L 80 375 L 80 390 L 40 390 L 40 375 Z Z" stroke-miterlimit="10"/></g><g transform="translate(-30,-6) scale(1,1)"><rect fill="#ffffff" stroke="none" x="40" y="389" width="100" height="25"/></g><g transform="translate(-30,-6) scale(1,1)"><path fill="none" stroke="#000000" d="M 40 389 L 140 389 L 140 414 L 40 414 L 40 389 Z Z" stroke-miterlimit="10"/></g><g transform="translate(-30,-6) scale(1,1)"><g><path fill="none" stroke="none"/><text fill="#000000" stroke="none" font-family="Arial" font-size="13px" font-style="normal" font-weight="bold" text-decoration="none" x="47" y="409.5">PostProcessor</text></g></g><g transform="translate(-30,-6) scale(1,1)"><rect fill="#C0C0C0" stroke="none" x="47" y="453" width="37.2" height="15" opacity="0.2"/></g><g transform="translate(-30,-6) scale(1,1)"><rect fill="#C0C0C0" stroke="none" x="47" y="467" width="93" height="25" opacity="0.2"/></g><g transform="translate(-30,-6) scale(1,1)"><rect fill="#ffffff" stroke="none" x="40" y="461" width="93" height="24"/></g><g transform="translate(-30,-6) scale(1,1)"><path fill="none" stroke="#000000" d="M 40 461 L 133 461 L 133 485 L 40 485 L 40 461 Z Z" stroke-miterlimit="10"/></g><g transform="translate(-30,-6) scale(1,1)"><rect fill="#ffffff" stroke="none" x="40" y="446" width="37.2" height="15"/></g><g transform="translate(-30,-6) scale(1,1)"><path fill="none" stroke="#000000" d="M 40 446 L 77.2 446 L 77.2 461 L 40 461 L 40 446 Z Z" stroke-miterlimit="10"/></g><g transform="translate(-30,-6) scale(1,1)"><rect fill="#ffffff" stroke="none" x="40" y="460" width="93" height="25"/></g><g transform="translate(-30,-6) scale(1,1)"><path fill="none" stroke="#000000" d="M 40 460 L 133 460 L 133 485 L 40 485 L 40 460 Z Z" stroke-miterlimit="10"/></g><g transform="translate(-30,-6) scale(1,1)"><g><path fill="none" stroke="none"/><text fill="#000000" stroke="none" font-family="Arial" font-size="13px" font-style="normal" font-weight="bold" text-decoration="none" x="47" y="480.5">PreProcessor</text></g></g><g transform="translate(-30,-6) scale(1,1)"><path fill="none" stroke="#000000" d="M 191 79 Q 168 75 98 50" stroke-miterlimit="10"/></g><g transform="translate(-30,-6) scale(1,1)"><path fill="#FFFFFF" stroke="none" d="M 97.59219338116387 52.354354778987094 C 97.59219338116387 48.48836117898709 100.72619978116387 45.354354778987094 104.59219338116387 45.354354778987094 C 108.45818698116386 45.354354778987094 111.59219338116387 48.48836117898709 111.59219338116387 52.354354778987094 C 111.59219338116387 56.2203483789871 108.45818698116386 59.354354778987094 104.59219338116387 59.354354778987094 C 100.72619978116387 59.354354778987094 97.59219338116387 56.2203483789871 97.59219338116387 52.354354778987094 Z"/></g><g transform="translate(-30,-6) scale(1,1)"><path fill="none" stroke="#000000" d="M 97.59219338116387 52.354354778987094 C 97.59219338116387 48.48836117898709 100.72619978116387 45.354354778987094 104.59219338116387 45.354354778987094 C 108.45818698116386 45.354354778987094 111.59219338116387 48.48836117898709 111.59219338116387 52.354354778987094 C 111.59219338116387 56.2203483789871 108.45818698116386 59.354354778987094 104.59219338116387 59.354354778987094 C 100.72619978116387 59.354354778987094 97.59219338116387 56.2203483789871 97.59219338116387 52.354354778987094 Z" stroke-miterlimit="10"/></g><g transform="translate(-30,-6) scale(1,1)"><path fill="none" stroke="#000000" d="M 111.18438676232772 54.70870955797419 L 98 50" stroke-miterlimit="10"/></g><g transform="translate(-30,-6) scale(1,1)"><path fill="none" stroke="#000000" d="M 106.94654816015095 45.762161397823235 L 102.23783860217678 58.946548160150954" stroke-miterlimit="10"/></g><g transform="translate(-30,-6) scale(1,1)"><path fill="none" stroke="#000000" d="M 191 36 L 98 38" stroke-miterlimit="10"/></g><g transform="translate(-30,-6) scale(1,1)"><path fill="#FFFFFF" stroke="none" d="M 97.99838187700104 37.84949716393546 C 97.99838187700104 33.98350356393546 101.13238827700104 30.84949716393546 104.99838187700104 30.84949716393546 C 108.86437547700103 30.84949716393546 111.99838187700104 33.98350356393546 111.99838187700104 37.84949716393546 C 111.99838187700104 41.71549076393546 108.86437547700103 44.84949716393546 104.99838187700104 44.84949716393546 C 101.13238827700104 44.84949716393546 97.99838187700104 41.71549076393546 97.99838187700104 37.84949716393546 Z"/></g><g transform="translate(-30,-6) scale(1,1)"><path fill="none" stroke="#000000" d="M 97.99838187700104 37.84949716393546 C 97.99838187700104 33.98350356393546 101.13238827700104 30.84949716393546 104.99838187700104 30.84949716393546 C 108.86437547700103 30.84949716393546 111.99838187700104 33.98350356393546 111.99838187700104 37.84949716393546 C 111.99838187700104 41.71549076393546 108.86437547700103 44.84949716393546 104.99838187700104 44.84949716393546 C 101.13238827700104 44.84949716393546 97.99838187700104 41.71549076393546 97.99838187700104 37.84949716393546 Z" stroke-miterlimit="10"/></g><g transform="translate(-30,-6) scale(1,1)"><path fill="none" stroke="#000000" d="M 111.99676375400207 37.69899432787092 L 98 38" stroke-miterlimit="10"/></g><g transform="translate(-30,-6) scale(1,1)"><path fill="none" stroke="#000000" d="M 104.8478790409365 30.851115286934423 L 105.14888471306557 44.8478790409365" stroke-miterlimit="10"/></g><g transform="translate(-30,-6) scale(1,1)"><rect fill="#C0C0C0" stroke="none" x="303" y="71" width="32.80000000000001" height="15" opacity="0.2"/></g><g transform="translate(-30,-6) scale(1,1)"><rect fill="#C0C0C0" stroke="none" x="303" y="85" width="82" height="40" opacity="0.2"/></g><g transform="translate(-30,-6) scale(1,1)"><rect fill="#ffffff" stroke="none" x="296" y="79" width="82" height="39"/></g><g transform="translate(-30,-6) scale(1,1)"><path fill="none" stroke="#000000" d="M 296 79 L 378 79 L 378 118 L 296 118 L 296 79 Z Z" stroke-miterlimit="10"/></g><g transform="translate(-30,-6) scale(1,1)"><rect fill="#ffffff" stroke="none" x="296" y="64" width="32.80000000000001" height="15"/></g><g transform="translate(-30,-6) scale(1,1)"><path fill="none" stroke="#000000" d="M 296 64 L 328.8 64 L 328.8 79 L 296 79 L 296 64 Z Z" stroke-miterlimit="10"/></g><g transform="translate(-30,-6) scale(1,1)"><rect fill="#ffffff" stroke="none" x="296" y="78" width="82" height="40"/></g><g transform="translate(-30,-6) scale(1,1)"><path fill="none" stroke="#000000" d="M 296 78 L 378 78 L 378 118 L 296 118 L 296 78 Z Z" stroke-miterlimit="10"/></g><g transform="translate(-30,-6) scale(1,1)"><g><path fill="none" stroke="none"/><text fill="#000000" stroke="none" font-family="Arial" font-size="13px" font-style="normal" font-weight="bold" text-decoration="none" x="327" y="98.5">Dto</text></g></g><g transform="translate(-30,-6) scale(1,1)"><g><path fill="none" stroke="none"/><text fill="#000000" stroke="none" font-family="Arial" font-size="13px" font-style="normal" font-weight="normal" text-decoration="none" x="300.5" y="113.5">(from Model)</text></g></g></g></svg>