<svg version="1.1" xmlns="http://www.w3.org/2000/svg" xmlns:xlink="http://www.w3.org/1999/xlink" width="2317" height="1163"><defs/><g><g transform="translate(-46,-14) scale(1,1)"><rect fill="#C0C0C0" stroke="none" x="87" y="239" width="301" height="177" opacity="0.2"/></g><g transform="translate(-46,-14) scale(1,1)"><rect fill="#ffffff" stroke="none" x="80" y="232" width="301" height="177"/></g><g transform="translate(-46,-14) scale(1,1)"><path fill="none" stroke="#000000" d="M 80 232 L 381 232 L 381 409 L 80 409 L 80 232 Z Z" stroke-miterlimit="10"/></g><g transform="translate(-46,-14) scale(1,1)"><path fill="none" stroke="#000000" d="M 80 257 L 381 257" stroke-miterlimit="10"/></g><g transform="translate(-46,-14) scale(1,1)"><path fill="none" stroke="#000000" d="M 80 370 L 381 370" stroke-miterlimit="10"/></g><g transform="translate(-46,-14) scale(1,1)"><g><path fill="none" stroke="none"/><text fill="#000000" stroke="none" font-family="Arial" font-size="13px" font-style="normal" font-weight="bold" text-decoration="none" x="197.5" y="251.5">ImportTask</text></g></g><g transform="translate(-46,-14) scale(1,1)"><g><path fill="none" stroke="none"/><text fill="#000000" stroke="none" font-family="Arial" font-size="13px" font-style="normal" font-weight="normal" text-decoration="none" x="85" y="274.5">+identifier: string[1] {unique}</text></g></g><g transform="translate(-46,-14) scale(1,1)"><g><path fill="none" stroke="none"/><text fill="#000000" stroke="none" font-family="Arial" font-size="13px" font-style="normal" font-weight="normal" text-decoration="none" x="85" y="289.5">#dataSource: DataSourceInterface[1]</text></g></g><g transform="translate(-46,-14) scale(1,1)"><g><path fill="none" stroke="none"/><text fill="#000000" stroke="none" font-family="Arial" font-size="13px" font-style="normal" font-weight="normal" text-decoration="none" x="85" y="304.5">+dataTarget: DataTargetInterface[1]</text></g></g><g transform="translate(-46,-14) scale(1,1)"><g><path fill="none" stroke="none"/><text fill="#000000" stroke="none" font-family="Arial" font-size="13px" font-style="normal" font-weight="normal" text-decoration="none" x="85" y="319.5">#preProcessors: PreProcessorInterface[0..*]</text></g></g><g transform="translate(-46,-14) scale(1,1)"><g><path fill="none" stroke="none"/><text fill="#000000" stroke="none" font-family="Arial" font-size="13px" font-style="normal" font-weight="normal" text-decoration="none" x="85" y="334.5">#postProcessors: PostProcessorInterface[0..*]</text></g></g><g transform="translate(-46,-14) scale(1,1)"><g><path fill="none" stroke="none"/><text fill="#000000" stroke="none" font-family="Arial" font-size="13px" font-style="normal" font-weight="normal" text-decoration="none" x="85" y="349.5">#sourceConfiguration: array</text></g></g><g transform="translate(-46,-14) scale(1,1)"><g><path fill="none" stroke="none"/><text fill="#000000" stroke="none" font-family="Arial" font-size="13px" font-style="normal" font-weight="normal" text-decoration="none" x="85" y="364.5">+description</text></g></g><g transform="translate(-46,-14) scale(1,1)"><g><path fill="none" stroke="none"/><text fill="#000000" stroke="none" font-family="Arial" font-size="13px" font-style="normal" font-weight="normal" text-decoration="none" x="85" y="387.5">+getIdentifier()</text></g></g><g transform="translate(-46,-14) scale(1,1)"><path fill="#C0C0C0" stroke="none" d="M 243.5 110 C 243.5 97.2974496 253.7974496 87 266.5 87 C 279.2025504 87 289.5 97.2974496 289.5 110 C 289.5 122.7025504 279.2025504 133 266.5 133 C 253.7974496 133 243.5 122.7025504 243.5 110 Z" opacity="0.2"/></g><g transform="translate(-46,-14) scale(1,1)"><path fill="#ffffff" stroke="none" d="M 236.5 103 C 236.5 90.2974496 246.7974496 80 259.5 80 C 272.2025504 80 282.5 90.2974496 282.5 103 C 282.5 115.7025504 272.2025504 126 259.5 126 C 246.7974496 126 236.5 115.7025504 236.5 103 Z"/></g><g transform="translate(-46,-14) scale(1,1)"><path fill="none" stroke="#000000" d="M 236.5 103 C 236.5 90.2974496 246.7974496 80 259.5 80 C 272.2025504 80 282.5 90.2974496 282.5 103 C 282.5 115.7025504 272.2025504 126 259.5 126 C 246.7974496 126 236.5 115.7025504 236.5 103 Z" stroke-miterlimit="10"/></g><g transform="translate(-46,-14) scale(1,1)"><g><path fill="none" stroke="none"/><text fill="#000000" stroke="none" font-family="Arial" font-size="13px" font-style="normal" font-weight="bold" text-decoration="none" x="215.5" y="145.5">ImportInterface</text></g></g><g transform="translate(-46,-14) scale(1,1)"><path fill="#C0C0C0" stroke="none" d="M 519.5 106 C 519.5 95.5065888 528.0065888 87 538.5 87 C 548.9934112 87 557.5 95.5065888 557.5 106 C 557.5 116.4934112 548.9934112 125 538.5 125 C 528.0065888 125 519.5 116.4934112 519.5 106 Z" opacity="0.2"/></g><g transform="translate(-46,-14) scale(1,1)"><path fill="#ffffff" stroke="none" d="M 512.5 99 C 512.5 88.5065888 521.0065888 80 531.5 80 C 541.9934112 80 550.5 88.5065888 550.5 99 C 550.5 109.4934112 541.9934112 118 531.5 118 C 521.0065888 118 512.5 109.4934112 512.5 99 Z"/></g><g transform="translate(-46,-14) scale(1,1)"><path fill="none" stroke="#000000" d="M 512.5 99 C 512.5 88.5065888 521.0065888 80 531.5 80 C 541.9934112 80 550.5 88.5065888 550.5 99 C 550.5 109.4934112 541.9934112 118 531.5 118 C 521.0065888 118 512.5 109.4934112 512.5 99 Z" stroke-miterlimit="10"/></g><g transform="translate(-46,-14) scale(1,1)"><g><path fill="none" stroke="none"/><text fill="#000000" stroke="none" font-family="Arial" font-size="13px" font-style="normal" font-weight="bold" text-decoration="none" x="487" y="137.5">ExportInterface</text></g></g><g transform="translate(-46,-14) scale(1,1)"><rect fill="#C0C0C0" stroke="none" x="471" y="239" width="128" height="136" opacity="0.2"/></g><g transform="translate(-46,-14) scale(1,1)"><rect fill="#ffffff" stroke="none" x="464" y="232" width="128" height="136"/></g><g transform="translate(-46,-14) scale(1,1)"><path fill="none" stroke="#000000" d="M 464 232 L 592 232 L 592 368 L 464 368 L 464 232 Z Z" stroke-miterlimit="10"/></g><g transform="translate(-46,-14) scale(1,1)"><g><path fill="none" stroke="none"/><text fill="#000000" stroke="none" font-family="Arial" font-size="13px" font-style="normal" font-weight="bold" text-decoration="none" x="509" y="251.5">Export</text></g></g><g transform="translate(-46,-14) scale(1,1)"><g><path fill="none" stroke="none"/><text fill="#000000" stroke="none" font-family="Arial" font-size="13px" font-style="normal" font-weight="normal" text-decoration="none" x="491.5" y="266.5">(from Model)</text></g></g><g transform="translate(-46,-14) scale(1,1)"><path fill="none" stroke="#000000" d="M 529 231 L 530.5777777777778 118" stroke-miterlimit="10"/></g><g transform="translate(-46,-14) scale(1,1)"><g><path fill="none" stroke="none"/><text fill="#000000" stroke="none" font-family="Arial" font-size="13px" font-style="normal" font-weight="normal" text-decoration="none" x="477" y="180">+implements</text></g></g><g transform="translate(-46,-14) scale(1,1)"><path fill="none" stroke="#000000" d="M 243 231 L 256.6530612244898 126" stroke-miterlimit="10"/></g><g transform="translate(-46,-14) scale(1,1)"><g><path fill="none" stroke="none"/><text fill="#000000" stroke="none" font-family="Arial" font-size="13px" font-style="normal" font-weight="normal" text-decoration="none" x="197" y="182">+implements</text></g></g><g transform="translate(-46,-14) scale(1,1)"><rect fill="#C0C0C0" stroke="none" x="1641" y="238" width="152.67919921875" height="59" opacity="0.2"/></g><g transform="translate(-46,-14) scale(1,1)"><rect fill="#ffffff" stroke="none" x="1634" y="231" width="152.67919921875" height="59"/></g><g transform="translate(-46,-14) scale(1,1)"><path fill="none" stroke="#000000" d="M 1634 231 L 1786.67919921875 231 L 1786.67919921875 290 L 1634 290 L 1634 231 Z Z" stroke-miterlimit="10"/></g><g transform="translate(-46,-14) scale(1,1)"><path fill="none" stroke="#000000" d="M 1634 271 L 1786.67919921875 271" stroke-miterlimit="10"/></g><g transform="translate(-46,-14) scale(1,1)"><path fill="none" stroke="#000000" d="M 1634 281 L 1786.67919921875 281" stroke-miterlimit="10"/></g><g transform="translate(-46,-14) scale(1,1)"><g><path fill="none" stroke="none"/><text fill="#000000" stroke="none" font-family="Arial" font-size="13px" font-style="italic" font-weight="bold" text-decoration="none" x="1646.339599609375" y="250.5">AbstractPreProcessor</text></g></g><g transform="translate(-46,-14) scale(1,1)"><g><path fill="none" stroke="none"/><text fill="#000000" stroke="none" font-family="Arial" font-size="13px" font-style="normal" font-weight="normal" text-decoration="none" x="1651.839599609375" y="265.5">(from PreProcessor)</text></g></g><g transform="translate(-46,-14) scale(1,1)"><rect fill="#C0C0C0" stroke="none" x="1711" y="351" width="126" height="59" opacity="0.2"/></g><g transform="translate(-46,-14) scale(1,1)"><rect fill="#ffffff" stroke="none" x="1704" y="344" width="126" height="59"/></g><g transform="translate(-46,-14) scale(1,1)"><path fill="none" stroke="#000000" d="M 1704 344 L 1830 344 L 1830 403 L 1704 403 L 1704 344 Z Z" stroke-miterlimit="10"/></g><g transform="translate(-46,-14) scale(1,1)"><path fill="none" stroke="#000000" d="M 1704 384 L 1830 384" stroke-miterlimit="10"/></g><g transform="translate(-46,-14) scale(1,1)"><path fill="none" stroke="#000000" d="M 1704 394 L 1830 394" stroke-miterlimit="10"/></g><g transform="translate(-46,-14) scale(1,1)"><g><path fill="none" stroke="none"/><text fill="#000000" stroke="none" font-family="Arial" font-size="13px" font-style="italic" font-weight="bold" text-decoration="none" x="1711.5" y="363.5">AbstractLookUpDB</text></g></g><g transform="translate(-46,-14) scale(1,1)"><g><path fill="none" stroke="none"/><text fill="#000000" stroke="none" font-family="Arial" font-size="13px" font-style="normal" font-weight="normal" text-decoration="none" x="1708.5" y="378.5">(from PreProcessor)</text></g></g><g transform="translate(-46,-14) scale(1,1)"><path fill="none" stroke="#000000" d="M 1752 343 L 1726 291" stroke-miterlimit="10"/></g><g transform="translate(-46,-14) scale(1,1)"><path fill="#FFFFFF" stroke="none" d="M 1742.6199870099056 305.41443830992284 L 1726 291 L 1727.559558441995 312.9446525938781"/></g><g transform="translate(-46,-14) scale(1,1)"><path fill="none" stroke="#000000" d="M 1742.6199870099056 305.41443830992284 L 1726 291 L 1727.559558441995 312.9446525938781 L 1742.6199870099056 305.41443830992284" stroke-miterlimit="10"/></g><g transform="translate(-46,-14) scale(1,1)"><path fill="none" stroke="#000000" d="M 1700 471 L 1746 404" stroke-miterlimit="10"/></g><g transform="translate(-46,-14) scale(1,1)"><path fill="#FFFFFF" stroke="none" d="M 1741.4363792981062 425.52146291703343 L 1746 404 L 1727.5550604852383 415.99100522461674"/></g><g transform="translate(-46,-14) scale(1,1)"><path fill="none" stroke="#000000" d="M 1741.4363792981062 425.52146291703343 L 1746 404 L 1727.5550604852383 415.99100522461674 L 1741.4363792981062 425.52146291703343" stroke-miterlimit="10"/></g><g transform="translate(-46,-14) scale(1,1)"><path fill="none" stroke="#000000" d="M 1810 471 L 1781 404" stroke-miterlimit="10"/></g><g transform="translate(-46,-14) scale(1,1)"><path fill="#FFFFFF" stroke="none" d="M 1796.8000315990446 419.30878837364963 L 1781 404 L 1781.3473614158888 425.99725755740366"/></g><g transform="translate(-46,-14) scale(1,1)"><path fill="none" stroke="#000000" d="M 1796.8000315990446 419.30878837364963 L 1781 404 L 1781.3473614158888 425.99725755740366 L 1796.8000315990446 419.30878837364963" stroke-miterlimit="10"/></g><g transform="translate(-46,-14) scale(1,1)"><rect fill="#C0C0C0" stroke="none" x="1045" y="127" width="202" height="72" opacity="0.2"/></g><g transform="translate(-46,-14) scale(1,1)"><rect fill="#ffffff" stroke="none" x="1038" y="120" width="202" height="72"/></g><g transform="translate(-46,-14) scale(1,1)"><path fill="none" stroke="#000000" d="M 1038 120 L 1240 120 L 1240 192 L 1038 192 L 1038 120 Z Z" stroke-miterlimit="10"/></g><g transform="translate(-46,-14) scale(1,1)"><path fill="none" stroke="#000000" d="M 1038 145 L 1240 145" stroke-miterlimit="10"/></g><g transform="translate(-46,-14) scale(1,1)"><path fill="none" stroke="#000000" d="M 1038 155 L 1240 155" stroke-miterlimit="10"/></g><g transform="translate(-46,-14) scale(1,1)"><g><path fill="none" stroke="none"/><text fill="#000000" stroke="none" font-family="Arial" font-size="13px" font-style="normal" font-weight="bold" text-decoration="none" x="1093.5" y="139.5">DataSourceXml</text></g></g><g transform="translate(-46,-14) scale(1,1)"><g><path fill="none" stroke="none"/><text fill="#000000" stroke="none" font-family="Arial" font-size="13px" font-style="normal" font-weight="normal" text-decoration="none" x="1043" y="172.5">+getRecords(configuration): array</text></g></g><g transform="translate(-46,-14) scale(1,1)"><path fill="#C0C0C0" stroke="none" d="M 1094.5 359.5 C 1094.5 350.3873008 1101.8873008 343 1111 343 C 1120.1126992 343 1127.5 350.3873008 1127.5 359.5 C 1127.5 368.6126992 1120.1126992 376 1111 376 C 1101.8873008 376 1094.5 368.6126992 1094.5 359.5 Z" opacity="0.2"/></g><g transform="translate(-46,-14) scale(1,1)"><path fill="#ffffff" stroke="none" d="M 1087.5 352.5 C 1087.5 343.3873008 1094.8873008 336 1104 336 C 1113.1126992 336 1120.5 343.3873008 1120.5 352.5 C 1120.5 361.6126992 1113.1126992 369 1104 369 C 1094.8873008 369 1087.5 361.6126992 1087.5 352.5 Z"/></g><g transform="translate(-46,-14) scale(1,1)"><path fill="none" stroke="#000000" d="M 1087.5 352.5 C 1087.5 343.3873008 1094.8873008 336 1104 336 C 1113.1126992 336 1120.5 343.3873008 1120.5 352.5 C 1120.5 361.6126992 1113.1126992 369 1104 369 C 1094.8873008 369 1087.5 361.6126992 1087.5 352.5 Z" stroke-miterlimit="10"/></g><g transform="translate(-46,-14) scale(1,1)"><path fill="none" stroke="#000000" d="M 984 394 L 1224 394" stroke-miterlimit="10"/></g><g transform="translate(-46,-14) scale(1,1)"><g><path fill="none" stroke="none"/><text fill="#000000" stroke="none" font-family="Arial" font-size="13px" font-style="normal" font-weight="bold" text-decoration="none" x="1044.5" y="388.5">DataSourceInterface</text></g></g><g transform="translate(-46,-14) scale(1,1)"><g><path fill="none" stroke="none"/><text fill="#000000" stroke="none" font-family="Arial" font-size="13px" font-style="normal" font-weight="normal" text-decoration="none" x="989" y="411.5">+getRecords(configuration): array</text></g></g><g transform="translate(-46,-14) scale(1,1)"><path fill="none" stroke="#000000" d="M 1133 193 L 1110.5882352941176 336" stroke-miterlimit="10"/></g><g transform="translate(-46,-14) scale(1,1)"><g><path fill="none" stroke="none"/><text fill="#000000" stroke="none" font-family="Arial" font-size="13px" font-style="normal" font-weight="normal" text-decoration="none" x="1098" y="273">+implements</text></g></g><g transform="translate(-46,-14) scale(1,1)"><rect fill="#C0C0C0" stroke="none" x="1711" y="31" width="170" height="100" opacity="0.2"/></g><g transform="translate(-46,-14) scale(1,1)"><rect fill="#ffffff" stroke="none" x="1704" y="24" width="170" height="100"/></g><g transform="translate(-46,-14) scale(1,1)"><path fill="none" stroke="#000000" d="M 1704 24 L 1874 24 L 1874 124 L 1704 124 L 1704 24 Z Z" stroke-miterlimit="10"/></g><g transform="translate(-46,-14) scale(1,1)"><path fill="none" stroke="#000000" d="M 1704 64 L 1874 64" stroke-miterlimit="10"/></g><g transform="translate(-46,-14) scale(1,1)"><path fill="none" stroke="#000000" d="M 1704 87 L 1874 87" stroke-miterlimit="10"/></g><g transform="translate(-46,-14) scale(1,1)"><g><path fill="none" stroke="none"/><text fill="#000000" stroke="none" font-family="Arial" font-size="13px" font-style="italic" font-weight="bold" text-decoration="none" x="1731.5" y="43.5">AbstractComponent</text></g></g><g transform="translate(-46,-14) scale(1,1)"><g><path fill="none" stroke="none"/><text fill="#000000" stroke="none" font-family="Arial" font-size="13px" font-style="normal" font-weight="normal" text-decoration="none" x="1737" y="58.5">(from Component)</text></g></g><g transform="translate(-46,-14) scale(1,1)"><g><path fill="none" stroke="none"/><text fill="#000000" stroke="none" font-family="Arial" font-size="13px" font-style="normal" font-weight="normal" text-decoration="none" x="1709" y="81.5">+contentObjectRenderer</text></g></g><g transform="translate(-46,-14) scale(1,1)"><g><path fill="none" stroke="none"/><text fill="#000000" stroke="none" font-family="Arial" font-size="13px" font-style="normal" font-weight="normal" text-decoration="none" x="1709" y="104.5">+isDisabled(): bool</text></g></g><g transform="translate(-46,-14) scale(1,1)"><g><path fill="none" stroke="none"/><text fill="#000000" stroke="none" font-family="Arial" font-size="13px" font-style="normal" font-weight="normal" text-decoration="none" x="1709" y="119.5">+renderContent(record): null</text></g></g><g transform="translate(-46,-14) scale(1,1)"><path fill="none" stroke="#000000" d="M 1723 230 L 1767 125" stroke-miterlimit="10"/></g><g transform="translate(-46,-14) scale(1,1)"><path fill="#FFFFFF" stroke="none" d="M 1766.909380886711 146.9998133668517 L 1767 125 L 1751.379705393949 140.4921398270276"/></g><g transform="translate(-46,-14) scale(1,1)"><path fill="none" stroke="#000000" d="M 1766.909380886711 146.9998133668517 L 1767 125 L 1751.379705393949 140.4921398270276 L 1766.909380886711 146.9998133668517" stroke-miterlimit="10"/></g><g transform="translate(-46,-14) scale(1,1)"><rect fill="#C0C0C0" stroke="none" x="1831" y="239" width="151" height="59" opacity="0.2"/></g><g transform="translate(-46,-14) scale(1,1)"><rect fill="#ffffff" stroke="none" x="1824" y="232" width="151" height="59"/></g><g transform="translate(-46,-14) scale(1,1)"><path fill="none" stroke="#000000" d="M 1824 232 L 1975 232 L 1975 291 L 1824 291 L 1824 232 Z Z" stroke-miterlimit="10"/></g><g transform="translate(-46,-14) scale(1,1)"><path fill="none" stroke="#000000" d="M 1824 272 L 1975 272" stroke-miterlimit="10"/></g><g transform="translate(-46,-14) scale(1,1)"><path fill="none" stroke="#000000" d="M 1824 282 L 1975 282" stroke-miterlimit="10"/></g><g transform="translate(-46,-14) scale(1,1)"><g><path fill="none" stroke="none"/><text fill="#000000" stroke="none" font-family="Arial" font-size="13px" font-style="italic" font-weight="bold" text-decoration="none" x="1832" y="251.5">AbstractPostProcessor</text></g></g><g transform="translate(-46,-14) scale(1,1)"><g><path fill="none" stroke="none"/><text fill="#000000" stroke="none" font-family="Arial" font-size="13px" font-style="normal" font-weight="normal" text-decoration="none" x="1837.5" y="266.5">(from PostProcessor)</text></g></g><g transform="translate(-46,-14) scale(1,1)"><path fill="none" stroke="#000000" d="M 1881 231 L 1819 125" stroke-miterlimit="10"/></g><g transform="translate(-46,-14) scale(1,1)"><path fill="#FFFFFF" stroke="none" d="M 1836.5291370278326 138.29395934473516 L 1819 125 L 1821.994722859248 146.79522046220907"/></g><g transform="translate(-46,-14) scale(1,1)"><path fill="none" stroke="#000000" d="M 1836.5291370278326 138.29395934473516 L 1819 125 L 1821.994722859248 146.79522046220907 L 1836.5291370278326 138.29395934473516" stroke-miterlimit="10"/></g><g transform="translate(-46,-14) scale(1,1)"><rect fill="#C0C0C0" stroke="none" x="2199" y="479" width="137" height="59" opacity="0.2"/></g><g transform="translate(-46,-14) scale(1,1)"><rect fill="#ffffff" stroke="none" x="2192" y="472" width="137" height="59"/></g><g transform="translate(-46,-14) scale(1,1)"><path fill="none" stroke="#000000" d="M 2192 472 L 2329 472 L 2329 531 L 2192 531 L 2192 472 Z Z" stroke-miterlimit="10"/></g><g transform="translate(-46,-14) scale(1,1)"><path fill="none" stroke="#000000" d="M 2192 512 L 2329 512" stroke-miterlimit="10"/></g><g transform="translate(-46,-14) scale(1,1)"><path fill="none" stroke="#000000" d="M 2192 522 L 2329 522" stroke-miterlimit="10"/></g><g transform="translate(-46,-14) scale(1,1)"><g><path fill="none" stroke="none"/><text fill="#000000" stroke="none" font-family="Arial" font-size="13px" font-style="normal" font-weight="bold" text-decoration="none" x="2201" y="491.5">SetHiddenProperties</text></g></g><g transform="translate(-46,-14) scale(1,1)"><g><path fill="none" stroke="none"/><text fill="#000000" stroke="none" font-family="Arial" font-size="13px" font-style="normal" font-weight="normal" text-decoration="none" x="2198.5" y="506.5">(from PostProcessor)</text></g></g><g transform="translate(-46,-14) scale(1,1)"><path fill="none" stroke="#000000" d="M 2215 471 L 1946 292" stroke-miterlimit="10"/></g><g transform="translate(-46,-14) scale(1,1)"><path fill="#FFFFFF" stroke="none" d="M 1967.5854106450824 296.25088782293363 L 1946 292 L 1958.2573586361743 310.2690218474937"/></g><g transform="translate(-46,-14) scale(1,1)"><path fill="none" stroke="#000000" d="M 1967.5854106450824 296.25088782293363 L 1946 292 L 1958.2573586361743 310.2690218474937 L 1967.5854106450824 296.25088782293363" stroke-miterlimit="10"/></g><g transform="translate(-46,-14) scale(1,1)"><rect fill="#C0C0C0" stroke="none" x="1471" y="479" width="126" height="59" opacity="0.2"/></g><g transform="translate(-46,-14) scale(1,1)"><rect fill="#ffffff" stroke="none" x="1464" y="472" width="126" height="59"/></g><g transform="translate(-46,-14) scale(1,1)"><path fill="none" stroke="#000000" d="M 1464 472 L 1590 472 L 1590 531 L 1464 531 L 1464 472 Z Z" stroke-miterlimit="10"/></g><g transform="translate(-46,-14) scale(1,1)"><path fill="none" stroke="#000000" d="M 1464 512 L 1590 512" stroke-miterlimit="10"/></g><g transform="translate(-46,-14) scale(1,1)"><path fill="none" stroke="#000000" d="M 1464 522 L 1590 522" stroke-miterlimit="10"/></g><g transform="translate(-46,-14) scale(1,1)"><g><path fill="none" stroke="none"/><text fill="#000000" stroke="none" font-family="Arial" font-size="13px" font-style="normal" font-weight="bold" text-decoration="none" x="1484" y="491.5">RenderContent</text></g></g><g transform="translate(-46,-14) scale(1,1)"><g><path fill="none" stroke="none"/><text fill="#000000" stroke="none" font-family="Arial" font-size="13px" font-style="normal" font-weight="normal" text-decoration="none" x="1468.5" y="506.5">(from PreProcessor)</text></g></g><g transform="translate(-46,-14) scale(1,1)"><path fill="none" stroke="#000000" d="M 1550 471 L 1686 291" stroke-miterlimit="10"/></g><g transform="translate(-46,-14) scale(1,1)"><path fill="#FFFFFF" stroke="none" d="M 1680.4644799763687 312.2922055707711 L 1686 291 L 1667.029933308386 302.14165919940655"/></g><g transform="translate(-46,-14) scale(1,1)"><path fill="none" stroke="#000000" d="M 1680.4644799763687 312.2922055707711 L 1686 291 L 1667.029933308386 302.14165919940655 L 1680.4644799763687 312.2922055707711" stroke-miterlimit="10"/></g><g transform="translate(-46,-14) scale(1,1)"><rect fill="#C0C0C0" stroke="none" x="828" y="127" width="202" height="72" opacity="0.2"/></g><g transform="translate(-46,-14) scale(1,1)"><rect fill="#ffffff" stroke="none" x="821" y="120" width="202" height="72"/></g><g transform="translate(-46,-14) scale(1,1)"><path fill="none" stroke="#000000" d="M 821 120 L 1023 120 L 1023 192 L 821 192 L 821 120 Z Z" stroke-miterlimit="10"/></g><g transform="translate(-46,-14) scale(1,1)"><path fill="none" stroke="#000000" d="M 821 145 L 1023 145" stroke-miterlimit="10"/></g><g transform="translate(-46,-14) scale(1,1)"><path fill="none" stroke="#000000" d="M 821 155 L 1023 155" stroke-miterlimit="10"/></g><g transform="translate(-46,-14) scale(1,1)"><g><path fill="none" stroke="none"/><text fill="#000000" stroke="none" font-family="Arial" font-size="13px" font-style="normal" font-weight="bold" text-decoration="none" x="879" y="139.5">DataSourceDB</text></g></g><g transform="translate(-46,-14) scale(1,1)"><g><path fill="none" stroke="none"/><text fill="#000000" stroke="none" font-family="Arial" font-size="13px" font-style="normal" font-weight="normal" text-decoration="none" x="826" y="172.5">+getRecords(configuration): array</text></g></g><g transform="translate(-46,-14) scale(1,1)"><rect fill="#C0C0C0" stroke="none" x="1262" y="127" width="202" height="72" opacity="0.2"/></g><g transform="translate(-46,-14) scale(1,1)"><rect fill="#ffffff" stroke="none" x="1255" y="120" width="202" height="72"/></g><g transform="translate(-46,-14) scale(1,1)"><path fill="none" stroke="#000000" d="M 1255 120 L 1457 120 L 1457 192 L 1255 192 L 1255 120 Z Z" stroke-miterlimit="10"/></g><g transform="translate(-46,-14) scale(1,1)"><path fill="none" stroke="#000000" d="M 1255 145 L 1457 145" stroke-miterlimit="10"/></g><g transform="translate(-46,-14) scale(1,1)"><path fill="none" stroke="#000000" d="M 1255 155 L 1457 155" stroke-miterlimit="10"/></g><g transform="translate(-46,-14) scale(1,1)"><g><path fill="none" stroke="none"/><text fill="#000000" stroke="none" font-family="Arial" font-size="13px" font-style="normal" font-weight="bold" text-decoration="none" x="1310.5" y="139.5">DataSourceCsv</text></g></g><g transform="translate(-46,-14) scale(1,1)"><g><path fill="none" stroke="none"/><text fill="#000000" stroke="none" font-family="Arial" font-size="13px" font-style="normal" font-weight="normal" text-decoration="none" x="1260" y="172.5">+getRecords(configuration): array</text></g></g><g transform="translate(-46,-14) scale(1,1)"><path fill="none" stroke="#000000" d="M 953 193 L 1087.5 343.75" stroke-miterlimit="10"/></g><g transform="translate(-46,-14) scale(1,1)"><g><path fill="none" stroke="none"/><text fill="#000000" stroke="none" font-family="Arial" font-size="13px" font-style="normal" font-weight="normal" text-decoration="none" x="994" y="265">+implements</text></g></g><g transform="translate(-46,-14) scale(1,1)"><path fill="none" stroke="#000000" d="M 1314 193 L 1120.5 346.031914893617" stroke-miterlimit="10"/></g><g transform="translate(-46,-14) scale(1,1)"><g><path fill="none" stroke="none"/><text fill="#000000" stroke="none" font-family="Arial" font-size="13px" font-style="normal" font-weight="normal" text-decoration="none" x="1189" y="287">+implements</text></g></g><g transform="translate(-46,-14) scale(1,1)"><path fill="#C0C0C0" stroke="none" d="M 1714.5 703.5 C 1714.5 697.1487248 1719.6487248 692 1726 692 C 1732.3512752 692 1737.5 697.1487248 1737.5 703.5 C 1737.5 709.8512752 1732.3512752 715 1726 715 C 1719.6487248 715 1714.5 709.8512752 1714.5 703.5 Z" opacity="0.2"/></g><g transform="translate(-46,-14) scale(1,1)"><path fill="#ffffff" stroke="none" d="M 1707.5 696.5 C 1707.5 690.1487248 1712.6487248 685 1719 685 C 1725.3512752 685 1730.5 690.1487248 1730.5 696.5 C 1730.5 702.8512752 1725.3512752 708 1719 708 C 1712.6487248 708 1707.5 702.8512752 1707.5 696.5 Z"/></g><g transform="translate(-46,-14) scale(1,1)"><path fill="none" stroke="#000000" d="M 1707.5 696.5 C 1707.5 690.1487248 1712.6487248 685 1719 685 C 1725.3512752 685 1730.5 690.1487248 1730.5 696.5 C 1730.5 702.8512752 1725.3512752 708 1719 708 C 1712.6487248 708 1707.5 702.8512752 1707.5 696.5 Z" stroke-miterlimit="10"/></g><g transform="translate(-46,-14) scale(1,1)"><g><path fill="none" stroke="none"/><text fill="#000000" stroke="none" font-family="Arial" font-size="13px" font-style="normal" font-weight="bold" text-decoration="none" x="1654" y="727.5">PreProcessorInterface</text></g></g><g transform="translate(-46,-14) scale(1,1)"><g><path fill="none" stroke="none"/><text fill="#000000" stroke="none" font-family="Arial" font-size="13px" font-style="normal" font-weight="normal" text-decoration="none" x="1660.5" y="742.5">(from PreProcessor)</text></g></g><g transform="translate(-46,-14) scale(1,1)"><path fill="none" stroke="#000000" d="M 1555 532 L 1707.5 691.2413793103449" stroke-miterlimit="10"/></g><g transform="translate(-46,-14) scale(1,1)"><path fill="none" stroke="#000000" d="M 1808 532 L 1730.5 686.8" stroke-miterlimit="10"/></g><g transform="translate(-46,-14) scale(1,1)"><rect fill="#C0C0C0" stroke="none" x="1623" y="479" width="126" height="59" opacity="0.2"/></g><g transform="translate(-46,-14) scale(1,1)"><rect fill="#ffffff" stroke="none" x="1616" y="472" width="126" height="59"/></g><g transform="translate(-46,-14) scale(1,1)"><path fill="none" stroke="#000000" d="M 1616 472 L 1742 472 L 1742 531 L 1616 531 L 1616 472 Z Z" stroke-miterlimit="10"/></g><g transform="translate(-46,-14) scale(1,1)"><path fill="none" stroke="#000000" d="M 1616 512 L 1742 512" stroke-miterlimit="10"/></g><g transform="translate(-46,-14) scale(1,1)"><path fill="none" stroke="#000000" d="M 1616 522 L 1742 522" stroke-miterlimit="10"/></g><g transform="translate(-46,-14) scale(1,1)"><g><path fill="none" stroke="none"/><text fill="#000000" stroke="none" font-family="Arial" font-size="13px" font-style="normal" font-weight="bold" text-decoration="none" x="1632.5" y="491.5">LookUpLocalDB</text></g></g><g transform="translate(-46,-14) scale(1,1)"><g><path fill="none" stroke="none"/><text fill="#000000" stroke="none" font-family="Arial" font-size="13px" font-style="normal" font-weight="normal" text-decoration="none" x="1620.5" y="506.5">(from PreProcessor)</text></g></g><g transform="translate(-46,-14) scale(1,1)"><rect fill="#C0C0C0" stroke="none" x="1767" y="479" width="126" height="59" opacity="0.2"/></g><g transform="translate(-46,-14) scale(1,1)"><rect fill="#ffffff" stroke="none" x="1760" y="472" width="126" height="59"/></g><g transform="translate(-46,-14) scale(1,1)"><path fill="none" stroke="#000000" d="M 1760 472 L 1886 472 L 1886 531 L 1760 531 L 1760 472 Z Z" stroke-miterlimit="10"/></g><g transform="translate(-46,-14) scale(1,1)"><path fill="none" stroke="#000000" d="M 1760 512 L 1886 512" stroke-miterlimit="10"/></g><g transform="translate(-46,-14) scale(1,1)"><path fill="none" stroke="#000000" d="M 1760 522 L 1886 522" stroke-miterlimit="10"/></g><g transform="translate(-46,-14) scale(1,1)"><g><path fill="none" stroke="none"/><text fill="#000000" stroke="none" font-family="Arial" font-size="13px" font-style="normal" font-weight="bold" text-decoration="none" x="1771.5" y="491.5">LookUpSourceDB</text></g></g><g transform="translate(-46,-14) scale(1,1)"><g><path fill="none" stroke="none"/><text fill="#000000" stroke="none" font-family="Arial" font-size="13px" font-style="normal" font-weight="normal" text-decoration="none" x="1764.5" y="506.5">(from PreProcessor)</text></g></g><g transform="translate(-46,-14) scale(1,1)"><path fill="none" stroke="#000000" d="M 1685 532 L 1713.5 685" stroke-miterlimit="10"/></g><g transform="translate(-46,-14) scale(1,1)"><rect fill="#C0C0C0" stroke="none" x="271" y="935" width="469" height="100" opacity="0.2"/></g><g transform="translate(-46,-14) scale(1,1)"><rect fill="#ffffff" stroke="none" x="264" y="928" width="469" height="100"/></g><g transform="translate(-46,-14) scale(1,1)"><path fill="none" stroke="#000000" d="M 264 928 L 733 928 L 733 1028 L 264 1028 L 264 928 Z Z" stroke-miterlimit="10"/></g><g transform="translate(-46,-14) scale(1,1)"><path fill="none" stroke="#000000" d="M 264 968 L 733 968" stroke-miterlimit="10"/></g><g transform="translate(-46,-14) scale(1,1)"><path fill="none" stroke="#000000" d="M 264 1006 L 733 1006" stroke-miterlimit="10"/></g><g transform="translate(-46,-14) scale(1,1)"><g><path fill="none" stroke="none"/><text fill="#000000" stroke="none" font-family="Arial" font-size="13px" font-style="normal" font-weight="bold" text-decoration="none" x="435.5" y="947.5">DataTargetRepository</text></g></g><g transform="translate(-46,-14) scale(1,1)"><g><path fill="none" stroke="none"/><text fill="#000000" stroke="none" font-family="Arial" font-size="13px" font-style="normal" font-weight="normal" text-decoration="none" x="445" y="962.5">(from Persistence)</text></g></g><g transform="translate(-46,-14) scale(1,1)"><g><path fill="none" stroke="none"/><text fill="#000000" stroke="none" font-family="Arial" font-size="13px" font-style="normal" font-weight="normal" text-decoration="none" x="269" y="985.5">#targetClass: string</text></g></g><g transform="translate(-46,-14) scale(1,1)"><g><path fill="none" stroke="none"/><text fill="#000000" stroke="none" font-family="Arial" font-size="13px" font-style="normal" font-weight="normal" text-decoration="none" x="269" y="1000.5">«external»+PropertyMapper: TYPO3/CMS/Extbase/Property/PropertyMapper[1]</text></g></g><g transform="translate(-46,-14) scale(1,1)"><g><path fill="none" stroke="none"/><text fill="#000000" stroke="none" font-family="Arial" font-size="13px" font-style="normal" font-weight="normal" text-decoration="none" x="269" y="1023.5">+persist(record)</text></g></g><g transform="translate(-46,-14) scale(1,1)"><rect fill="#C0C0C0" stroke="none" x="63" y="943" width="116" height="85" opacity="0.2"/></g><g transform="translate(-46,-14) scale(1,1)"><rect fill="#ffffff" stroke="none" x="56" y="936" width="116" height="85"/></g><g transform="translate(-46,-14) scale(1,1)"><path fill="none" stroke="#000000" d="M 56 936 L 172 936 L 172 1021 L 56 1021 L 56 936 Z Z" stroke-miterlimit="10"/></g><g transform="translate(-46,-14) scale(1,1)"><path fill="none" stroke="#000000" d="M 56 976 L 172 976" stroke-miterlimit="10"/></g><g transform="translate(-46,-14) scale(1,1)"><path fill="none" stroke="#000000" d="M 56 999 L 172 999" stroke-miterlimit="10"/></g><g transform="translate(-46,-14) scale(1,1)"><g><path fill="none" stroke="none"/><text fill="#000000" stroke="none" font-family="Arial" font-size="13px" font-style="normal" font-weight="bold" text-decoration="none" x="73" y="955.5">DataTargetDB</text></g></g><g transform="translate(-46,-14) scale(1,1)"><g><path fill="none" stroke="none"/><text fill="#000000" stroke="none" font-family="Arial" font-size="13px" font-style="normal" font-weight="normal" text-decoration="none" x="60.5" y="970.5">(from Persistence)</text></g></g><g transform="translate(-46,-14) scale(1,1)"><g><path fill="none" stroke="none"/><text fill="#000000" stroke="none" font-family="Arial" font-size="13px" font-style="normal" font-weight="normal" text-decoration="none" x="61" y="993.5">#tableName</text></g></g><g transform="translate(-46,-14) scale(1,1)"><g><path fill="none" stroke="none"/><text fill="#000000" stroke="none" font-family="Arial" font-size="13px" font-style="normal" font-weight="normal" text-decoration="none" x="61" y="1016.5">+persist(record)</text></g></g><g transform="translate(-46,-14) scale(1,1)"><path fill="#C0C0C0" stroke="none" d="M 339.5 1122.5 C 339.5 1116.1487248 344.6487248 1111 351 1111 C 357.3512752 1111 362.5 1116.1487248 362.5 1122.5 C 362.5 1128.8512752 357.3512752 1134 351 1134 C 344.6487248 1134 339.5 1128.8512752 339.5 1122.5 Z" opacity="0.2"/></g><g transform="translate(-46,-14) scale(1,1)"><path fill="#ffffff" stroke="none" d="M 332.5 1115.5 C 332.5 1109.1487248 337.6487248 1104 344 1104 C 350.3512752 1104 355.5 1109.1487248 355.5 1115.5 C 355.5 1121.8512752 350.3512752 1127 344 1127 C 337.6487248 1127 332.5 1121.8512752 332.5 1115.5 Z"/></g><g transform="translate(-46,-14) scale(1,1)"><path fill="none" stroke="#000000" d="M 332.5 1115.5 C 332.5 1109.1487248 337.6487248 1104 344 1104 C 350.3512752 1104 355.5 1109.1487248 355.5 1115.5 C 355.5 1121.8512752 350.3512752 1127 344 1127 C 337.6487248 1127 332.5 1121.8512752 332.5 1115.5 Z" stroke-miterlimit="10"/></g><g transform="translate(-46,-14) scale(1,1)"><g><path fill="none" stroke="none"/><text fill="#000000" stroke="none" font-family="Arial" font-size="13px" font-style="normal" font-weight="bold" text-decoration="none" x="286.5" y="1146.5">DataTargetInterface</text></g></g><g transform="translate(-46,-14) scale(1,1)"><g><path fill="none" stroke="none"/><text fill="#000000" stroke="none" font-family="Arial" font-size="13px" font-style="normal" font-weight="normal" text-decoration="none" x="290.5" y="1161.5">(from Persistence)</text></g></g><g transform="translate(-46,-14) scale(1,1)"><path fill="none" stroke="#000000" d="M 448 1029 L 355.5 1110.5483870967741" stroke-miterlimit="10"/></g><g transform="translate(-46,-14) scale(1,1)"><g><path fill="none" stroke="none"/><text fill="#000000" stroke="none" font-family="Arial" font-size="13px" font-style="normal" font-weight="normal" text-decoration="none" x="374" y="1087">+implements</text></g></g><g transform="translate(-46,-14) scale(1,1)"><path fill="none" stroke="#000000" d="M 173 1018 L 332.5 1112.063829787234" stroke-miterlimit="10"/></g><g transform="translate(-46,-14) scale(1,1)"><g><path fill="none" stroke="none"/><text fill="#000000" stroke="none" font-family="Arial" font-size="13px" font-style="normal" font-weight="normal" text-decoration="none" x="222" y="1059">+implements</text></g></g><g transform="translate(-46,-14) scale(1,1)"><path fill="#C0C0C0" stroke="none" d="M 2272 690.5 C 2272 684.1487248 2277.1487248 679 2283.5 679 C 2289.8512752 679 2295 684.1487248 2295 690.5 C 2295 696.8512752 2289.8512752 702 2283.5 702 C 2277.1487248 702 2272 696.8512752 2272 690.5 Z" opacity="0.2"/></g><g transform="translate(-46,-14) scale(1,1)"><path fill="#ffffff" stroke="none" d="M 2265 683.5 C 2265 677.1487248 2270.1487248 672 2276.5 672 C 2282.8512752 672 2288 677.1487248 2288 683.5 C 2288 689.8512752 2282.8512752 695 2276.5 695 C 2270.1487248 695 2265 689.8512752 2265 683.5 Z"/></g><g transform="translate(-46,-14) scale(1,1)"><path fill="none" stroke="#000000" d="M 2265 683.5 C 2265 677.1487248 2270.1487248 672 2276.5 672 C 2282.8512752 672 2288 677.1487248 2288 683.5 C 2288 689.8512752 2282.8512752 695 2276.5 695 C 2270.1487248 695 2265 689.8512752 2265 683.5 Z" stroke-miterlimit="10"/></g><g transform="translate(-46,-14) scale(1,1)"><g><path fill="none" stroke="none"/><text fill="#000000" stroke="none" font-family="Arial" font-size="13px" font-style="normal" font-weight="bold" text-decoration="none" x="2208" y="714.5">PostProcessorInterface</text></g></g><g transform="translate(-46,-14) scale(1,1)"><g><path fill="none" stroke="none"/><text fill="#000000" stroke="none" font-family="Arial" font-size="13px" font-style="normal" font-weight="normal" text-decoration="none" x="2214.5" y="729.5">(from PostProcessor)</text></g></g><g transform="translate(-46,-14) scale(1,1)"><path fill="none" stroke="#000000" d="M 2262 532 L 2273.25 672" stroke-miterlimit="10"/></g><g transform="translate(-46,-14) scale(1,1)"><rect fill="#C0C0C0" stroke="none" x="1319" y="483" width="126" height="59" opacity="0.2"/></g><g transform="translate(-46,-14) scale(1,1)"><rect fill="#ffffff" stroke="none" x="1312" y="476" width="126" height="59"/></g><g transform="translate(-46,-14) scale(1,1)"><path fill="none" stroke="#000000" d="M 1312 476 L 1438 476 L 1438 535 L 1312 535 L 1312 476 Z Z" stroke-miterlimit="10"/></g><g transform="translate(-46,-14) scale(1,1)"><path fill="none" stroke="#000000" d="M 1312 516 L 1438 516" stroke-miterlimit="10"/></g><g transform="translate(-46,-14) scale(1,1)"><path fill="none" stroke="#000000" d="M 1312 526 L 1438 526" stroke-miterlimit="10"/></g><g transform="translate(-46,-14) scale(1,1)"><g><path fill="none" stroke="none"/><text fill="#000000" stroke="none" font-family="Arial" font-size="13px" font-style="normal" font-weight="bold" text-decoration="none" x="1321" y="495.5">ConcatenateFields</text></g></g><g transform="translate(-46,-14) scale(1,1)"><g><path fill="none" stroke="none"/><text fill="#000000" stroke="none" font-family="Arial" font-size="13px" font-style="normal" font-weight="normal" text-decoration="none" x="1316.5" y="510.5">(from PreProcessor)</text></g></g><g transform="translate(-46,-14) scale(1,1)"><path fill="none" stroke="#000000" d="M 1426 536 L 1707.5 693.3461538461538" stroke-miterlimit="10"/></g><g transform="translate(-46,-14) scale(1,1)"><rect fill="#C0C0C0" stroke="none" x="1167" y="487" width="126" height="59" opacity="0.2"/></g><g transform="translate(-46,-14) scale(1,1)"><rect fill="#ffffff" stroke="none" x="1160" y="480" width="126" height="59"/></g><g transform="translate(-46,-14) scale(1,1)"><path fill="none" stroke="#000000" d="M 1160 480 L 1286 480 L 1286 539 L 1160 539 L 1160 480 Z Z" stroke-miterlimit="10"/></g><g transform="translate(-46,-14) scale(1,1)"><path fill="none" stroke="#000000" d="M 1160 520 L 1286 520" stroke-miterlimit="10"/></g><g transform="translate(-46,-14) scale(1,1)"><path fill="none" stroke="#000000" d="M 1160 530 L 1286 530" stroke-miterlimit="10"/></g><g transform="translate(-46,-14) scale(1,1)"><g><path fill="none" stroke="none"/><text fill="#000000" stroke="none" font-family="Arial" font-size="13px" font-style="normal" font-weight="bold" text-decoration="none" x="1176.5" y="499.5">MapFieldValues</text></g></g><g transform="translate(-46,-14) scale(1,1)"><g><path fill="none" stroke="none"/><text fill="#000000" stroke="none" font-family="Arial" font-size="13px" font-style="normal" font-weight="normal" text-decoration="none" x="1164.5" y="514.5">(from PreProcessor)</text></g></g><g transform="translate(-46,-14) scale(1,1)"><rect fill="#C0C0C0" stroke="none" x="1027" y="489" width="126" height="59" opacity="0.2"/></g><g transform="translate(-46,-14) scale(1,1)"><rect fill="#ffffff" stroke="none" x="1020" y="482" width="126" height="59"/></g><g transform="translate(-46,-14) scale(1,1)"><path fill="none" stroke="#000000" d="M 1020 482 L 1146 482 L 1146 541 L 1020 541 L 1020 482 Z Z" stroke-miterlimit="10"/></g><g transform="translate(-46,-14) scale(1,1)"><path fill="none" stroke="#000000" d="M 1020 522 L 1146 522" stroke-miterlimit="10"/></g><g transform="translate(-46,-14) scale(1,1)"><path fill="none" stroke="#000000" d="M 1020 532 L 1146 532" stroke-miterlimit="10"/></g><g transform="translate(-46,-14) scale(1,1)"><g><path fill="none" stroke="none"/><text fill="#000000" stroke="none" font-family="Arial" font-size="13px" font-style="normal" font-weight="bold" text-decoration="none" x="1052.5" y="501.5">AddArrays</text></g></g><g transform="translate(-46,-14) scale(1,1)"><g><path fill="none" stroke="none"/><text fill="#000000" stroke="none" font-family="Arial" font-size="13px" font-style="normal" font-weight="normal" text-decoration="none" x="1024.5" y="516.5">(from PreProcessor)</text></g></g><g transform="translate(-46,-14) scale(1,1)"><rect fill="#C0C0C0" stroke="none" x="863" y="487" width="126" height="59" opacity="0.2"/></g><g transform="translate(-46,-14) scale(1,1)"><rect fill="#ffffff" stroke="none" x="856" y="480" width="126" height="59"/></g><g transform="translate(-46,-14) scale(1,1)"><path fill="none" stroke="#000000" d="M 856 480 L 982 480 L 982 539 L 856 539 L 856 480 Z Z" stroke-miterlimit="10"/></g><g transform="translate(-46,-14) scale(1,1)"><path fill="none" stroke="#000000" d="M 856 520 L 982 520" stroke-miterlimit="10"/></g><g transform="translate(-46,-14) scale(1,1)"><path fill="none" stroke="#000000" d="M 856 530 L 982 530" stroke-miterlimit="10"/></g><g transform="translate(-46,-14) scale(1,1)"><g><path fill="none" stroke="none"/><text fill="#000000" stroke="none" font-family="Arial" font-size="13px" font-style="normal" font-weight="bold" text-decoration="none" x="889" y="499.5">MapFields</text></g></g><g transform="translate(-46,-14) scale(1,1)"><g><path fill="none" stroke="none"/><text fill="#000000" stroke="none" font-family="Arial" font-size="13px" font-style="normal" font-weight="normal" text-decoration="none" x="860.5" y="514.5">(from PreProcessor)</text></g></g><g transform="translate(-46,-14) scale(1,1)"><rect fill="#C0C0C0" stroke="none" x="1903" y="479" width="126" height="59" opacity="0.2"/></g><g transform="translate(-46,-14) scale(1,1)"><rect fill="#ffffff" stroke="none" x="1896" y="472" width="126" height="59"/></g><g transform="translate(-46,-14) scale(1,1)"><path fill="none" stroke="#000000" d="M 1896 472 L 2022 472 L 2022 531 L 1896 531 L 1896 472 Z Z" stroke-miterlimit="10"/></g><g transform="translate(-46,-14) scale(1,1)"><path fill="none" stroke="#000000" d="M 1896 512 L 2022 512" stroke-miterlimit="10"/></g><g transform="translate(-46,-14) scale(1,1)"><path fill="none" stroke="#000000" d="M 1896 522 L 2022 522" stroke-miterlimit="10"/></g><g transform="translate(-46,-14) scale(1,1)"><g><path fill="none" stroke="none"/><text fill="#000000" stroke="none" font-family="Arial" font-size="13px" font-style="normal" font-weight="bold" text-decoration="none" x="1915" y="491.5">SetFieldValues</text></g></g><g transform="translate(-46,-14) scale(1,1)"><g><path fill="none" stroke="none"/><text fill="#000000" stroke="none" font-family="Arial" font-size="13px" font-style="normal" font-weight="normal" text-decoration="none" x="1900.5" y="506.5">(from PreProcessor)</text></g></g><g transform="translate(-46,-14) scale(1,1)"><rect fill="#C0C0C0" stroke="none" x="2039" y="479" width="126" height="59" opacity="0.2"/></g><g transform="translate(-46,-14) scale(1,1)"><rect fill="#ffffff" stroke="none" x="2032" y="472" width="126" height="59"/></g><g transform="translate(-46,-14) scale(1,1)"><path fill="none" stroke="#000000" d="M 2032 472 L 2158 472 L 2158 531 L 2032 531 L 2032 472 Z Z" stroke-miterlimit="10"/></g><g transform="translate(-46,-14) scale(1,1)"><path fill="none" stroke="#000000" d="M 2032 512 L 2158 512" stroke-miterlimit="10"/></g><g transform="translate(-46,-14) scale(1,1)"><path fill="none" stroke="#000000" d="M 2032 522 L 2158 522" stroke-miterlimit="10"/></g><g transform="translate(-46,-14) scale(1,1)"><g><path fill="none" stroke="none"/><text fill="#000000" stroke="none" font-family="Arial" font-size="13px" font-style="normal" font-weight="bold" text-decoration="none" x="2056" y="491.5">StringToTime</text></g></g><g transform="translate(-46,-14) scale(1,1)"><g><path fill="none" stroke="none"/><text fill="#000000" stroke="none" font-family="Arial" font-size="13px" font-style="normal" font-weight="normal" text-decoration="none" x="2036.5" y="506.5">(from PreProcessor)</text></g></g><g transform="translate(-46,-14) scale(1,1)"><path fill="none" stroke="#000000" d="M 2041 532 L 1730.5 693.5357142857143" stroke-miterlimit="10"/></g><g transform="translate(-46,-14) scale(1,1)"><path fill="none" stroke="#000000" d="M 1924 532 L 1730.5 692.1666666666666" stroke-miterlimit="10"/></g><g transform="translate(-46,-14) scale(1,1)"><path fill="none" stroke="#000000" d="M 1287 536 L 1707.5 694.2905405405405" stroke-miterlimit="10"/></g><g transform="translate(-46,-14) scale(1,1)"><path fill="none" stroke="#000000" d="M 1147 532 L 1707.5 695.3783783783783" stroke-miterlimit="10"/></g><g transform="translate(-46,-14) scale(1,1)"><path fill="none" stroke="#000000" d="M 983 526 L 1707.5 696.1554054054054" stroke-miterlimit="10"/></g></g></svg>