<?xml version="1.0" encoding="UTF-8"?>
<svg width="700pt" height="700pt" version="1.1" viewBox="0 0 700 700" xmlns="http://www.w3.org/2000/svg">
 <g>
  <path d="m280 140h-35v89.426c0.16016 10.586 3.6172 20.863 9.8906 29.395s15.051 14.895 25.109 18.203c5.6211 1.9805 11.539 2.9844 17.5 2.9766h105v-70h35v70h105c5.9609 0.007812 11.879-0.99609 17.5-2.9766 10.059-3.3086 18.836-9.6719 25.109-18.203s9.7305-18.809 9.8906-29.395v-89.426z"/>
  <path d="m490 105v-70h-140v70h35v-35h70v35z"/>
  <path d="m542.5 315h-245c-5.8789 0.042969-11.746-0.54297-17.5-1.75-12.73-2.4609-24.715-7.8516-35-15.75v87.5h350v-87.5c-10.301 7.8359-22.285 13.168-35 15.574-5.7461 1.2656-11.613 1.9102-17.5 1.9258z"/>
  <path d="m175 175v280h350v-35h-315v-245z"/>
  <path d="m455 490h-315v-245h-35v280h350z"/>
 </g>
</svg>
